<svg width="375" height="812" viewBox="0 0 375 812" fill="none" xmlns="http://www.w3.org/2000/svg">
<g opacity="0.05">
<path d="M97.0001 386.4C99.9001 383.5 102.9 380.5 105.8 377.6C113.8 369.6 121.8 361.6 129.7 353.7C141.5 341.9 153.3 330.1 165.1 318.3C179.6 303.8 194 289.4 208.5 274.9C224.3 259.1 240 243.4 255.8 227.6C271.8 211.6 287.8 195.6 303.7 179.7C318.5 164.9 333.4 150 348.2 135.2C360.7 122.7 373.3 110.1 385.8 97.6001C394.9 88.5001 403.9 79.5001 413 70.4001C417.3 66.1001 421.6 61.9001 425.8 57.6001C426 57.4001 426.2 57.2001 426.4 57.0001C433.6 49.8001 434.1 36.7001 426.4 29.6001C418.7 22.5001 406.7 21.9001 399 29.6001C396.1 32.5001 393.1 35.5001 390.2 38.4001C382.2 46.4001 374.2 54.4001 366.3 62.3001C354.5 74.1001 342.7 85.9001 330.9 97.7001C316.4 112.2 302 126.6 287.5 141.1C271.7 156.9 256 172.6 240.2 188.4C224.2 204.4 208.2 220.4 192.3 236.3C177.5 251.1 162.6 266 147.8 280.8C135.3 293.3 122.7 305.9 110.2 318.4C101.1 327.5 92.1001 336.5 83.0001 345.6C78.7001 349.9 74.4001 354.1 70.2001 358.4C70.0001 358.6 69.8001 358.8 69.6001 359C62.4001 366.2 61.9001 379.3 69.6001 386.4C77.3001 393.5 89.3001 394 97.0001 386.4Z" fill="white"/>
<path d="M-234.011 407.352C-231.111 404.452 -228.111 401.452 -225.211 398.552C-217.211 390.552 -209.211 382.552 -201.311 374.652C-189.511 362.852 -177.711 351.052 -165.911 339.252C-151.411 324.752 -137.011 310.352 -122.511 295.852C-106.711 280.052 -91.0109 264.352 -75.2109 248.552C-59.2109 232.552 -43.2109 216.552 -27.3109 200.652C-12.5109 185.852 2.38909 170.952 17.1891 156.152C29.6891 143.652 42.2891 131.052 54.7891 118.552C63.8891 109.452 72.8891 100.452 81.9891 91.3523C86.2891 87.0523 90.5891 82.8523 94.7891 78.5523C94.9891 78.3523 95.1891 78.1523 95.3891 77.9523C102.589 70.7523 103.089 57.6523 95.3891 50.5523C87.6891 43.4523 75.6891 42.8523 67.9891 50.5523C65.0891 53.4523 62.0891 56.4523 59.1891 59.3523C51.1891 67.3523 43.1891 75.3523 35.2891 83.2523C23.4891 95.0523 11.6891 106.852 -0.110931 118.652C-14.6109 133.152 -29.0109 147.552 -43.5109 162.052C-59.3109 177.852 -75.0109 193.552 -90.8109 209.352C-106.811 225.352 -122.811 241.352 -138.711 257.252C-153.511 272.052 -168.411 286.952 -183.211 301.752C-195.711 314.252 -208.311 326.852 -220.811 339.352C-229.911 348.452 -238.911 357.452 -248.011 366.552C-252.311 370.852 -256.611 375.052 -260.811 379.352C-261.011 379.552 -261.211 379.752 -261.411 379.952C-268.611 387.152 -269.111 400.252 -261.411 407.352C-253.711 414.452 -241.711 414.952 -234.011 407.352Z" fill="white"/>
<path d="M97.0001 979.4C99.9001 976.5 102.9 973.5 105.8 970.6C113.8 962.6 121.8 954.6 129.7 946.7C141.5 934.9 153.3 923.1 165.1 911.3C179.6 896.8 194 882.4 208.5 867.9C224.3 852.1 240 836.4 255.8 820.6C271.8 804.6 287.8 788.6 303.7 772.7C318.5 757.9 333.4 743 348.2 728.2C360.7 715.7 373.3 703.1 385.8 690.6C394.9 681.5 403.9 672.5 413 663.4C417.3 659.1 421.6 654.9 425.8 650.6C426 650.4 426.2 650.2 426.4 650C433.6 642.8 434.1 629.7 426.4 622.6C418.7 615.5 406.7 614.9 399 622.6C396.1 625.5 393.1 628.5 390.2 631.4C382.2 639.4 374.2 647.4 366.3 655.3C354.5 667.1 342.7 678.9 330.9 690.7C316.4 705.2 302 719.6 287.5 734.1C271.7 749.9 256 765.6 240.2 781.4C224.2 797.4 208.2 813.4 192.3 829.3C177.5 844.1 162.6 859 147.8 873.8C135.3 886.3 122.7 898.9 110.2 911.4C101.1 920.5 92.1001 929.5 83.0001 938.6C78.7001 942.9 74.4001 947.1 70.2001 951.4C70.0001 951.6 69.8001 951.8 69.6001 952C62.4001 959.2 61.9001 972.3 69.6001 979.4C77.3001 986.5 89.3001 987 97.0001 979.4Z" fill="white"/>
<path d="M202.9 704.3C205.8 701.4 208.8 698.4 211.7 695.5C219.7 687.5 227.7 679.5 235.6 671.6C247.4 659.8 259.2 648 271 636.2C285.5 621.7 299.9 607.3 314.4 592.8C330.2 577 345.9 561.3 361.7 545.5C377.7 529.5 393.7 513.5 409.6 497.6C424.4 482.8 439.3 467.9 454.1 453.1C466.6 440.6 479.2 428 491.7 415.5C500.8 406.4 509.8 397.4 518.9 388.3C523.2 384 527.5 379.8 531.7 375.5C531.9 375.3 532.1 375.1 532.3 374.9C539.5 367.7 540 354.6 532.3 347.5C524.6 340.4 512.6 339.8 504.9 347.5C502 350.4 499 353.4 496.1 356.3C488.1 364.3 480.1 372.3 472.2 380.2C460.4 392 448.6 403.8 436.8 415.6C422.3 430.1 407.9 444.5 393.4 459C377.6 474.8 361.9 490.5 346.1 506.3C330.1 522.3 314.1 538.3 298.2 554.2C283.4 569 268.5 583.9 253.7 598.7C241.2 611.2 228.6 623.8 216.1 636.3C207 645.4 198 654.4 188.9 663.5C184.6 667.8 180.3 672 176.1 676.3C175.9 676.5 175.7 676.7 175.5 676.9C168.3 684.1 167.8 697.2 175.5 704.3C183.2 711.4 195.2 711.9 202.9 704.3Z" fill="white"/>
<path d="M-234.011 1000.35C-231.111 997.452 -228.111 994.452 -225.211 991.552C-217.211 983.552 -209.211 975.552 -201.311 967.652C-189.511 955.852 -177.711 944.052 -165.911 932.252C-151.411 917.752 -137.011 903.352 -122.511 888.852C-106.711 873.052 -91.0109 857.352 -75.2109 841.552C-59.2109 825.552 -43.2109 809.552 -27.3109 793.652C-12.5109 778.852 2.38909 763.952 17.1891 749.152C29.6891 736.652 42.2891 724.052 54.7891 711.552C63.8891 702.452 72.8891 693.452 81.9891 684.352C86.2891 680.052 90.5891 675.852 94.7891 671.552C94.9891 671.352 95.1891 671.152 95.3891 670.952C102.589 663.752 103.089 650.652 95.3891 643.552C87.6891 636.452 75.6891 635.852 67.9891 643.552C65.0891 646.452 62.0891 649.452 59.1891 652.352C51.1891 660.352 43.1891 668.352 35.2891 676.252C23.4891 688.052 11.6891 699.852 -0.110931 711.652C-14.6109 726.152 -29.0109 740.552 -43.5109 755.052C-59.3109 770.852 -75.0109 786.552 -90.8109 802.352C-106.811 818.352 -122.811 834.352 -138.711 850.252C-153.511 865.052 -168.411 879.952 -183.211 894.752C-195.711 907.252 -208.311 919.852 -220.811 932.352C-229.911 941.452 -238.911 950.452 -248.011 959.552C-252.311 963.852 -256.611 968.052 -260.811 972.352C-261.011 972.552 -261.211 972.752 -261.411 972.952C-268.611 980.152 -269.111 993.252 -261.411 1000.35C-253.711 1007.45 -241.711 1007.95 -234.011 1000.35Z" fill="white"/>
<path d="M214 105.4C216.9 102.5 219.9 99.5 222.8 96.6C230.8 88.6 238.8 80.6 246.7 72.7C258.5 60.9 270.3 49.1 282.1 37.3C296.6 22.8 311 8.40001 325.5 -6.09999C341.3 -21.9 357 -37.6 372.8 -53.4C388.8 -69.4 404.8 -85.4 420.7 -101.3C435.5 -116.1 450.4 -131 465.2 -145.8C477.7 -158.3 490.3 -170.9 502.8 -183.4C511.9 -192.5 520.9 -201.5 530 -210.6C534.3 -214.9 538.6 -219.1 542.8 -223.4C543 -223.6 543.2 -223.8 543.4 -224C550.6 -231.2 551.1 -244.3 543.4 -251.4C535.7 -258.5 523.7 -259.1 516 -251.4C513.1 -248.5 510.1 -245.5 507.2 -242.6C499.2 -234.6 491.2 -226.6 483.3 -218.7C471.5 -206.9 459.7 -195.1 447.9 -183.3C433.4 -168.8 419 -154.4 404.5 -139.9C388.7 -124.1 373 -108.4 357.2 -92.6C341.2 -76.6 325.2 -60.6 309.3 -44.7C294.5 -29.9 279.6 -15 264.8 -0.200012C252.3 12.3 239.7 24.9 227.2 37.4C218.1 46.5 209.1 55.5 200 64.6C195.7 68.9 191.4 73.1 187.2 77.4C187 77.6 186.8 77.8 186.6 78C179.4 85.2 178.9 98.3 186.6 105.4C194.3 112.5 206.3 113 214 105.4Z" fill="white"/>
</g>
</svg>
