<svg width="56" height="56" viewBox="0 0 56 56" fill="none" xmlns="http://www.w3.org/2000/svg">
<rect width="56" height="56" rx="15" fill="#FEBC11"/>
<g clip-path="url(#clip0_380_1438)">
<path d="M42.2038 20.5461C42.8819 20.5461 43.4315 20.0037 43.4315 19.3345V18.0624C43.4315 14.7196 40.6757 12 37.2884 12C37.2884 12 18.0441 12.0028 17.9967 12.0084C16.3768 12.0642 14.8208 12.7502 13.6992 13.91C12.5495 15.0988 11.9502 16.645 12.0066 18.2718C12.0042 18.3026 12.003 35.7465 12.003 35.7465C12.003 39.7573 15.3095 43.0204 19.3737 43.0204H37.2885C40.6757 43.0204 43.4315 40.3008 43.4315 36.958V27.7594C43.4315 24.4166 40.6757 21.697 37.2885 21.697H18.1413C16.1702 21.697 14.5542 20.1767 14.4624 18.2358C14.4156 17.2488 14.7754 16.3067 15.4753 15.5829C16.1853 14.8487 17.1825 14.4277 18.2111 14.4277C18.2473 14.4277 37.2883 14.4231 37.2883 14.4231C39.3217 14.4231 40.976 16.0557 40.976 18.0624V19.3345C40.9761 20.0037 41.5258 20.5461 42.2038 20.5461ZM18.1413 24.1202H37.2884C39.3218 24.1202 40.9761 25.7527 40.9761 27.7594V36.958C40.9761 38.9647 39.3218 40.5973 37.2884 40.5973H19.3737C16.6634 40.5973 14.4584 38.4212 14.4584 35.7465V22.9135C15.4852 23.6725 16.7611 24.1202 18.1413 24.1202ZM38.5208 32.3587C38.5208 33.1951 37.8337 33.8732 36.9862 33.8732C34.9506 33.7934 34.9512 30.9238 36.9862 30.8443C37.8337 30.8443 38.5208 31.5223 38.5208 32.3587ZM38.5208 18.0624C38.5208 17.3932 37.9712 16.8508 37.2931 16.8508H18.1414C16.5125 16.9148 16.5137 19.2105 18.1414 19.2739H37.2931C37.9711 19.2739 38.5208 18.7315 38.5208 18.0624Z" fill="white"/>
</g>
<defs>
<clipPath id="clip0_380_1438">
<rect width="32" height="32" fill="white" transform="translate(12 12)"/>
</clipPath>
</defs>
</svg>
