<svg width="20" height="20" viewBox="0 0 20 20" fill="none" xmlns="http://www.w3.org/2000/svg">
<g clip-path="url(#clip0_371_763)">
<path d="M18.7915 7.45736C19.4379 7.45736 19.9637 6.93151 19.9637 6.28515V4.76737C19.9637 4.28611 19.6755 3.85954 19.2291 3.67992L10.4395 0.085923C10.1532 -0.0293833 9.8435 -0.0273515 9.56455 0.0842819C9.55807 0.0868998 9.71167 0.0241083 0.770717 3.67996C0.324379 3.85954 0.0361328 4.28614 0.0361328 4.76741V6.28523C0.0361328 6.93159 0.561986 7.45744 1.20834 7.45744H1.91167V16.2881H1.20834C0.561986 16.2881 0.0361328 16.8139 0.0361328 17.4603V18.8279C0.0361328 19.4742 0.561986 20.0001 1.20834 20.0001H18.7915C19.4378 20.0001 19.9637 19.4742 19.9637 18.8279V17.4603C19.9637 16.8139 19.4378 16.2881 18.7915 16.2881H18.0882V7.45744H18.7915V7.45736ZM18.7915 17.4602C18.7923 18.8591 18.7954 18.8278 18.7915 18.8278H1.20838V17.4602H18.7915ZM3.08392 16.288V7.45736H4.41242V16.288H3.08392ZM5.58463 16.288V7.45736H8.16349V16.288H5.58463ZM9.3357 16.288V7.45736H10.6642V16.288H9.3357ZM11.8364 16.288V7.45736H14.4153V16.288H11.8364ZM15.5875 16.288V7.45736H16.916V16.288H15.5875ZM1.20838 6.28515C1.20838 4.65019 1.20662 4.76808 1.21248 4.7657L9.99995 1.1726L18.7874 4.7657C18.7935 4.76812 18.7915 4.65406 18.7915 6.28515C18.5967 6.28515 1.43989 6.28515 1.20838 6.28515Z" fill="#232440"/>
<path d="M10.0001 2.53409C9.67638 2.53409 9.41394 2.79651 9.41394 3.1202V4.37056C9.41394 4.69425 9.67638 4.95667 10.0001 4.95667C10.3238 4.95667 10.5862 4.69425 10.5862 4.37056V3.1202C10.5862 2.79651 10.3238 2.53409 10.0001 2.53409Z" fill="#232440"/>
</g>
<defs>
<clipPath id="clip0_371_763">
<rect width="20" height="20" fill="white"/>
</clipPath>
</defs>
</svg>
