<svg width="20" height="16" viewBox="0 0 20 16" fill="none" xmlns="http://www.w3.org/2000/svg">
<path fill-rule="evenodd" clip-rule="evenodd" d="M10.7206 3.81349C10.3355 3.81349 10.0229 3.50629 10.0229 3.12777V0.914242C10.0229 0.535721 10.3355 0.228516 10.7206 0.228516C11.1057 0.228516 11.4183 0.535721 11.4183 0.914242V3.12777C11.4183 3.50629 11.1057 3.81349 10.7206 3.81349Z" fill="#232440"/>
<path fill-rule="evenodd" clip-rule="evenodd" d="M10.7206 15.803C10.3355 15.803 10.0229 15.4958 10.0229 15.1173V13.2676C10.0229 12.8882 10.3355 12.5819 10.7206 12.5819C11.1057 12.5819 11.4183 12.8882 11.4183 13.2676V15.1173C11.4183 15.4958 11.1057 15.803 10.7206 15.803Z" fill="#232440"/>
<path fill-rule="evenodd" clip-rule="evenodd" d="M10.7206 10.8118C10.3355 10.8118 10.0229 10.5046 10.0229 10.126V5.7182C10.0229 5.33968 10.3355 5.03247 10.7206 5.03247C11.1057 5.03247 11.4183 5.33968 11.4183 5.7182V10.126C11.4183 10.5046 11.1057 10.8118 10.7206 10.8118Z" fill="#232440"/>
<mask id="mask0_369_828" style="mask-type:luminance" maskUnits="userSpaceOnUse" x="0" y="0" width="20" height="16">
<path fill-rule="evenodd" clip-rule="evenodd" d="M0 0H20V16H0V0Z" fill="white"/>
</mask>
<g mask="url(#mask0_369_828)">
<path fill-rule="evenodd" clip-rule="evenodd" d="M1.39532 10.5636V12.3364C1.39532 13.6 2.45858 14.6285 3.76556 14.6285H16.2344C17.5414 14.6285 18.6046 13.6 18.6046 12.3364V10.5636C17.4409 10.2628 16.5795 9.22776 16.5795 8.00077C16.5795 6.77286 17.44 5.73879 18.6046 5.43798L18.6037 3.66333C18.6037 2.39976 17.5404 1.37117 16.2335 1.37117H3.76649C2.45951 1.37117 1.39625 2.39976 1.39625 3.66333L1.39532 5.50839C2.57393 5.79273 3.42044 6.78567 3.42044 8.00077C3.42044 9.22776 2.55905 10.2628 1.39532 10.5636ZM16.2344 16H3.76558C1.6893 16 0 14.3561 0 12.3364V9.96649C0 9.58797 0.312558 9.28077 0.697674 9.28077C1.42977 9.28077 2.02512 8.70659 2.02512 8.00075C2.02512 7.31502 1.45395 6.79753 0.697674 6.79753C0.512558 6.79753 0.334884 6.7253 0.204651 6.59638C0.0734884 6.46838 0 6.29283 0 6.1118L0.000930233 3.6633C0.000930233 1.64361 1.69023 -0.000305176 3.76651 -0.000305176H16.2335C18.3098 -0.000305176 19.9991 1.64361 19.9991 3.6633L20 6.035C20 6.21603 19.9265 6.39158 19.7953 6.51958C19.6651 6.64849 19.4874 6.72072 19.3023 6.72072C18.5702 6.72072 17.9749 7.29491 17.9749 8.00075C17.9749 8.70659 18.5702 9.28077 19.3023 9.28077C19.6874 9.28077 20 9.58797 20 9.96649V12.3364C20 14.3561 18.3107 16 16.2344 16Z" fill="#232440"/>
</g>
</svg>
