<svg width="18" height="20" viewBox="0 0 18 20" fill="none" xmlns="http://www.w3.org/2000/svg">
<path fill-rule="evenodd" clip-rule="evenodd" d="M9.01735 19.9998C7.69598 19.9998 6.40775 19.9848 5.13318 19.9578C3.50267 19.9248 2.37438 18.8408 2.19007 17.1287C1.88289 14.2887 1.35726 7.59467 1.35239 7.52767C1.31923 7.11466 1.61959 6.75266 2.02234 6.71966C2.41924 6.70866 2.77811 6.99466 2.81029 7.40667C2.81517 7.47467 3.33982 14.1457 3.64407 16.9637C3.74842 17.9368 4.26039 18.4388 5.16342 18.4578C7.60138 18.5108 10.0891 18.5138 12.7708 18.4638C13.7304 18.4448 14.2492 17.9528 14.3565 16.9567C14.6588 14.1627 15.1854 7.47467 15.1913 7.40667C15.2234 6.99466 15.5794 6.70666 15.9782 6.71966C16.381 6.75366 16.6813 7.11466 16.6492 7.52767C16.6433 7.59567 16.1148 14.3067 15.8105 17.1217C15.6213 18.8688 14.496 19.9318 12.7972 19.9638C11.4973 19.9868 10.2432 19.9998 9.01735 19.9998Z" fill="#665AF0"/>
<path fill-rule="evenodd" clip-rule="evenodd" d="M17.2686 4.98903H0.73139C0.327663 4.98903 0 4.65302 0 4.23902C0 3.82502 0.327663 3.48901 0.73139 3.48901H17.2686C17.6723 3.48901 18 3.82502 18 4.23902C18 4.65302 17.6723 4.98903 17.2686 4.98903Z" fill="#665AF0"/>
<path fill-rule="evenodd" clip-rule="evenodd" d="M14.0823 4.98904C12.9726 4.98904 12.0091 4.17804 11.7906 3.06203L11.5537 1.84602C11.5039 1.66101 11.2982 1.50001 11.0641 1.50001H6.93615C6.7021 1.50001 6.49634 1.66101 6.43685 1.89202L6.20963 3.06203C5.99217 4.17804 5.02771 4.98904 3.91794 4.98904C3.51422 4.98904 3.18655 4.65304 3.18655 4.23904C3.18655 3.82503 3.51422 3.48903 3.91794 3.48903C4.33337 3.48903 4.69419 3.18503 4.77611 2.76702L5.01308 1.55101C5.25395 0.619005 6.04093 0 6.93615 0H11.0641C11.9593 0 12.7463 0.619005 12.9774 1.50601L13.2251 2.76702C13.3061 3.18503 13.6669 3.48903 14.0823 3.48903C14.486 3.48903 14.8137 3.82503 14.8137 4.23904C14.8137 4.65304 14.486 4.98904 14.0823 4.98904Z" fill="#665AF0"/>
</svg>
