<svg width="20" height="20" viewBox="0 0 20 20" fill="none" xmlns="http://www.w3.org/2000/svg">
<mask id="mask0_1062_848" style="mask-type:luminance" maskUnits="userSpaceOnUse" x="0" y="0" width="21" height="21">
<path fill-rule="evenodd" clip-rule="evenodd" d="M0 0H20.0027V20.001H0V0Z" fill="white"/>
</mask>
<g mask="url(#mask0_1062_848)">
<path fill-rule="evenodd" clip-rule="evenodd" d="M8.94472 18.0753C9.53472 18.6513 10.4847 18.6443 11.0707 18.0553L11.7927 17.3353C12.3527 16.7763 13.1267 16.4573 13.9157 16.4573H14.9457C15.7797 16.4573 16.4577 15.7793 16.4577 14.9463V13.9173C16.4577 13.1163 16.7677 12.3633 17.3337 11.7963L18.0537 11.0753C18.3467 10.7813 18.5037 10.4003 18.5027 9.99629C18.5017 9.5933 18.3427 9.2143 18.0557 8.9283L17.3347 8.2063C16.7677 7.63529 16.4577 6.8833 16.4577 6.08229V5.05529C16.4577 4.22129 15.7797 3.5433 14.9457 3.5433H13.9177C13.1167 3.5433 12.3637 3.2323 11.7967 2.6693L11.0747 1.9463C10.4737 1.35129 9.51472 1.3543 8.92772 1.94529L8.20872 2.6663C7.63472 3.23329 6.88172 3.5433 6.08372 3.5433H5.05472C4.22172 3.5443 3.54372 4.22229 3.54372 5.05529V6.0803C3.54372 6.8813 3.23272 7.63429 2.66872 8.2023L1.95872 8.91329C1.95172 8.9213 1.94472 8.92729 1.93772 8.93429C1.35072 9.5253 1.35372 10.4843 1.94472 11.0713L2.66672 11.7933C3.23272 12.3613 3.54372 13.1143 3.54372 13.9153V14.9463C3.54372 15.7793 4.22072 16.4573 5.05472 16.4573H6.08172C6.88372 16.4583 7.63672 16.7693 8.20372 17.3343L8.92472 18.0533C8.93072 18.0603 8.93772 18.0673 8.94472 18.0753ZM9.99872 20.0013C9.23172 20.0013 8.46472 19.7113 7.87772 19.1293C7.86972 19.1213 7.86172 19.1133 7.85372 19.1043L7.14372 18.3953C6.86072 18.1143 6.48272 17.9583 6.08072 17.9573H5.05472C3.39372 17.9573 2.04372 16.6063 2.04372 14.9463V13.9153C2.04372 13.5133 1.88672 13.1363 1.60472 12.8523L0.885722 12.1343C-0.282278 10.9723 -0.296278 9.08029 0.850722 7.90029C0.859722 7.89129 0.868722 7.88229 0.877722 7.87329L1.60572 7.14329C1.88672 6.86029 2.04372 6.4813 2.04372 6.0803V5.05529C2.04372 3.3953 3.39372 2.04429 5.05372 2.04329H6.08372C6.48472 2.04329 6.86272 1.88629 7.14972 1.60329L7.86472 0.886295C9.03372 -0.290705 10.9447 -0.296705 12.1237 0.875295L12.8547 1.60629C13.1377 1.8873 13.5157 2.04329 13.9177 2.04329H14.9457C16.6067 2.04329 17.9577 3.39429 17.9577 5.05529V6.08229C17.9577 6.48329 18.1137 6.8623 18.3967 7.14729L19.1147 7.86629C19.6837 8.43129 19.9997 9.18629 20.0027 9.99129C20.0057 10.7963 19.6947 11.5533 19.1277 12.1243L18.3947 12.8553C18.1137 13.1383 17.9577 13.5153 17.9577 13.9173V14.9463C17.9577 16.6063 16.6067 17.9573 14.9467 17.9573H13.9157C13.5197 17.9573 13.1327 18.1173 12.8517 18.3963L12.1337 19.1143C11.5467 19.7053 10.7727 20.0013 9.99872 20.0013Z" fill="#232440"/>
</g>
<path fill-rule="evenodd" clip-rule="evenodd" d="M7.43012 13.3213C7.23812 13.3213 7.04612 13.2483 6.90012 13.1013C6.60712 12.8083 6.60712 12.3343 6.90012 12.0413L12.0401 6.90031C12.3331 6.60731 12.8081 6.60731 13.1011 6.90031C13.3941 7.19331 13.3941 7.66831 13.1011 7.96131L7.96012 13.1013C7.81412 13.2483 7.62212 13.3213 7.43012 13.3213Z" fill="#232440"/>
<path fill-rule="evenodd" clip-rule="evenodd" d="M12.5033 13.499C11.9503 13.499 11.4983 13.052 11.4983 12.499C11.4983 11.946 11.9413 11.499 12.4943 11.499H12.5033C13.0563 11.499 13.5033 11.946 13.5033 12.499C13.5033 13.052 13.0563 13.499 12.5033 13.499Z" fill="#232440"/>
<path fill-rule="evenodd" clip-rule="evenodd" d="M7.50332 8.49899C6.95032 8.49899 6.49832 8.05199 6.49832 7.49899C6.49832 6.94599 6.94132 6.49899 7.49432 6.49899H7.50332C8.05632 6.49899 8.50332 6.94599 8.50332 7.49899C8.50332 8.05199 8.05632 8.49899 7.50332 8.49899Z" fill="#232440"/>
</svg>
