<svg width="24" height="24" viewBox="0 0 24 24" fill="none" xmlns="http://www.w3.org/2000/svg">
<g id="Iconly/Light-Outline/Download">
<g id="Download">
<path id="Fill 1" fill-rule="evenodd" clip-rule="evenodd" d="M12.0011 16.4247C11.5871 16.4247 11.2511 16.0791 11.2511 15.6534V3.27125C11.2511 2.84552 11.5871 2.5 12.0011 2.5C12.4151 2.5 12.7511 2.84552 12.7511 3.27125V15.6534C12.7511 16.0791 12.4151 16.4247 12.0011 16.4247Z" fill="white"/>
<path id="Fill 3" fill-rule="evenodd" clip-rule="evenodd" d="M12.0011 16.4247C11.8021 16.4247 11.6101 16.3434 11.4701 16.1974L8.55407 13.1875C8.26207 12.8851 8.26307 12.3967 8.55607 12.0964C8.85007 11.7961 9.32407 11.7961 9.61607 12.0985L12.0011 14.5613L14.3861 12.0985C14.6781 11.7961 15.1521 11.7961 15.4461 12.0964C15.7391 12.3967 15.7401 12.8851 15.4481 13.1875L12.5321 16.1974C12.3921 16.3434 12.2001 16.4247 12.0011 16.4247Z" fill="white"/>
<g id="Group 7">
<mask id="mask0_369_842" style="mask-type:luminance" maskUnits="userSpaceOnUse" x="2" y="7" width="20" height="15">
<path id="Clip 6" fill-rule="evenodd" clip-rule="evenodd" d="M2.00024 7.36658H22V21.5H2.00024V7.36658Z" fill="white"/>
</mask>
<g mask="url(#mask0_369_842)">
<path id="Fill 5" fill-rule="evenodd" clip-rule="evenodd" d="M17.5752 21.5H6.43524C3.99024 21.5 2.00024 19.4546 2.00024 16.9393V11.9159C2.00024 9.40679 3.98524 7.36658 6.42624 7.36658H7.36724C7.78124 7.36658 8.11724 7.7121 8.11724 8.13783C8.11724 8.56356 7.78124 8.90908 7.36724 8.90908H6.42624C4.81224 8.90908 3.50024 10.2572 3.50024 11.9159V16.9393C3.50024 18.6042 4.81624 19.9575 6.43524 19.9575H17.5752C19.1872 19.9575 20.5002 18.6073 20.5002 16.9496V11.9272C20.5002 10.2624 19.1832 8.90908 17.5662 8.90908H16.6342C16.2202 8.90908 15.8842 8.56356 15.8842 8.13783C15.8842 7.7121 16.2202 7.36658 16.6342 7.36658H17.5662C20.0112 7.36658 22.0002 9.41296 22.0002 11.9272V16.9496C22.0002 19.4587 20.0142 21.5 17.5752 21.5Z" fill="white"/>
</g>
</g>
</g>
</g>
</svg>
