<svg width="80" height="80" viewBox="0 0 80 80" fill="none" xmlns="http://www.w3.org/2000/svg">
<rect opacity="0.1" width="80" height="80" rx="10" fill="#EB5A5A"/>
<path fill-rule="evenodd" clip-rule="evenodd" d="M51.8313 15.1579C41.6541 13.4883 42.6917 30.2012 29.1501 27.9137C15.2993 25.574 11.1595 42.0794 15.2993 51.1963C19.7704 61.0432 48.4003 66.3367 58.6427 59.0779C70.1706 50.9081 70.9267 18.2906 51.8313 15.1579Z" fill="#FF866B"/>
<path fill-rule="evenodd" clip-rule="evenodd" d="M29.2288 33.1004C29.2288 33.1004 30.3974 35.6484 31.4123 36.8296C32.8526 38.5058 34.9093 39.8982 35.6816 41.2055C37.5168 44.3118 36.7028 45.8313 36.7028 45.8313C36.7028 45.8313 35.7333 42.4827 34.3437 40.8472C33.2831 39.5989 31.1999 38.2145 30.5036 37.1893C29.2493 35.3427 28.6013 33.5736 28.6013 33.5736L29.2288 33.1004Z" fill="white"/>
<path d="M43.6561 60.2204C38.8647 60.4442 34.0766 60.7411 29.2942 61.1108C28.6809 61.1714 28.2272 61.1805 28.2514 61.2455C27.8202 61.2182 27.0408 60.9836 26.5877 61.1714C26.9291 61.2505 27.5742 61.5522 27.6125 61.9005C23.0994 62.1608 18.5613 61.9851 14.0818 61.3768C18.4677 61.6758 22.8671 61.7784 27.2622 61.6842C26.6958 61.3041 25.9674 61.1747 25.3048 61.3366C26.1589 60.9236 27.1488 60.7977 28.0791 60.9836C27.3693 60.1895 26.8988 59.1841 26.744 58.1303C27.4531 58.6152 28.0202 59.3052 28.3587 60.0948C28.3263 58.6106 29.3766 57.1685 30.7991 56.7439C29.8907 57.9009 29.4105 59.3866 29.4699 60.8564C34.0116 60.4684 38.5632 60.197 43.1188 60.0427C42.8939 59.8643 42.741 59.5978 42.7006 59.3136C42.9233 59.1235 43.2523 59.0676 43.5253 59.1734C43.7257 57.5866 44.8296 56.1457 46.3095 55.5391C45.4852 56.47 44.9126 57.6217 44.6678 58.8408C44.9221 58.6867 45.244 58.6494 45.5267 58.7412C45.4461 59.085 45.2445 59.3991 44.9654 59.6154C50.6061 58.3262 56.5274 60.5226 62.2572 59.717C59.3647 60.6524 56.2394 59.9272 53.2158 59.6126C48.7897 59.1734 44.5388 60.0427 43.6561 60.2204Z" fill="white"/>
<path d="M55.5916 25.9103C55.6412 25.4383 56.0476 25.0844 56.4645 24.8573C57.2184 24.4465 58.1061 24.2862 58.9561 24.4073C59.341 24.4622 59.6344 24.0955 59.9094 23.8207C60.6231 23.1074 61.7139 22.847 62.7094 23.0118C63.7049 23.1766 64.6069 23.7265 65.3334 24.4267C66.0599 25.1269 66.627 25.9742 67.1518 26.8359C67.2619 27.0167 67.5173 27.0215 67.7287 27.0111C68.1848 26.9888 68.6649 27.0014 69.0634 27.2245C69.4619 27.4476 69.742 27.9429 69.5807 28.3702C69.5052 28.5703 69.3448 28.7299 69.1616 28.8403C68.7962 29.0606 68.3532 29.0985 67.9278 29.131C65.0907 29.3476 62.2537 29.5642 59.4167 29.7809C58.6404 29.8401 57.852 29.8987 57.0897 29.7408C56.3273 29.5829 55.581 29.1766 55.1907 28.503C54.8005 27.8293 54.8658 26.8698 55.4644 26.3721C55.5909 26.267 55.5744 26.0739 55.5916 25.9103" fill="white"/>
<path d="M46.0955 30.2571C46.7147 30.9684 49.9109 30.7193 50.0145 32.0207C49.6484 32.1211 49.2822 32.2215 48.916 32.322C48.3207 32.4852 47.7186 32.6513 47.18 32.953C46.9273 33.0946 46.6268 33.2696 46.3698 33.136C45.3758 32.6195 44.22 32.459 43.1049 32.5656C41.9899 32.6722 40.9113 33.0355 39.8994 33.5159C39.3711 33.7667 38.7758 34.0564 38.229 33.849C36.2327 33.0921 33.9552 33.1054 31.9678 33.8854C31.6155 34.0237 31.2227 33.8703 30.8759 33.7185C30.5008 33.5544 30.1258 33.3903 29.7507 33.2262C30.2345 32.6729 32.3023 31.9033 32.7239 31.3678C32.798 31.2737 35.5592 29.3589 38.5871 30.2241C38.7228 30.1604 43.4319 29.3589 46.0955 30.2571Z" fill="white"/>
<path fill-rule="evenodd" clip-rule="evenodd" d="M33.719 39.2997C31.9633 37.6309 29.9363 35.9417 29.4635 33.5661C30.3313 35.7947 32.2583 37.3991 33.9483 39.0914C35.6383 40.7837 37.2391 42.8945 37.1347 45.2839C39.898 44.6806 42.7615 44.5392 45.5708 44.8673C45.8588 43.5704 46.697 42.4786 47.3548 41.3243C48.9853 38.463 49.5366 35.1319 50.0605 31.8805C50.193 31.0585 49.1865 30.5713 48.3796 30.3657C47.5738 30.1603 46.7679 29.955 45.9621 29.7497C44.4476 29.3638 42.8785 28.9751 41.3381 29.239C40.2964 29.4174 39.2678 29.8921 38.226 29.7144C36.5677 29.4315 34.8083 29.7897 33.3927 30.6985C32.681 31.1554 32.0486 31.7476 31.2717 32.0818C29.6367 32.7853 28.1966 33.9356 27.1492 35.3747C26.602 32.5441 27.524 29.6472 28.6019 26.9733C29.8068 23.9841 31.3194 20.9598 33.9119 19.0451C37.7129 16.238 42.6686 16.7844 46.6226 19.3716C50.5766 21.9588 52.9926 26.2251 53.7733 30.8854C53.8642 31.4274 53.9285 32.0141 53.6733 32.5008C53.4182 32.9876 53.3219 33.2692 52.9058 32.9102C52.5511 32.604 52.1737 32.2866 51.7135 32.1984C51.2534 32.1103 50.6951 32.3494 50.6059 32.8094C49.9525 36.1778 49.2663 39.6318 47.451 42.5435C46.9783 43.3018 46.4278 44.0257 46.1272 44.8672C45.8972 45.5111 45.823 46.1984 45.7505 46.8783C45.5995 48.295 45.4484 49.7116 45.2974 51.1282C45.2337 51.7254 45.145 52.3756 44.71 52.7896C44.2946 53.185 43.6764 53.256 43.1052 53.3068C41.2503 53.4715 39.3953 53.6363 37.5403 53.801C37.2086 53.8305 36.8324 53.8456 36.5901 53.617C36.4035 53.441 36.3517 53.1683 36.315 52.9144C36.0545 51.1121 36.0545 49.2723 36.3152 47.4701C36.6893 44.8842 35.5321 42.2387 33.7094 40.3667C32.7595 39.3912 31.6394 38.5937 30.6911 37.6167C29.7428 36.6396 28.9491 35.4117 28.8922 34.0513C29.5375 35.8392 30.7266 37.4268 32.2609 38.5489C34.5538 40.2258 36.1875 42.7805 36.7477 45.5653C37.1881 43.1835 35.4747 40.9684 33.719 39.2997Z" fill="white"/>
<path fill-rule="evenodd" clip-rule="evenodd" d="M28.9743 44.7422C28.6961 44.5897 28.5936 44.2475 28.5205 43.9388C28.1616 42.4239 27.8992 40.8862 27.7354 39.338C27.725 39.2396 27.7203 39.1259 27.7919 39.0576C27.9453 39.2385 27.9724 39.4913 27.9959 39.7273C28.1652 41.4245 28.4933 43.1058 28.9743 44.7422Z" fill="#232440"/>
<path fill-rule="evenodd" clip-rule="evenodd" d="M51.0386 39.5819C51.2908 38.7387 51.4767 37.8757 51.594 37.0034C51.6099 36.8853 51.6544 36.7367 51.7732 36.7276C51.8425 36.7882 51.8359 36.8961 51.8228 36.9873C51.711 37.7651 51.5515 38.536 51.3454 39.2942C51.3036 39.4481 51.1866 39.6413 51.0386 39.5819H51.0386Z" fill="#232440"/>
<path fill-rule="evenodd" clip-rule="evenodd" d="M44.6124 59.8527C44.75 59.4792 45.002 59.1487 45.3257 58.917C44.9817 58.9381 44.6471 59.0879 44.4023 59.3305C44.5372 58.2729 44.8754 57.2416 45.3931 56.3096C44.4354 57.0957 43.8173 58.2822 43.7219 59.5175C43.4937 59.3845 43.2092 59.3524 42.9571 59.4312C43.1901 59.6943 43.4231 59.9573 43.6561 60.2204C38.8647 60.4442 34.0766 60.7411 29.2942 61.1108C29.0456 59.7892 29.3689 58.3699 30.1654 57.2864C29.1143 58.0277 28.4655 59.3073 28.4885 60.5933C28.0199 59.9681 27.7864 59.0751 27.0826 58.7179C27.2071 59.3305 27.3509 59.4683 28.1776 61.0508C28.2114 61.1155 28.2272 61.1805 28.2514 61.2455C27.8202 61.2182 27.0408 60.9836 26.5877 61.1714C26.9291 61.2505 27.5742 61.5522 27.6125 61.9005C23.0994 62.1608 18.5613 61.9851 14.0818 61.3768C18.4677 61.6758 22.8671 61.7784 27.2622 61.6842C26.6958 61.3041 25.9674 61.1747 25.3048 61.3366C26.1589 60.9236 27.1488 60.7977 28.0791 60.9836C27.3693 60.1895 26.8988 59.1841 26.744 58.1303C27.4531 58.6152 28.0202 59.3052 28.3587 60.0948C28.3263 58.6106 29.3766 57.1685 30.7991 56.7439C29.8907 57.9009 29.4105 59.3866 29.4699 60.8564C34.0116 60.4684 38.5632 60.197 43.1188 60.0427C42.8939 59.8643 42.741 59.5978 42.7006 59.3136C42.9233 59.1235 43.2523 59.0676 43.5253 59.1734C43.7257 57.5866 44.8296 56.1457 46.3095 55.5391C45.4852 56.47 44.9126 57.6217 44.6678 58.8408C44.9221 58.6867 45.244 58.6494 45.5267 58.7412C45.4461 59.085 45.2445 59.3991 44.9654 59.6154C50.6061 58.3262 56.5274 60.5226 62.2572 59.717C59.3647 60.6524 56.2394 59.9272 53.2158 59.6126C50.3541 59.3148 47.4531 59.3958 44.6124 59.8527Z" fill="#232440"/>
<path fill-rule="evenodd" clip-rule="evenodd" d="M47.1525 39.2281C47.2216 39.3299 47.1999 39.4658 47.172 39.5856C47.0046 40.3048 46.7093 40.9941 46.3043 41.6116C46.1916 41.4711 46.2952 41.2677 46.39 41.1146C46.6424 40.7072 46.8279 40.2585 46.9367 39.7919C46.9829 39.5938 47.0201 39.3825 47.1525 39.2281H47.1525Z" fill="#232440"/>
<path fill-rule="evenodd" clip-rule="evenodd" d="M46.0725 40.534C45.9683 40.4441 46.015 40.2768 46.0649 40.1485C46.2253 39.7365 46.3331 39.3041 46.3849 38.8651C46.402 38.7195 46.4293 38.5482 46.5606 38.483C46.6225 38.5388 46.6131 38.6366 46.5988 38.7187C46.49 39.3424 46.3768 39.9789 46.0725 40.534Z" fill="#232440"/>
<path fill-rule="evenodd" clip-rule="evenodd" d="M37.4003 42.8584C37.4309 42.8311 37.4784 42.8591 37.5067 42.8888C37.6336 43.0217 37.7093 43.2024 37.7149 43.3861C37.5451 43.295 37.4207 43.1238 37.3866 42.9342C37.3818 42.9077 37.3803 42.8763 37.4003 42.8584L37.4003 42.8584Z" fill="#232440"/>
<path fill-rule="evenodd" clip-rule="evenodd" d="M50.7619 37.289C50.7166 38.0898 50.5338 38.8827 50.2237 39.6224C50.2157 39.6415 50.2071 39.6613 50.1914 39.6749C50.1453 39.7146 50.0677 39.6718 50.0512 39.6133C50.0347 39.5548 50.0582 39.4933 50.0805 39.4368C50.2993 38.8832 50.4444 38.3006 50.5108 37.709C50.5306 37.5332 50.5861 37.3096 50.7619 37.289L50.7619 37.289Z" fill="#232440"/>
<path fill-rule="evenodd" clip-rule="evenodd" d="M37.1045 41.4774C36.8066 41.0746 36.5669 40.6287 36.3954 40.158C36.3734 40.0974 36.3868 39.9953 36.449 40.0121C36.4724 40.0184 36.4863 40.0418 36.4978 40.0632C36.7565 40.5456 37.0152 41.028 37.2739 41.5104C37.2608 41.5829 37.1483 41.5367 37.1045 41.4774H37.1045Z" fill="#232440"/>
<path fill-rule="evenodd" clip-rule="evenodd" d="M28.621 33.1061C28.4841 33.0351 28.4786 32.8443 28.4951 32.691C28.8013 29.8335 30.1925 27.1056 32.3256 25.1797C32.3746 25.5423 32.0948 25.8563 31.8467 26.1251C30.0792 28.0397 28.9335 30.5193 28.621 33.1061Z" fill="#232440"/>
<path fill-rule="evenodd" clip-rule="evenodd" d="M46.5531 33.1034C46.5921 32.1651 46.4352 31.1325 46.0955 30.2571C46.7147 30.9684 46.7404 32.0034 46.7338 32.9464C47.7216 32.3589 48.8653 32.0362 50.0145 32.0206C49.6484 32.1211 49.2822 32.2215 48.916 32.322C48.3207 32.4852 47.7186 32.6513 47.18 32.953C46.9273 33.0946 46.6268 33.2696 46.3698 33.136C45.3758 32.6195 44.22 32.459 43.1049 32.5656C41.9899 32.6722 40.9113 33.1222 39.8994 33.6026C39.3711 33.8534 38.7758 34.143 38.229 33.9357C36.2327 33.1788 33.9552 33.1053 31.9678 33.8854C31.6155 34.0237 31.2227 33.8702 30.8759 33.7185C30.5008 33.5544 30.1258 33.3903 29.7507 33.2262C30.1867 33.3177 31.2694 33.7071 31.2694 33.7071C31.2694 33.7071 31.5813 33.7448 31.6795 33.6251C31.7776 33.5053 31.8086 33.3461 31.844 33.1953C31.9997 32.5318 32.3023 31.9033 32.7239 31.3678C32.798 31.2737 32.9566 31.1859 33.0156 31.2901C32.4322 31.9663 32.0432 32.8084 31.9064 33.6911C34.033 32.889 36.4595 32.9143 38.5689 33.7606C38.7704 32.5936 38.7766 31.3931 38.5871 30.2241C38.7228 30.1604 38.8224 30.3626 38.8357 30.5118C38.9329 31.5991 38.9155 32.6965 38.7837 33.7801C40.0036 33.1908 41.2687 32.6583 42.6064 32.4434C43.944 32.2285 45.3718 32.4401 46.5531 33.1034Z" fill="#232440"/>
<path fill-rule="evenodd" clip-rule="evenodd" d="M31.0481 30.7738C31.6858 28.9487 32.6799 27.2489 33.9579 25.7983C34.0516 25.692 34.163 25.579 34.3046 25.5742C34.4463 25.5694 34.5793 25.7545 34.4794 25.855C33.009 27.3333 31.8622 29.1316 31.1421 31.0882C31.0125 31.0916 31.0053 30.8962 31.0481 30.7738H31.0481Z" fill="#232440"/>
<path fill-rule="evenodd" clip-rule="evenodd" d="M29.0334 38.9921C29.052 39.0148 29.0541 39.0464 29.0556 39.0757C29.1168 40.2912 29.4257 41.4789 29.733 42.6565C29.7461 42.7068 29.6727 42.7431 29.6267 42.7191C29.5806 42.6951 29.5604 42.641 29.5444 42.5916C29.186 41.4884 28.9572 40.343 28.8643 39.1868C28.8597 39.1291 28.8564 39.0669 28.8871 39.0179C28.9178 38.9689 28.9967 38.9473 29.0334 38.9921H29.0334Z" fill="#232440"/>
<path fill-rule="evenodd" clip-rule="evenodd" d="M38.6352 29.1219C38.5073 29.1273 38.4655 28.9533 38.4673 28.8252C38.4867 27.4866 38.5061 26.1479 38.5255 24.8092C38.5277 24.6614 38.5677 24.4688 38.7146 24.4526C38.8452 24.6056 38.8424 24.828 38.8327 25.029C38.7669 26.3933 38.701 27.7576 38.6352 29.1219Z" fill="#232440"/>
<path fill-rule="evenodd" clip-rule="evenodd" d="M50.9614 31.1707C51.2451 30.7102 51.2259 30.1306 51.1781 29.5919C51.0944 28.6482 50.9508 27.7098 50.7484 26.7842C50.729 26.6955 50.7174 26.5837 50.7921 26.532C50.8538 26.4894 50.9441 26.5189 50.9924 26.5763C51.0408 26.6336 51.0577 26.7104 51.0726 26.784C51.3047 27.9346 51.4105 29.1107 51.3872 30.2843C51.3786 30.7207 51.3071 31.2327 50.924 31.4419C50.8504 31.3748 50.9092 31.2556 50.9614 31.1707H50.9614Z" fill="#232440"/>
<path fill-rule="evenodd" clip-rule="evenodd" d="M46.4684 28.0692C46.5647 28.4971 46.5239 28.9548 46.3533 29.3589C46.2361 29.2331 46.2691 29.0357 46.2894 28.865C46.3681 28.2018 46.1359 27.5414 45.8504 26.9378C45.5648 26.3341 45.2198 25.7512 45.0482 25.1058C45.0223 25.0088 45.0263 24.8681 45.1253 24.851C45.2089 24.8365 45.2659 24.9311 45.2971 25.01C45.618 25.8229 45.9389 26.6358 46.2597 27.4488C46.3399 27.6519 46.4204 27.8561 46.4684 28.0692Z" fill="#232440"/>
<path fill-rule="evenodd" clip-rule="evenodd" d="M55.1582 25.6503C55.2078 25.1782 55.6143 24.8244 56.0311 24.5973C56.785 24.1865 57.6728 24.0262 58.5227 24.1473C58.9076 24.2022 59.2011 23.8355 59.4761 23.5607C60.1898 22.8474 61.2806 22.587 62.276 22.7518C63.2715 22.9166 64.1735 23.4665 64.9001 24.1667C65.6266 24.8669 66.1937 25.7142 66.7185 26.5759C66.8286 26.7567 67.0839 26.7615 67.2953 26.7511C67.7515 26.7288 68.2315 26.7414 68.63 26.9645C69.0286 27.1876 69.3086 27.6829 69.1474 28.1102C69.0719 28.3103 68.9115 28.4699 68.7283 28.5803C68.3629 28.8006 67.9198 28.8385 67.4944 28.871C64.6574 29.0876 61.8204 29.3042 58.9833 29.5209C58.2071 29.5801 57.4186 29.6387 56.6563 29.4808C55.894 29.3229 55.1477 28.9166 54.7574 28.243C54.3671 27.5693 54.4324 26.6098 55.0311 26.1121C55.1576 26.007 55.141 25.8139 55.1582 25.6503M56.233 24.7437C55.8934 24.9055 55.5544 25.1438 55.4425 25.503C55.4027 25.631 55.3944 25.7669 55.3574 25.8957C55.2615 26.2298 54.9851 26.4806 54.8393 26.7961C54.5353 27.4538 54.8817 28.2717 55.4613 28.7065C56.0409 29.1413 56.7915 29.2706 57.5143 29.3215C60.1157 29.5047 62.7023 28.8446 65.3093 28.779C66.3333 28.7532 67.3899 28.8142 68.3478 28.4514C68.7104 28.3141 69.1089 27.9667 68.9532 27.6116C68.9139 27.5219 68.8431 27.45 68.7688 27.3861C68.3102 26.9917 67.6534 26.8408 67.0687 26.9955C66.7705 27.0744 66.5214 26.7719 66.3581 26.5102C65.6477 25.3716 64.8432 24.2366 63.6955 23.541C62.5477 22.8453 60.9739 22.6932 59.9062 23.5064C59.4264 23.8719 58.9802 24.4397 58.3804 24.3761C57.649 24.2985 56.8969 24.4273 56.233 24.7437Z" fill="#232440"/>
<path fill-rule="evenodd" clip-rule="evenodd" d="M16.5032 21.4074C16.4075 21.7062 16.5282 22.0278 16.659 22.313C16.811 22.6445 17.0609 23.0184 17.4248 22.9954C18.5487 22.9244 19.6726 22.8534 20.7964 22.7825C20.9592 22.7722 21.1832 22.8146 21.1842 22.9778C19.7749 23.0906 18.3656 23.2034 16.9563 23.3162C16.0083 23.3921 15.0171 23.482 14.2166 23.9955C13.4162 24.509 12.8944 25.5918 13.3262 26.4392C13.4898 26.7602 13.8109 27.0286 14.171 27.0179C15.1417 26.989 16.1124 26.9601 17.0832 26.9312C17.3093 26.9244 17.6188 26.9958 17.6087 27.2219C16.0661 27.1297 14.5143 27.1907 12.9837 27.4037C12.4341 27.4802 11.8689 27.5833 11.408 27.8923C10.9472 28.2012 10.6161 28.7685 10.7451 29.3081C10.8342 29.6806 11.1259 29.9797 11.4633 30.1609C11.8007 30.3421 12.1826 30.4206 12.5602 30.484C16.5651 31.1564 20.6737 30.3699 24.7241 30.6637C25.1772 30.6965 25.6679 30.7602 25.9906 31.0799C22.4963 30.4092 18.8926 31.1577 15.3384 30.9896C14.5473 30.9521 13.7591 30.8692 12.9715 30.7863C12.3268 30.7185 11.6513 30.6396 11.1195 30.269C10.8636 30.0907 10.6491 29.8443 10.5421 29.5513C10.2769 28.8256 10.7449 27.9964 11.4043 27.5937C12.0637 27.1909 12.8639 27.1112 13.6334 27.0412C13.0045 26.6108 12.8175 25.7044 13.0896 24.9925C13.3617 24.2807 14.0089 23.7617 14.7182 23.4831C15.4276 23.2045 16.2004 23.1373 16.9616 23.1014C16.7371 22.8074 16.5093 22.5073 16.3838 22.1593C16.2583 21.8113 16.2491 21.4014 16.4493 21.0903C16.5885 20.874 16.8118 20.7276 17.0347 20.599C19.1662 19.3691 21.7429 19.2263 24.2031 19.2873C24.8716 19.3038 25.5619 19.3385 26.1631 19.6313C27.0958 20.0855 27.6627 21.1357 27.6684 22.173C27.674 23.2104 27.172 24.2114 26.4343 24.9407C26.3158 24.7765 26.4639 24.5583 26.5937 24.4029C27.1947 23.6835 27.5362 22.7242 27.4084 21.7955C27.2805 20.8668 26.6433 19.9982 25.7551 19.6985C25.3839 19.5732 24.9876 19.5468 24.5964 19.5268C22.0524 19.3972 19.3863 19.5303 17.1583 20.765C16.884 20.917 16.5989 21.1088 16.5032 21.4074Z" fill="#232440"/>
<path fill-rule="evenodd" clip-rule="evenodd" d="M33.719 39.2997C31.9633 37.6309 29.9363 35.9417 29.4635 33.5661C30.3313 35.7947 32.2583 37.3991 33.9483 39.0914C35.6383 40.7837 37.2391 42.8945 37.1347 45.2839C39.898 44.6806 42.7615 44.5392 45.5708 44.8673C45.8588 43.5704 46.697 42.4786 47.3548 41.3243C48.9853 38.463 49.5366 35.1319 50.0605 31.8805C50.193 31.0585 49.1865 30.5713 48.3797 30.3657C47.5738 30.1603 46.768 29.955 45.9621 29.7497C44.4476 29.3638 42.8785 28.9751 41.3381 29.239C40.2964 29.4174 39.2678 29.8921 38.226 29.7144C36.5677 29.4315 34.8084 29.7897 33.3927 30.6985C32.681 31.1554 32.0551 31.7762 31.2717 32.0818C29.5755 32.7436 28.6014 33.5451 27.1492 35.3747C26.602 32.5441 27.524 29.6472 28.6019 26.9733C29.8068 23.9841 31.3194 20.9597 33.9119 19.0451C37.7129 16.238 43.2753 16.5244 47.2293 19.1116C51.1832 21.6988 53.5993 26.2251 54.38 30.8854C54.4708 31.4274 54.5352 32.0141 54.28 32.5008C54.0248 32.9876 53.3219 33.2692 52.9058 32.9102C52.5511 32.604 52.1737 32.2866 51.7135 32.1984C51.2534 32.1103 50.6951 32.3494 50.6059 32.8094C49.9525 36.1778 49.2664 39.6318 47.451 42.5435C46.9783 43.3018 46.4278 44.0257 46.1272 44.8672C45.8972 45.5111 45.823 46.1984 45.7505 46.8783C45.5995 48.295 45.4484 49.7116 45.2974 51.1282C45.2337 51.7254 45.145 52.3756 44.71 52.7896C44.2946 53.185 43.6764 53.2561 43.1052 53.3068C41.2503 53.4715 39.3953 53.6363 37.5403 53.801C37.2086 53.8305 36.8324 53.8456 36.5901 53.617C36.4035 53.441 36.3517 53.1683 36.315 52.9144C36.0545 51.1121 36.0545 49.2723 36.3152 47.4701C36.6893 44.8842 35.5321 42.2387 33.7094 40.3667C32.7595 39.3912 31.6394 38.5937 30.6911 37.6167C29.7428 36.6396 28.9491 35.4116 28.8922 34.0512C29.5375 35.8392 30.7266 37.4268 32.2609 38.5489C34.5538 40.2258 36.1875 42.7805 36.7477 45.5653C37.1881 43.1835 35.4747 40.9684 33.719 39.2997ZM37.657 29.3857C38.403 29.4586 39.1843 29.644 39.8805 29.3664C41.7554 28.6186 43.9303 28.6581 45.7768 29.4736C46.5648 29.8216 47.4519 29.8408 48.3005 29.9893C49.1491 30.1378 50.0449 30.4764 50.477 31.2217C50.9622 32.0586 52.388 31.8273 52.9405 32.6214C53.1697 32.9507 53.7333 32.8253 53.9503 32.4878C54.1672 32.1503 54.138 31.7159 54.0895 31.3176C53.6947 28.076 52.5075 24.8977 50.4588 22.3547C48.4101 19.8118 45.4711 17.9418 42.2468 17.4247C39.0224 16.9077 35.5432 17.8217 33.1568 20.0507C31.7123 21.3999 30.7105 23.1501 29.8302 24.9198C28.297 28.002 27.0419 31.3669 27.2895 34.8004C28.3186 33.5552 29.4364 32.2487 30.9798 31.772C31.3484 31.6581 31.7522 31.585 32.0319 31.3193C33.5146 29.9114 35.622 29.187 37.657 29.3857ZM39.3061 50.63C39.3004 51.4578 39.4244 52.2863 39.6722 53.0762C39.6934 53.1436 39.7195 53.2162 39.7795 53.2536C39.8378 53.2899 39.9121 53.283 39.9803 53.2748C40.8098 53.1756 41.6392 53.0764 42.4687 52.9772C42.4992 52.9736 42.5331 52.968 42.5513 52.9433C42.5702 52.9178 42.5645 52.8823 42.5578 52.8512C42.4085 52.1495 42.2592 51.4478 42.1099 50.7461C42.1015 50.7066 42.092 50.6649 42.0641 50.6357C42.0299 50.5999 41.9766 50.5914 41.9275 50.5852C41.1126 50.4821 40.2896 50.4437 39.4687 50.4705C39.4207 50.4721 39.3669 50.4765 39.3354 50.5128C39.3084 50.5438 39.3064 50.5888 39.3061 50.63ZM41.9386 47.7051C41.9113 47.6678 41.8596 47.6604 41.8136 47.6563C40.9773 47.5823 40.1334 47.5945 39.2995 47.6924C39.2512 47.6981 39.2001 47.7053 39.1627 47.7364C39.1014 47.7873 39.101 47.8795 39.1056 47.9591C39.1335 48.4314 39.1613 48.9038 39.1891 49.3761C39.1959 49.4915 39.2408 49.6437 39.3562 49.6379C40.174 49.5969 40.9954 49.6268 41.808 49.7274C41.9198 49.7412 41.9629 49.5869 41.9627 49.4743C41.9618 48.9176 41.9608 48.361 41.9599 47.8044C41.9598 47.7699 41.9589 47.7329 41.9386 47.7051ZM36.7544 50.9143C36.6913 50.9429 36.6267 50.9751 36.5839 51.0296C36.5158 51.1164 36.5187 51.2374 36.5248 51.3476C36.5462 51.7342 36.5677 52.1208 36.5891 52.5074C36.5999 52.703 36.6114 52.9019 36.6777 53.0863C36.744 53.2706 36.8742 53.4418 37.0579 53.51C37.2093 53.5662 37.3768 53.5473 37.537 53.5276C37.8403 53.4904 38.1435 53.4532 38.4467 53.4159C38.5712 53.4006 38.7002 53.3838 38.8068 53.3176C38.5225 52.4544 38.3337 51.5598 38.2447 50.6554C38.2384 50.5921 38.1533 50.5772 38.0898 50.5812C37.6294 50.6102 37.1745 50.7237 36.7544 50.9143ZM44.9135 49.8791C45.0033 49.3242 45.0931 48.7692 45.1829 48.2143C45.1907 48.1657 45.1974 48.1113 45.1688 48.0712C45.1398 48.0305 45.0851 48.0194 45.0358 48.0115C44.3784 47.9059 43.7193 47.8106 43.059 47.7256C43.0094 47.7192 42.9492 47.7173 42.9207 47.7583C42.9036 47.7827 42.9042 47.8149 42.9054 47.8447C42.9293 48.4232 42.9532 49.0017 42.9771 49.5802C42.9792 49.6331 42.9842 49.6921 43.0237 49.7272C43.0516 49.752 43.0906 49.7589 43.1274 49.7649C43.6818 49.8544 44.2362 49.9439 44.7906 50.0335C44.8632 50.0452 44.9017 49.9517 44.9135 49.8791ZM39.1505 46.6056C39.1386 46.6695 39.1345 46.7513 39.1915 46.7827C39.2188 46.7977 39.252 46.7952 39.283 46.7922C40.1523 46.7087 41.0216 46.6252 41.8909 46.5417C41.9358 46.5374 41.9831 46.5322 42.0193 46.5053C42.0685 46.4687 42.0836 46.4028 42.0952 46.3425C42.1661 45.9759 42.2369 45.6092 42.3078 45.2426C42.3179 45.1905 42.324 45.1269 42.2826 45.0937C42.2537 45.0705 42.2127 45.0725 42.1758 45.0755C41.3424 45.1453 40.5091 45.2151 39.6757 45.2848C39.6077 45.2905 39.5366 45.2972 39.479 45.3339C39.3815 45.396 39.3521 45.5225 39.331 45.6361C39.2708 45.9592 39.2107 46.2824 39.1505 46.6056ZM43.067 45.3997C43.0345 45.7175 43.0019 46.0354 42.9694 46.3532C42.964 46.4056 42.9594 46.4617 42.9849 46.5077C43.0225 46.5757 43.1094 46.5955 43.186 46.6084C43.8835 46.7259 44.5811 46.8434 45.2786 46.9609C45.3076 46.9658 45.3384 46.9704 45.3653 46.9589C45.4167 46.9368 45.4281 46.8703 45.4319 46.8145C45.4597 46.4043 45.4659 45.9926 45.4505 45.5818C45.4479 45.511 45.4442 45.4383 45.4154 45.3736C45.3279 45.1772 45.0678 45.1446 44.8528 45.1403C44.3493 45.13 43.8458 45.1198 43.3422 45.1095C43.29 45.1085 43.2353 45.108 43.1891 45.1322C43.0984 45.1797 43.0775 45.2978 43.067 45.3997ZM50.4929 31.879C50.133 32.3482 50.0342 32.9608 49.9428 33.5451C49.4803 36.5006 48.8808 39.5246 47.2545 42.0355C46.6973 42.8956 46.0029 43.7449 45.9241 44.7667C46.231 43.703 47.0806 42.8979 47.6638 41.9569C48.0917 41.2665 48.3773 40.4986 48.6388 39.7296C49.2701 37.8733 49.7784 35.9752 50.1591 34.0518C50.296 33.3603 50.431 32.6329 50.8763 32.0864C50.7251 32.0849 50.5769 32.0047 50.4929 31.879ZM38.0133 49.7481C38.0617 49.7355 38.1135 49.7208 38.1449 49.682C38.1786 49.6403 38.1801 49.5821 38.18 49.5285C38.1794 49.0185 38.1788 48.5084 38.1781 47.9984C38.1781 47.9616 38.177 47.9217 38.1537 47.8933C38.1203 47.8525 38.0585 47.854 38.0061 47.8597C37.6014 47.904 37.2005 47.9837 36.8097 48.0975C36.7638 48.1109 36.7158 48.1261 36.6832 48.161C36.6458 48.2012 36.6362 48.2591 36.6287 48.3135C36.5527 48.8642 36.5224 49.4212 36.5381 49.9769C36.5393 50.0222 36.546 50.0759 36.5862 50.0968C36.614 50.1112 36.6477 50.1036 36.678 50.0957C37.1231 49.9798 37.5682 49.864 38.0133 49.7481ZM44.5322 52.4959C44.8269 52.1416 44.8295 51.636 44.8174 51.1752C44.815 51.0855 44.7095 51.041 44.6224 51.0196C44.1566 50.9047 43.6834 50.8199 43.2068 50.7658C43.1651 50.761 43.1193 50.7574 43.0846 50.781C43.0315 50.8169 43.032 50.8939 43.0389 50.9576C43.1035 51.5525 43.227 52.141 43.407 52.7116C43.428 52.7779 43.4554 52.8508 43.5182 52.8806C43.552 52.8966 43.5909 52.8972 43.6284 52.8961C43.9678 52.8863 44.315 52.757 44.5322 52.4959ZM37.4102 45.635C37.2944 45.6683 37.1763 45.7073 37.0851 45.7861C36.9986 45.8609 36.9435 45.9655 36.9007 46.0715C36.7646 46.4083 36.7336 46.7769 36.7042 47.139C36.702 47.1667 36.7005 47.1972 36.7174 47.2192C36.7427 47.2522 36.7929 47.2478 36.8338 47.2402C37.1866 47.174 37.5394 47.1079 37.8922 47.0417C37.9926 47.0229 38.1038 46.9973 38.1608 46.9125C38.1996 46.8548 38.2044 46.7815 38.208 46.7121C38.2296 46.2953 38.2512 45.8785 38.2728 45.4617C37.9812 45.4958 37.6923 45.5538 37.4102 45.635ZM39.3907 47.4197C40.1611 47.3363 40.9394 47.326 41.7118 47.3891C41.7994 47.3962 41.8957 47.4021 41.9666 47.3502C42.0778 47.2689 42.0628 47.1016 42.0362 46.9665C42.0292 46.9312 42.0213 46.894 41.9966 46.8678C41.9572 46.8262 41.8916 46.8279 41.8345 46.8327C41.0635 46.8974 40.2924 46.9621 39.5214 47.0267C39.415 47.0356 39.3015 47.0473 39.2189 47.115C39.1363 47.1826 39.1095 47.3276 39.1946 47.392C39.2486 47.4329 39.3233 47.427 39.3907 47.4197ZM45.261 47.3585C45.1683 47.2637 45.0289 47.236 44.8984 47.2128C44.3214 47.1103 43.7444 47.0077 43.1674 46.9052C43.0921 46.8918 42.9996 46.8848 42.9543 46.9464C42.9345 46.9733 42.929 47.0078 42.9241 47.0407C42.8996 47.2049 42.9198 47.4335 43.0843 47.4551C43.7403 47.5416 44.3962 47.628 45.0521 47.7144C45.1171 47.723 45.187 47.7308 45.2451 47.7003C45.3624 47.6387 45.3536 47.4532 45.261 47.3585ZM38.6135 50.6138C38.5745 50.7211 38.594 50.8399 38.6144 50.9523C38.7387 51.6398 38.8738 52.3254 39.0284 53.0067C39.0492 53.0985 39.0723 53.194 39.1333 53.2657C39.1943 53.3374 39.3056 53.3757 39.3851 53.3253C39.5046 53.2497 39.4605 53.0686 39.4091 52.9368C39.1437 52.2562 39.0683 51.5174 39.0317 50.7878C39.0252 50.6597 39.0005 50.5034 38.8802 50.4591C38.7729 50.4197 38.6526 50.5065 38.6135 50.6138ZM44.7606 50.7406C44.9004 50.6873 44.8037 50.4489 44.9037 50.3377C44.3236 50.193 43.7322 50.0938 43.1367 50.0412C42.9963 50.0288 42.9311 50.2405 43.0148 50.354C43.0984 50.4675 43.2513 50.4998 43.3902 50.5239C43.5155 50.5455 43.6407 50.5672 43.7659 50.5888C44.0599 50.6397 44.354 50.6905 44.648 50.7414C44.6854 50.7478 44.7251 50.7541 44.7606 50.7406ZM39.5274 50.2191C40.2473 50.1769 40.9712 50.204 41.6859 50.2999C41.8287 50.319 42.0267 50.3022 42.0459 50.1594C42.0657 50.0117 41.8665 49.9468 41.7177 49.9394C40.9944 49.9034 40.2696 49.8983 39.5459 49.9243C39.4177 49.9289 39.2419 49.9939 39.2758 50.1176C39.3017 50.2124 39.4292 50.2249 39.5274 50.2191ZM42.2912 47.7923C42.2574 47.8628 42.2565 47.944 42.2562 48.0221C42.2546 48.463 42.2531 48.9039 42.2515 49.3448C42.2512 49.4426 42.2516 49.544 42.2927 49.6328C42.3338 49.7215 42.4279 49.7937 42.5242 49.7767C42.6839 49.7485 42.7135 49.5345 42.7046 49.3726C42.679 48.9035 42.6534 48.4344 42.6278 47.9653C42.6215 47.8499 42.5914 47.705 42.4783 47.6814C42.4017 47.6654 42.325 47.7218 42.2912 47.7923ZM42.7832 50.843C42.7512 50.7508 42.6772 50.6657 42.5805 50.6524C42.4838 50.639 42.377 50.7259 42.3957 50.8218C42.509 51.4056 42.6224 51.9894 42.7357 52.5733C42.7623 52.71 42.7989 52.8621 42.9169 52.9362C43.0348 53.0103 43.2399 52.911 43.1957 52.7789C43.0167 52.2429 42.8363 51.6975 42.8172 51.1327C42.814 51.0352 42.8152 50.9353 42.7832 50.843ZM38.8374 49.5975C38.89 49.5034 38.8859 49.3892 38.8803 49.2815C38.8607 48.906 38.8411 48.5304 38.8215 48.1548C38.8155 48.0382 38.8053 47.9113 38.7264 47.8252C38.6475 47.7391 38.4744 47.7384 38.4365 47.8488C38.4264 47.8782 38.4274 47.91 38.4285 47.9411C38.4464 48.4435 38.4643 48.946 38.4822 49.4485C38.4853 49.5356 38.4948 49.6353 38.5654 49.6863C38.6528 49.7495 38.7848 49.6915 38.8374 49.5975ZM38.5672 45.4876C38.4674 45.6255 38.4629 45.8082 38.4623 45.9785C38.4614 46.213 38.4606 46.4476 38.4597 46.6821C38.4592 46.8079 38.5053 46.9796 38.6305 46.9674C38.7283 46.9579 38.7675 46.8382 38.7837 46.7412C38.8569 46.3057 38.9301 45.8702 39.0032 45.4347C38.9006 45.2989 38.667 45.3497 38.5672 45.4876ZM37.8806 50.3802C37.9836 50.371 38.0984 50.3621 38.168 50.2856C38.2376 50.2091 38.1941 50.0459 38.0916 50.0599C37.7753 50.1033 37.459 50.1466 37.1427 50.19C36.9787 50.2124 36.8045 50.2393 36.6795 50.348C36.5546 50.4566 36.5133 50.6773 36.6412 50.7825C37.0171 50.5577 37.4443 50.4191 37.8806 50.3802ZM36.7275 47.5479C36.6329 47.638 36.616 47.819 36.7278 47.8864C37.0899 47.7656 37.465 47.6835 37.8445 47.642C37.938 47.6318 38.0372 47.622 38.1122 47.5652C38.1871 47.5083 38.2201 47.3855 38.1523 47.3203C38.0989 47.2688 38.0138 47.2764 37.9404 47.2874C37.6566 47.3299 37.3728 47.3725 37.089 47.415C36.9599 47.4344 36.822 47.4579 36.7275 47.5479ZM42.6439 45.1242C42.6105 45.1598 42.6003 45.2107 42.5916 45.2588C42.525 45.6254 42.4583 45.992 42.3916 46.3586C42.3796 46.4249 42.3722 46.5049 42.4239 46.5481C42.4766 46.5922 42.5628 46.5651 42.6044 46.5104C42.6461 46.4556 42.6552 46.3836 42.6629 46.3152C42.7042 45.9477 42.7455 45.5802 42.7868 45.2127C42.7905 45.1796 42.7932 45.1428 42.7726 45.1167C42.7424 45.0784 42.6773 45.0886 42.6439 45.1242ZM42.5193 49.9797C42.3806 49.9628 42.2461 50.1399 42.3326 50.2496C42.3931 50.3264 42.464 50.4047 42.5595 50.4256C42.655 50.4465 42.7737 50.377 42.7645 50.2797C42.7514 50.1406 42.6579 49.9966 42.5193 49.9797ZM42.5741 47.1654C42.6209 47.053 42.6321 46.8734 42.5113 46.8593C42.464 46.8538 42.4193 46.8828 42.3869 46.9176C42.2364 47.0792 42.3142 47.3879 42.5233 47.4589C42.5904 47.3816 42.614 47.2688 42.5836 47.171C42.5504 47.064 42.5311 47.2688 42.5741 47.1654ZM38.8298 47.3711C38.8016 47.2676 38.7157 47.1703 38.6084 47.1692C38.4694 47.1678 38.3785 47.3652 38.4698 47.47C38.5611 47.5748 38.7691 47.5116 38.7867 47.3737C38.8023 47.2516 38.8621 47.4899 38.8298 47.3711ZM38.9145 50.2153C38.9475 50.1872 38.9712 50.1483 38.981 50.1061C38.8895 50.0039 38.7292 49.9708 38.6047 50.0284C38.5771 50.0412 38.5504 50.0588 38.5347 50.0849C38.4899 50.1594 38.5643 50.2595 38.6501 50.2738C38.7359 50.288 38.82 50.2461 38.8969 50.2056L38.9145 50.2153Z" fill="#232440"/>
</svg>
