<svg width="80" height="80" viewBox="0 0 80 80" fill="none" xmlns="http://www.w3.org/2000/svg">
<rect opacity="0.1" width="80" height="80" rx="10" fill="#665AF0"/>
<path d="M51.6804 20.6733C51.1646 19.2959 50.6263 17.8588 46.9823 18.8308C45.0256 19.3528 43.3854 21.1968 42.0445 23.9353C41.0357 26.1132 40.1833 28.9296 39.5034 32.3063C38.114 39.2062 37.5287 48.1317 37.8023 56.8096L37.1959 56.8288L37.1879 56.567C37.0028 50.3006 37.2627 43.9173 37.9481 38.2579C35.0319 35.2269 31.7079 32.838 29.2857 32.0445C23.5458 30.7788 22.0294 34.1226 22.0671 37.1054C22.0739 37.6508 22.2645 38.1044 22.4565 38.5614C22.6551 39.034 22.8551 39.5101 22.8551 40.095C22.8551 40.4829 21.9877 41.2842 20.86 42.3258C18.6431 44.3735 15.4207 47.35 15.8075 49.9404C16.1649 52.3342 18.4316 54.1519 20.5179 55.1291C20.7222 55.2248 20.9446 55.4025 21.2123 55.6164C21.4027 55.7685 21.6159 55.9389 21.8617 56.111L21.8806 56.1242C22.0737 56.2571 22.3924 56.4448 22.8367 56.6871L22.9738 56.7614C29.2593 60.1522 36.5541 57.8678 38.8272 57.0246L38.9601 56.9749L55.0798 56.7954L55.0777 56.7828C55.0733 56.7565 55.0661 56.7175 55.0568 56.6671C54.9053 55.8459 54.1936 51.9886 55.709 50.4341C60.4415 45.5797 65.6308 31.6871 58.5752 25.8655C57.016 24.579 55.4689 23.7969 54.2806 23.1963C53.559 22.8315 52.9697 22.5336 52.5906 22.2303C52.1237 21.8568 51.9041 21.2706 51.6804 20.6733Z" fill="#FF7FA0"/>
<path fill-rule="evenodd" clip-rule="evenodd" d="M23.133 36.2226C22.7778 36.1608 23.4056 36.8653 23.4056 36.8653C23.4056 36.8653 23.4882 36.2843 23.133 36.2226Z" fill="white"/>
<path fill-rule="evenodd" clip-rule="evenodd" d="M28.4466 56.8495C28.4466 56.8495 24.6309 55.2531 24.6309 53.0303C24.6309 52.3782 25.0387 52.4408 25.8545 53.2182C25.9432 53.3027 26.0703 53.4325 26.2358 53.6075C26.3372 53.7148 24.0471 50.9339 25.2011 50.4138C26.3259 49.9067 26.5875 52.5391 26.6463 52.5028C26.7117 52.4624 26.6926 51.6659 26.9529 51.3138C27.0931 51.1241 27.5056 51.0835 27.8176 51.3138C29.4571 52.5234 28.4466 56.8495 28.4466 56.8495Z" fill="white"/>
<path fill-rule="evenodd" clip-rule="evenodd" d="M26.8064 40.5436C26.8064 40.5436 25.2192 40.4621 25.0028 39.9574C24.7865 39.4527 25.9635 39.7396 25.9635 39.7396L26.8064 40.5436Z" fill="white"/>
<path fill-rule="evenodd" clip-rule="evenodd" d="M24.1221 38.151C23.7667 37.9522 23.9688 37.478 24.1221 37.4583C24.5757 37.3999 24.9337 38.4053 24.9837 38.5059C25.0703 38.6802 24.3024 38.2519 24.1221 38.151Z" fill="white"/>
<path fill-rule="evenodd" clip-rule="evenodd" d="M27.776 41.1985C27.776 41.1985 26.9069 38.9829 27.7115 39.1575C28.516 39.3321 28.2845 41.9078 28.2845 41.9078L27.776 41.1985Z" fill="white"/>
<path fill-rule="evenodd" clip-rule="evenodd" d="M27.1925 39.5846C27.2039 39.944 27.3574 40.4953 27.6523 41.247C27.6563 41.2573 27.6616 41.267 27.668 41.2759L28.1765 41.9852C28.2483 42.0853 28.4058 42.0423 28.4169 41.9196L28.4261 41.8135C28.569 40.0961 28.3626 39.1628 27.7396 39.0276C27.3772 38.9489 27.1793 39.1657 27.1925 39.5846ZM27.6967 39.2905C28.0838 39.3898 28.2637 40.108 28.1851 41.456L28.1801 41.5343L27.8935 41.1345L27.8434 41.0044C27.5958 40.3537 27.4676 39.8754 27.4581 39.5763L27.4574 39.5345C27.4568 39.3079 27.5191 39.2517 27.6833 39.2874L27.6967 39.2905Z" fill="#232440"/>
<path fill-rule="evenodd" clip-rule="evenodd" d="M24.707 50.2794C24.1472 50.5317 24.186 51.1684 24.6133 52.0356L24.6462 52.1012C24.7243 52.2548 24.8135 52.4137 24.9122 52.5765L24.9462 52.632L24.942 52.6292C24.7821 52.5229 24.6443 52.4607 24.5257 52.4425C24.2107 52.3941 24.05 52.6262 24.05 53.0302C24.05 54.5858 25.3637 55.9007 27.9563 56.9853C28.0404 57.0205 28.1359 56.9717 28.1566 56.8829C28.8423 53.9472 28.6264 52.0472 27.4716 51.1951C27.1173 50.9337 26.6051 50.95 26.401 51.2261L26.3832 51.2511C26.2965 51.3786 26.2359 51.5465 26.191 51.7553L26.1891 51.7646L26.1833 51.7416C26.1514 51.6166 26.1176 51.4988 26.0794 51.3806C25.9529 50.9891 25.8016 50.6817 25.6117 50.4759C25.3619 50.2051 25.0512 50.1242 24.707 50.2794ZM25.9753 52.1461L26.04 52.4511L26.0475 52.4828C26.0522 52.502 26.0566 52.5174 26.061 52.5305C26.0669 52.5481 26.073 52.5627 26.0828 52.5781C26.095 52.5973 26.1101 52.6142 26.1341 52.6287C26.1808 52.6569 26.2409 52.6586 26.2904 52.628C26.3541 52.5886 26.3696 52.5548 26.3871 52.4434L26.3952 52.3878C26.401 52.3466 26.4221 52.1717 26.4256 52.1439C26.4398 52.0334 26.4539 51.9422 26.4713 51.8553C26.5121 51.6514 26.567 51.4973 26.638 51.4012C26.7351 51.2698 27.0626 51.2594 27.2968 51.4322L27.3274 51.4553C28.3014 52.2055 28.5122 53.9047 27.9269 56.5638L27.9089 56.645L27.8489 56.619C25.5023 55.5955 24.3448 54.396 24.3448 53.0302C24.3448 52.7821 24.3881 52.7194 24.481 52.7337C24.6454 52.7589 24.9326 52.9561 25.3195 53.3247L25.3689 53.3726C25.4279 53.4306 25.5003 53.5043 25.5861 53.5938L25.7003 53.7137C25.7022 53.7155 25.7052 53.7182 25.711 53.7235L25.7129 53.7279C25.7174 53.7353 25.7319 53.738 25.8285 53.756L25.8622 53.7441C25.902 53.729 25.9083 53.719 25.9422 53.6658L25.9499 53.6335C25.9546 53.6123 25.9539 53.6073 25.9514 53.5889L25.945 53.5627C25.9436 53.5576 25.9425 53.555 25.9407 53.5512L25.9393 53.5481C25.9353 53.5395 25.933 53.5351 25.9293 53.5294L25.8892 53.4755L25.7871 53.3403C25.7696 53.3169 25.7519 53.293 25.7323 53.2664C25.5644 53.0385 25.4015 52.803 25.2484 52.56C25.1051 52.3323 24.9799 52.1127 24.8777 51.9053C24.5172 51.1736 24.4884 50.7011 24.8282 50.548C25.2371 50.3636 25.5511 50.7039 25.7991 51.4712C25.8666 51.6798 25.9199 51.8898 25.9753 52.1461Z" fill="#232440"/>
<path fill-rule="evenodd" clip-rule="evenodd" d="M25.1639 38.5872L25.285 38.6973C26.7857 40.0673 27.8306 41.1603 28.3876 41.9189C29.3597 43.2428 30.1432 44.616 30.8034 46.07C31.038 46.5868 31.2504 47.0985 31.4598 47.6417L31.5168 47.7907C31.582 47.9623 31.6451 48.1317 31.7139 48.3195L32.0068 49.1277C32.7992 51.2973 32.5369 51.403 31.7826 49.2928L31.4862 48.4745C31.4242 48.3045 31.3673 48.1508 31.3102 47.9992L31.2672 47.8856C31.0412 47.2913 30.8137 46.7387 30.5603 46.1804C29.9073 44.7424 29.1329 43.385 28.1723 42.0769L28.1283 42.0176C27.5577 41.2577 26.4982 40.1593 24.9844 38.7848C24.9298 38.7353 24.9258 38.6508 24.9753 38.5963C25.0249 38.5417 25.1093 38.5376 25.1639 38.5872ZM21.6512 35.5612L23.5202 37.1564C23.6954 37.3067 23.8319 37.4245 23.8971 37.4819C23.9524 37.5307 23.9577 37.6151 23.909 37.6704C23.8602 37.7257 23.7758 37.731 23.7205 37.6822L23.2342 37.263C22.5883 36.7097 21.5685 35.8419 21.4776 35.764C21.4216 35.7161 21.415 35.6318 21.463 35.5758C21.5109 35.5198 21.5952 35.5133 21.6512 35.5612Z" fill="#232440"/>
<path fill-rule="evenodd" clip-rule="evenodd" d="M25.1054 39.5211C24.8601 39.5767 24.7774 39.7689 24.8807 40.0099C25.0531 40.4119 25.692 40.6195 26.7996 40.6764C26.9227 40.6827 26.9873 40.5326 26.8982 40.4475L26.0552 39.6435C26.0384 39.6274 26.0176 39.616 25.995 39.6105C25.5838 39.5103 25.2913 39.4789 25.1054 39.5211ZM25.8975 39.8603L26.4472 40.3845L26.4141 40.3814L26.3311 40.3726C25.6235 40.2934 25.2211 40.1293 25.125 39.9051L25.115 39.881C25.0856 39.8073 25.0962 39.7956 25.1642 39.7802C25.2896 39.7518 25.5244 39.7742 25.8588 39.8513L25.8975 39.8603Z" fill="#232440"/>
<path fill-rule="evenodd" clip-rule="evenodd" d="M24.3251 57.6296C23.9905 57.8223 24.1268 58.0229 24.8484 58.3431C25.6271 58.6933 27.0763 59.3692 29.5654 59.5597C33.4207 59.8546 36.931 59.2981 41.3624 59.2981C47.4974 59.2981 50.1903 60.6461 52.3375 60.3352C58.0936 59.5019 59.3976 57.8845 57.6804 57.4672C55.7951 57.009 49.8029 57.0649 47.7857 56.9332L47.1615 56.8932L46.6252 56.8797C40.8192 56.7371 31.5125 56.8797 29.6949 56.8797C25.987 56.8797 24.3251 57.6296 24.3251 57.6296Z" fill="white"/>
<path fill-rule="evenodd" clip-rule="evenodd" d="M41.3625 59.2982C47.4975 59.2982 50.1904 60.6927 52.3377 60.3818C58.0937 59.5484 59.3977 57.8845 57.6805 57.4672C55.7952 57.009 48.9467 56.8602 47.2604 56.8967C47.2604 56.8967 55.013 58.3292 54.5981 58.8036C53.3629 60.2163 50.2872 58.5093 44.7009 58.5591C43.5501 58.5693 41.3625 59.2982 41.3625 59.2982Z" fill="#E7EAEE"/>
<path fill-rule="evenodd" clip-rule="evenodd" d="M30.063 56.9403C29.9136 56.9411 29.7937 56.9415 29.695 56.9415L29.5257 56.9419C27.1151 56.9532 25.3569 57.2066 24.2436 57.7089L24.2262 57.7178C23.9662 57.8676 23.8666 58.0881 24.03 58.3146C24.1356 58.461 24.3569 58.5993 24.7302 58.7674L25.0476 58.9093C25.4437 59.0847 25.6786 59.1798 26.0312 59.3038L26.0695 59.3172C27.0868 59.6726 28.2156 59.9152 29.5503 60.0174C30.4987 60.0899 31.4652 60.1148 32.5246 60.1001L32.8955 60.0936C33.5921 60.0793 34.1855 60.0548 35.2696 59.9966L37.1435 59.8928C38.9292 59.7962 40.0186 59.7575 41.3047 59.7564L41.3625 59.7564C43.6643 59.7564 45.5447 59.9316 47.6302 60.273L47.8113 60.3032C48.1255 60.3578 49.8539 60.6623 50.3311 60.7309L50.3477 60.7333C51.1804 60.8505 51.7966 60.8739 52.366 60.7915L52.5251 60.768C55.1106 60.3817 56.9788 59.8062 57.9223 59.1695C58.865 58.5334 58.7797 57.8046 57.7585 57.5424L57.7272 57.5346C56.8792 57.3285 55.2694 57.214 52.768 57.139L52.2549 57.1245C52.1054 57.1205 51.9509 57.1165 51.7885 57.1125L49.6109 57.0621C48.7723 57.0414 48.2581 57.0236 47.8688 56.9998L47.1742 56.9554L46.6302 56.9416L46.0773 56.9291C44.4739 56.8956 42.5588 56.8796 40.3667 56.8782L39.7149 56.8782C38.1873 56.8792 36.6063 56.8867 34.8411 56.8999L30.063 56.9403ZM40.8765 57.2753C43.0644 57.2791 44.9615 57.2982 46.5303 57.3358L47.1566 57.3514L47.8687 57.397C48.2606 57.4204 48.7737 57.4381 49.5994 57.4584L51.6969 57.5068C51.9442 57.5129 52.1727 57.5188 52.3919 57.5248L52.9056 57.5399C55.2901 57.614 56.84 57.7269 57.6337 57.9198L57.6812 57.9318C58.3394 58.1046 58.361 58.3952 57.7006 58.8409C56.7976 59.4503 53.0906 61.0829 50.4709 60.5263L50.3504 60.5093C49.7967 60.4269 47.941 60.0108 47.8317 59.9926L47.5628 59.9485C45.554 59.6251 43.7205 59.4555 41.5104 59.4483L41.189 59.4483C39.8674 59.4517 38.7291 59.4959 36.7949 59.603L35.4527 59.6777C34.1545 59.7484 33.5356 59.7738 32.7279 59.7884L32.6629 59.7895C28.5669 59.9485 26.0695 58.9944 26.0695 58.9944C25.7427 58.8777 24.8969 58.5839 24.8969 58.5839L24.8339 58.5551C22.8607 57.8851 27.1688 57.3493 29.5293 57.3384L30.2651 57.3355L34.5396 57.2987C36.5296 57.2832 38.2816 57.2748 39.9763 57.2746L40.8765 57.2753Z" fill="#232440"/>
<path fill-rule="evenodd" clip-rule="evenodd" d="M49.9792 54.0791C49.9792 54.0791 49.9688 54.6668 50.1497 54.9387C50.3306 55.2107 50.8351 55.9671 51.3043 56.1662C51.4489 56.2275 52.0007 56.2353 52.3322 56.4291C52.9983 56.8182 53.1466 57.5192 52.3322 57.6677C50.7154 57.9626 50.1497 57.1104 50.1497 57.1104C50.1497 57.1104 49.4836 56.1662 48.8161 55.5401C48.1485 54.9139 47.6167 54.7254 47.6167 54.7254" fill="white"/>
<path d="M55.5587 28.2407C55.3337 28.2238 55.2014 28.3949 55.2014 28.602C55.2014 29.3189 56.3726 30.2992 57.1358 30.2992C57.3595 30.2992 57.5426 30.1392 57.4776 29.8947C57.4531 29.8025 57.3967 29.7207 57.3043 29.6199L57.2839 29.598C57.18 29.4876 57.0726 29.3891 56.8317 29.1818L56.4627 28.8656C56.3721 28.7872 56.2281 28.6622 56.1846 28.625L56.1322 28.5805C56.0314 28.4955 55.9534 28.4335 55.8838 28.3843C55.7607 28.2973 55.6653 28.2487 55.5587 28.2407Z" fill="white"/>
<path fill-rule="evenodd" clip-rule="evenodd" d="M48.0766 42.2964C48.0766 42.2964 47.6332 41.0308 46.4934 40.6881C46.1313 40.5792 47.7154 42.9699 46.3172 43.8618C45.8808 44.1402 45.1048 44.2846 44.1499 44.4205C39.8933 45.0264 38.61 43.4381 35.9824 42.6625C34.9288 42.3515 29.804 40.9757 29.0292 47.9839C28.5442 52.3706 32.2177 53.7301 35.5097 54.4271C42.1048 55.8235 52.2104 55.2731 55.362 50.6709C59.1189 45.185 53.3448 40.4076 52.5312 39.9026C52.3342 39.7803 52.8991 41.3481 52.9619 42.141C53.0247 42.934 52.5312 43.2223 52.5312 43.2223C52.5312 43.2223 52.3367 42.3828 50.6173 42.2388C48.8979 42.0947 48.0766 42.2964 48.0766 42.2964Z" fill="white"/>
<path fill-rule="evenodd" clip-rule="evenodd" d="M22.7788 36.4561C22.839 36.5981 22.9792 36.7863 23.2071 37.042C23.3576 37.2109 23.6367 37.1265 23.6686 36.9026C23.7414 36.3911 23.5891 36.032 23.1784 35.9607C22.8569 35.9048 22.6494 36.1509 22.7788 36.4561ZM23.4054 36.8653L23.3647 36.8192C22.9812 36.3816 22.9039 36.1828 23.1328 36.2225C23.3697 36.2637 23.4605 36.478 23.4054 36.8653Z" fill="#232440"/>
<path fill-rule="evenodd" clip-rule="evenodd" d="M24.1051 37.3266C23.9557 37.3459 23.834 37.5212 23.8004 37.7149C23.7618 37.9377 23.8447 38.1482 24.0572 38.2671L24.2037 38.3483C24.345 38.4257 24.4719 38.4922 24.5954 38.5515L24.6527 38.5786C24.7447 38.6211 24.8191 38.6509 24.8758 38.6664C24.9337 38.6823 24.9777 38.6869 25.0246 38.6698C25.1248 38.6331 25.1424 38.5384 25.1078 38.4578L25.0968 38.4333C25.083 38.4009 25.0487 38.3193 25.0291 38.2738L25.0248 38.264C24.9712 38.1413 24.9165 38.0282 24.8563 37.9203C24.6333 37.5208 24.3935 37.2895 24.1051 37.3266ZM24.6516 38.1C24.6877 38.1678 24.7221 38.2386 24.756 38.3135L24.7671 38.3386L24.7344 38.3234L24.7105 38.312C24.5524 38.2359 24.3852 38.146 24.187 38.0351C24.0799 37.9752 24.0418 37.8784 24.0623 37.7602C24.0712 37.7088 24.0913 37.6591 24.1166 37.6228C24.1243 37.6117 24.1319 37.6026 24.1388 37.5961L24.1462 37.5896L24.139 37.5902C24.2773 37.5724 24.4515 37.7404 24.6242 38.0498L24.6516 38.1Z" fill="#232440"/>
<path fill-rule="evenodd" clip-rule="evenodd" d="M26.3775 39.6183C26.3539 39.5154 25.0302 37.1031 25.9597 37.1789C26.8891 37.2546 26.6678 39.9887 26.6355 39.9887C26.5974 39.9887 26.3945 39.6922 26.3775 39.6183Z" fill="white"/>
<path fill-rule="evenodd" clip-rule="evenodd" d="M25.4963 37.5381C25.4964 37.7689 25.5734 38.0744 25.7115 38.4457C25.7529 38.5571 25.7994 38.6729 25.8505 38.7931L25.8817 38.8657C26.0043 39.1484 26.2502 39.6573 26.2481 39.648C26.2613 39.7054 26.3165 39.8013 26.3893 39.9067L26.416 39.9451C26.5051 40.0715 26.5495 40.1173 26.6246 40.1212L26.6563 40.122C26.7464 40.1267 26.7463 40.1577 26.7672 40.0266L26.7747 39.9787C26.7778 39.959 26.781 39.9333 26.7842 39.9028L26.7861 39.8839C26.7945 39.7987 26.8019 39.6875 26.807 39.5658C26.8202 39.2515 26.8165 38.9151 26.7907 38.6013L26.7837 38.5216C26.7006 37.6417 26.4592 37.0862 25.9705 37.0463C25.6582 37.0209 25.4963 37.2163 25.4963 37.5381ZM25.9489 37.3112C26.2603 37.3366 26.4604 37.8247 26.5259 38.623C26.5506 38.925 26.5543 39.2507 26.5415 39.5547L26.5371 39.645L26.5324 39.637C26.5196 39.615 26.5107 39.5983 26.5079 39.591L26.5071 39.5885C26.5014 39.5636 26.2347 39.0117 26.1255 38.7599C26.0638 38.6177 26.0086 38.482 25.9606 38.353C25.8326 38.0092 25.7621 37.7293 25.7621 37.5381C25.7621 37.3639 25.8067 37.304 25.9349 37.3103L25.9489 37.3112Z" fill="#232440"/>
<path fill-rule="evenodd" clip-rule="evenodd" d="M30.0304 44.5189C30.0304 44.5189 30.3215 44.1144 30.4852 43.9135C30.6489 43.7126 30.8243 43.5445 30.8243 43.5445C30.8243 43.5445 26.8716 43.1511 25.5024 42.132C23.7146 40.8012 22.1108 38.594 20.4953 38.1271C18.5641 37.569 17.8493 38.8635 17.2922 38.9691C15.5953 39.2906 12.4874 40.2055 13.9085 42.9691C14.3473 43.8223 15.7685 44.219 16.7698 43.7434C17.8875 43.2124 19.2639 41.9119 20.7114 41.9119C22.3854 41.9119 22.6769 43.2833 24.8018 44.0103C26.106 44.4566 30.0304 44.5189 30.0304 44.5189Z" fill="white"/>
<path fill-rule="evenodd" clip-rule="evenodd" d="M34.7371 54.2979C34.7371 54.2979 35.702 55.3512 36.1019 56.0289C36.5017 56.7065 36.3616 57.074 36.9167 57.3873C37.7506 57.8578 38.6102 57.7391 38.9926 57.4889C39.3751 57.2387 39.0163 56.5982 38.2146 56.5982C38.0174 56.5982 37.7854 56.1454 37.6731 55.8458C37.5608 55.5463 37.6122 54.809 37.6122 54.809L34.7371 54.2979Z" fill="white"/>
<path fill-rule="evenodd" clip-rule="evenodd" d="M52.7104 40.1678C52.7104 40.1678 58.9979 47.8794 50.1561 52.4061C43.9723 55.5719 33.8127 53.8627 33.8127 53.8627C33.8127 53.8627 44.8726 56.8359 52.1013 53.2513C56.7137 50.964 57.626 47.0761 55.4256 43.1177C54.8498 42.0818 52.7104 40.1678 52.7104 40.1678Z" fill="#E7EAEE"/>
<path fill-rule="evenodd" clip-rule="evenodd" d="M52.3412 39.7832C52.4204 39.6782 52.5439 39.6769 52.636 39.7341C52.9328 39.9184 53.4698 40.3643 53.9863 40.8874C54.7033 41.6134 55.3434 42.4361 55.8342 43.3229C57.178 45.7507 57.058 48.2924 55.3525 50.7829C53.845 52.9842 50.8956 54.3128 46.7556 54.908C43.1345 55.4285 38.9425 55.3565 35.4689 54.621L35.2947 54.5836C33.3068 54.1496 31.8413 53.5983 30.7325 52.7463C29.2782 51.6288 28.5999 50.0651 28.8324 47.9621C29.1843 44.7789 30.4428 43.0098 32.3399 42.39C33.0452 42.1596 33.8005 42.103 34.5801 42.1799C35.1147 42.2326 35.5636 42.332 36.0388 42.4723L36.1232 42.4976C36.6395 42.6542 37.0788 42.827 37.7564 43.1272L38.2574 43.3516C39.2954 43.8169 39.8961 44.0376 40.6737 44.1944C41.6521 44.3917 42.7295 44.4149 44.0367 44.2362L44.2306 44.2086C45.2975 44.0531 45.8703 43.9119 46.2109 43.6946C46.6097 43.4402 46.752 43.028 46.695 42.4572C46.669 42.1975 46.6045 41.9236 46.5028 41.6043L46.4747 41.5182C46.4308 41.3877 46.3024 41.0212 46.2788 40.9415C46.2495 40.8428 46.2361 40.7741 46.2409 40.7102C46.2529 40.5499 46.3935 40.4509 46.5508 40.4982C47.3821 40.7482 47.9792 41.4743 48.3459 42.6515C48.3784 42.756 48.3201 42.8671 48.2156 42.8997C48.111 42.9322 47.9999 42.8739 47.9674 42.7694C47.6882 41.8733 47.2806 41.2904 46.7468 41.0057L46.7117 40.9876L46.8561 41.4085L46.86 41.4205C47.2265 42.9833 46.9542 44.2086 44.4895 44.5873C44.3538 44.6081 41.6283 44.8426 40.4966 44.5626C38.7822 44.1383 36.3491 42.5552 34.8905 42.4976C33.4318 42.44 33.1111 42.5552 32.4631 42.7669C30.7242 43.3349 29.2779 45.1749 28.9861 48.2137C28.8319 49.8183 29.6987 51.4442 31.12 52.4457C34.737 54.9947 43.1248 55.116 46.6992 54.6022C50.7401 54.0213 53.767 52.6494 55.1987 50.5589C56.8129 48.2017 56.763 45.8195 55.4873 43.5149C55.0154 42.6623 54.3972 41.8678 53.7042 41.166C53.3886 40.8463 53.0658 40.5574 52.8039 40.3467L52.7598 40.3115L52.7981 40.4626L52.9208 40.9343L52.9657 41.111C52.9726 41.1389 52.9794 41.1661 52.9859 41.193L53.0093 41.29C53.0922 41.6385 53.1426 41.9089 53.1598 42.1253C53.2071 42.7235 53.0339 43.1583 52.6315 43.3934C52.537 43.4487 52.4155 43.4168 52.3603 43.3223C52.3051 43.2278 52.3369 43.1064 52.4315 43.0511C52.6869 42.9018 52.8009 42.6157 52.7645 42.1566C52.7493 41.9647 52.7018 41.7105 52.6231 41.3794L52.6008 41.2872C52.5912 41.2478 52.5811 41.2074 52.5705 41.1652L52.3978 40.4977C52.3721 40.3966 52.3527 40.3171 52.3372 40.2479L52.3327 40.2275C52.3064 40.1072 52.2925 40.0211 52.2918 39.9563C52.291 39.8899 52.3005 39.8371 52.3412 39.7832Z" fill="#232440"/>
<path fill-rule="evenodd" clip-rule="evenodd" d="M48.0609 42.0779L48.2025 42.054C49.1377 41.8998 49.8924 41.844 50.4692 41.8877C51.0777 41.9338 51.7227 42.0983 52.4043 42.3803C52.4942 42.4176 52.5369 42.5206 52.4997 42.6105C52.4625 42.7005 52.3594 42.7432 52.2695 42.706C51.6208 42.4375 51.0118 42.2822 50.4426 42.2391C49.8704 42.1958 49.0955 42.2574 48.1207 42.4252C48.0248 42.4417 47.9336 42.3773 47.9171 42.2814C47.9006 42.1855 47.965 42.0944 48.0609 42.0779Z" fill="#232440"/>
<path fill-rule="evenodd" clip-rule="evenodd" d="M49.188 41.2873C49.61 41.2006 49.9955 41.2455 50.3395 41.4231C50.6687 41.5932 50.954 41.8071 51.1947 42.0647C51.245 42.1186 51.2421 42.2031 51.1882 42.2534C51.1344 42.3037 51.0499 42.3009 50.9995 42.247C50.78 42.012 50.5194 41.8166 50.2169 41.6603C49.9291 41.5117 49.6058 41.4741 49.2417 41.5489C49.1695 41.5637 49.0989 41.5172 49.0841 41.4449C49.0692 41.3727 49.1157 41.3021 49.188 41.2873Z" fill="#232440"/>
<path fill-rule="evenodd" clip-rule="evenodd" d="M50.0414 40.5881C50.0793 40.5249 50.1612 40.5042 50.2245 40.5421C50.5631 40.7445 50.8433 40.9711 51.0648 41.222C51.2884 41.4753 51.472 41.7991 51.6164 42.1927C51.6418 42.2619 51.6062 42.3386 51.537 42.364C51.4678 42.3894 51.3911 42.3539 51.3657 42.2847C51.2321 41.9206 51.0648 41.6255 50.8646 41.3987C50.6622 41.1694 50.4033 40.9601 50.0875 40.7712C50.0242 40.7334 50.0036 40.6514 50.0414 40.5881Z" fill="#232440"/>
<path fill-rule="evenodd" clip-rule="evenodd" d="M46.1732 43.7607C46.229 43.681 46.3389 43.6616 46.4186 43.7175C46.4983 43.7733 44.7971 46.1961 44.7971 46.6662C44.7971 47.176 45.0474 47.5171 45.7145 48.0552L45.9971 48.2799L46.0793 48.3459C46.4928 48.6799 46.7336 48.9143 46.9383 49.2118C47.2244 49.6277 47.3591 50.092 47.3248 50.6427C47.2825 51.3219 47.0775 51.7913 46.6715 52.333L46.6347 52.3814C46.589 52.4403 46.388 52.6971 46.333 52.7723C46.1365 53.0405 46.0441 53.2425 46.0273 53.4797C45.9531 54.5246 46.4448 55.7864 47.5126 57.2604C47.5697 57.3393 47.5521 57.4494 47.4733 57.5065C47.3945 57.5636 47.2843 57.546 47.2272 57.4672C46.1153 55.9323 45.5947 54.5964 45.6757 53.4547C45.6972 53.152 45.8076 52.901 46.0224 52.6004L46.0486 52.5641C46.1118 52.4777 46.3424 52.1836 46.3618 52.1581C46.7487 51.6507 47.3079 50.9082 46.8601 49.4954C46.6347 48.784 44.4941 48.2799 44.4237 46.7658C44.4071 46.4091 45.0018 45.4328 46.1732 43.7607Z" fill="#232440"/>
<path d="M46.821 51.0864L46.575 51.089C45.1193 51.1077 44.2338 51.181 43.9603 51.2983L43.9504 51.3027C43.5481 51.4872 43.2318 51.7373 42.9899 52.0371C42.8021 52.2699 42.6694 52.5194 42.5827 52.7685C42.5568 52.8428 42.5368 52.9122 42.5218 52.9753L42.5117 53.0202L42.9327 53.5597C42.9369 53.5651 42.9408 53.5707 42.9443 53.5764L42.9484 53.5822L42.9617 53.6016C43.0526 53.7335 43.1559 53.8624 43.2887 54.0128L43.3499 54.081C43.459 54.2 43.8063 54.5743 43.9243 54.7091C44.1767 54.9973 44.3893 55.2746 44.5929 55.593C44.9033 56.0784 45.177 56.6388 45.4228 57.3175L45.4405 57.3671L45.4581 57.4181C45.4796 57.4809 45.5006 57.5454 45.5234 57.6182L45.6272 57.9585C45.7803 58.4601 45.8874 58.6905 46.0571 58.83L46.0856 58.8529C46.3079 59.026 46.5152 59.0688 47.0914 59.0871L47.2598 59.0918C48.0258 59.1127 48.4253 58.5045 47.987 58.0625C47.8496 57.9238 47.3962 57.8164 46.6547 57.7714C46.5576 57.7655 46.6489 57.5152 46.6547 57.4181C46.6606 57.3209 46.7442 57.2469 46.8413 57.2528C46.9272 57.2581 47.0097 57.264 47.0888 57.2708C46.1068 55.8475 45.6274 54.6347 45.7036 53.5597C45.7251 53.257 45.6926 53.1385 45.9074 52.8378L45.9485 52.7816C46.0267 52.6772 46.2288 52.4193 46.2469 52.3955C46.4123 52.1786 46.5275 52.0009 46.6199 51.8069L46.6381 51.7679L46.6442 51.7539L46.6544 51.7312C46.7031 51.62 46.7545 51.4282 46.807 51.1596L46.821 51.0864Z" fill="white"/>
<path fill-rule="evenodd" clip-rule="evenodd" d="M42.6824 52.8157C42.8213 53.2208 43.0634 53.468 43.4007 53.8507L43.4481 53.9038C43.5324 53.9965 43.9142 54.4075 44.0391 54.5502C44.2915 54.8384 44.5041 55.1157 44.7077 55.4341C45.0181 55.9195 45.2918 56.4799 45.5376 57.1586C45.5494 57.1913 45.5612 57.2247 45.5729 57.2591L45.6051 57.3555C45.6123 57.3775 45.6195 57.4002 45.627 57.4236L45.669 57.5588C45.6904 57.6292 45.7339 57.7732 45.742 57.7996L45.7652 57.8746C45.9063 58.3246 46.0109 58.5387 46.1719 58.6711L46.2004 58.6939C46.4133 58.8598 46.6123 58.906 47.1346 58.9257L47.3746 58.9329C48.1406 58.9538 48.5401 58.3455 48.1018 57.9035C47.9644 57.7649 47.511 57.6575 46.7696 57.6125C46.6724 57.6066 46.5985 57.523 46.6043 57.4259C46.6102 57.3288 46.6938 57.2548 46.7909 57.2607L46.8834 57.2667C47.6577 57.3203 48.139 57.4406 48.3521 57.6554C49.0381 58.3473 48.4272 59.2947 47.3963 59.2857L47.2723 59.2826C46.5363 59.2628 46.2724 59.2101 45.948 58.9433C45.7166 58.753 45.591 58.4972 45.4294 57.9818L45.3248 57.6386L45.2912 57.5307C45.2769 57.4856 45.2633 57.4437 45.2496 57.4032L45.2394 57.3731C45.2284 57.3406 45.2173 57.3092 45.2062 57.2786C44.9692 56.624 44.7069 56.087 44.4108 55.624C44.2323 55.3448 44.0465 55.0988 43.829 54.8458L43.774 54.7824C43.6467 54.6371 43.2323 54.1914 43.1747 54.1269C42.7989 53.7069 42.5743 53.3675 42.4141 52.9204L42.3978 52.8737C42.0861 51.9645 41.686 51.6543 41.1633 51.848C41.0721 51.8819 40.0508 52.3718 41.0399 51.7141C42.029 51.0564 42.6824 52.8157 42.6824 52.8157Z" fill="#232440"/>
<path fill-rule="evenodd" clip-rule="evenodd" d="M48.8316 46.5555C48.6396 46.5555 48.364 46.004 48.364 45.7346C48.364 45.4651 49.0535 45.5562 49.0535 45.5562C49.0535 45.5562 49.7776 45.6533 49.6778 45.9243C49.578 46.1954 48.9383 46.5555 48.8316 46.5555Z" fill="#FFB61D"/>
<ellipse cx="47.6964" cy="44.5714" rx="0.380274" ry="0.710415" fill="#232440"/>
<ellipse cx="51.3333" cy="44.7321" rx="0.416759" ry="0.699286" fill="#232440"/>
<path fill-rule="evenodd" clip-rule="evenodd" d="M51.0613 45.9061C51.3788 45.7697 51.7301 45.7439 52.1115 45.8272C52.4845 45.9086 53.6082 46.6119 53.5689 46.6743C53.5296 46.7367 52.3917 46.1617 52.0545 46.0881C51.7257 46.0163 51.431 46.0379 51.1667 46.1514C51.099 46.1805 51.0204 46.1492 50.9913 46.0814C50.9622 46.0137 50.9936 45.9352 51.0613 45.9061Z" fill="#232440"/>
<path fill-rule="evenodd" clip-rule="evenodd" d="M51.2634 46.3676C51.5966 46.3852 51.6835 46.3092 52.1399 46.6055C52.5964 46.9018 52.9376 47.5997 52.8751 47.6389C52.8127 47.6781 52.4484 47.0557 52.0303 46.7423C51.6123 46.429 51.1192 46.5675 51.1231 46.4939C51.1268 46.4243 51.183 46.37 51.2513 46.3675L51.2634 46.3676Z" fill="#232440"/>
<path fill-rule="evenodd" clip-rule="evenodd" d="M48.9496 46.8447C48.8569 47.4201 48.8802 47.7864 48.9149 48.1951C48.9496 48.6038 49.2763 49.1923 49.3091 49.4382C49.3418 49.6842 48.691 48.6699 48.6517 48.2399C48.6123 47.8099 48.3333 46.6411 48.8206 46.6955C48.8206 46.6955 48.9599 46.7808 48.9496 46.8447Z" fill="#232440"/>
<path fill-rule="evenodd" clip-rule="evenodd" d="M46.5244 45.9765C46.8203 45.9765 46.9402 45.9838 47.2283 46.0405C47.3006 46.0547 47.3478 46.1249 47.3335 46.1973C47.3193 46.2696 47.2491 46.3167 47.1767 46.3025C47.0742 46.2823 46.8775 46.1965 46.5514 46.1999C46.1057 46.2047 45.7177 46.452 45.6983 46.4111C45.6667 46.3444 46.2284 45.9765 46.5244 45.9765Z" fill="#232440"/>
<path fill-rule="evenodd" clip-rule="evenodd" d="M47.0085 45.4033C47.0803 45.4202 47.1248 45.4921 47.1078 45.5639C47.0909 45.6356 47.019 45.6801 46.9473 45.6632C46.3062 45.512 45.7919 45.516 45.4291 45.5019C45.0723 45.4879 44.2719 45.5438 44.2485 45.4739C44.225 45.404 46.3523 45.2485 47.0085 45.4033Z" fill="#232440"/>
<path fill-rule="evenodd" clip-rule="evenodd" d="M49.9823 53.9029C50.0796 53.9046 50.1571 53.9849 50.1553 54.0822C50.149 54.4415 50.1993 54.6952 50.2964 54.8411C50.7037 55.4534 51.0491 55.8665 51.3731 56.004C51.3819 56.0077 51.403 56.0131 51.4358 56.0194L51.4844 56.0282C51.5208 56.0342 51.6746 56.0575 51.7015 56.0617C51.8028 56.0777 51.8863 56.0931 51.9677 56.1115C52.1476 56.1523 52.2972 56.2045 52.4211 56.2769C52.7934 56.4944 53.0392 56.8125 53.0631 57.1252C53.0907 57.4866 52.8281 57.7564 52.3638 57.8411C51.2239 58.0489 50.426 57.8452 50.0057 57.2119C49.5682 56.5917 49.1313 56.0773 48.6955 55.6686C48.2668 55.2664 47.8861 55.0078 47.5578 54.8914C47.4661 54.8589 47.4181 54.7582 47.4506 54.6665C47.4831 54.5747 47.5838 54.5267 47.6756 54.5593C48.0564 54.6943 48.4754 54.9789 48.9366 55.4115C49.3909 55.8376 49.8431 56.3701 50.2965 57.0129C50.6277 57.5118 51.2848 57.6796 52.3006 57.4944C52.6019 57.4394 52.7241 57.3139 52.7117 57.152C52.6978 56.9698 52.5244 56.7454 52.2433 56.5812C52.1555 56.5299 52.0376 56.4888 51.8898 56.4552C51.8262 56.4408 51.7597 56.4283 51.6809 56.4154L51.4263 56.3758L51.3771 56.3671C51.3161 56.3556 51.2726 56.3442 51.2354 56.3284C50.9932 56.2256 50.7443 56.0045 50.4837 55.6928C50.3119 55.4873 50.1799 55.3023 50.003 55.0363C49.8588 54.8196 49.7955 54.5002 49.803 54.076C49.8047 53.9787 49.885 53.9012 49.9823 53.9029Z" fill="#232440"/>
<path fill-rule="evenodd" clip-rule="evenodd" d="M51.4055 57.1538C51.4229 57.0955 51.4843 57.0624 51.5426 57.0798C51.724 57.134 51.8524 57.1939 51.9307 57.265C52.005 57.3325 52.0784 57.4362 52.1536 57.5768C52.1823 57.6304 52.1621 57.6972 52.1084 57.7259C52.0548 57.7545 51.9881 57.7343 51.9594 57.6807C51.895 57.5603 51.8352 57.4758 51.7826 57.4281C51.7341 57.384 51.6321 57.3364 51.4795 57.2908C51.4212 57.2734 51.3881 57.2121 51.4055 57.1538Z" fill="#232440"/>
<path fill-rule="evenodd" clip-rule="evenodd" d="M51.98 56.9207C51.9992 56.863 52.0616 56.8317 52.1193 56.8509C52.2747 56.9026 52.3902 56.9616 52.4669 57.0313C52.543 57.1004 52.616 57.2121 52.6899 57.3679C52.716 57.4228 52.6926 57.4885 52.6377 57.5146C52.5827 57.5407 52.517 57.5173 52.491 57.4623C52.4283 57.3303 52.3695 57.2405 52.3188 57.1943C52.2686 57.1488 52.1786 57.1028 52.0498 57.0599C51.992 57.0407 51.9608 56.9784 51.98 56.9207Z" fill="#232440"/>
<path fill-rule="evenodd" clip-rule="evenodd" d="M47.2652 58.4384C47.2844 58.3807 47.3467 58.3495 47.4045 58.3687C47.5598 58.4204 47.6753 58.4794 47.752 58.5491C47.8281 58.6182 47.9011 58.7299 47.9751 58.8856C48.0012 58.9406 47.9778 59.0063 47.9228 59.0324C47.8679 59.0584 47.8022 59.035 47.7761 58.9801C47.7134 58.848 47.6547 58.7582 47.6039 58.7121C47.5538 58.6665 47.4637 58.6206 47.3349 58.5777C47.2772 58.5585 47.246 58.4961 47.2652 58.4384Z" fill="#232440"/>
<path fill-rule="evenodd" clip-rule="evenodd" d="M47.5857 58.0646C47.6049 58.0069 47.6673 57.9757 47.725 57.9949C47.8804 58.0466 47.9959 58.1055 48.0726 58.1752C48.1487 58.2443 48.2217 58.3561 48.2956 58.5118C48.3217 58.5667 48.2983 58.6324 48.2434 58.6585C48.1884 58.6846 48.1227 58.6612 48.0967 58.6063C48.034 58.4742 47.9753 58.3844 47.9245 58.3382C47.8743 58.2927 47.7843 58.2467 47.6555 58.2039C47.5978 58.1847 47.5665 58.1223 47.5857 58.0646Z" fill="#232440"/>
<path fill-rule="evenodd" clip-rule="evenodd" d="M34.6177 54.168C34.6895 54.1022 35.9058 55.4972 36.1667 55.9394C36.2507 56.0818 36.3171 56.219 36.3761 56.3658C36.3943 56.411 36.4112 56.4557 36.4296 56.5063L36.4987 56.7015C36.6013 56.9868 36.7718 57.1034 37.003 57.2338C37.6814 57.6166 38.4824 57.612 38.8958 57.3415C39.1251 57.1915 38.8155 56.7745 38.2143 56.7745C37.9333 56.7745 37.6916 56.3978 37.5078 55.9077C37.4218 55.6782 37.4002 55.3117 37.4361 54.7968C37.4429 54.6997 37.5271 54.6265 37.6242 54.6333C37.7212 54.64 37.7944 54.7242 37.7877 54.8213C37.7551 55.2894 37.7741 55.6142 37.8378 55.784L37.8564 55.832C37.9801 56.1423 38.1622 56.4221 38.2143 56.4221C38.6379 56.4221 38.9962 56.5853 39.1888 56.8447C39.3926 57.1192 39.3658 57.4552 39.0888 57.6364C38.562 57.9811 37.6198 57.9865 36.8298 57.5408C36.5245 57.3685 36.3907 57.19 36.2655 56.8529L36.1983 56.6635C36.1757 56.6003 36.1565 56.5487 36.1358 56.4972C36.0831 56.3662 36.0244 56.2449 35.9498 56.1185C35.6906 55.6791 35.2426 55.1109 34.6068 54.4169C34.5411 54.3452 34.546 54.2337 34.6177 54.168Z" fill="#232440"/>
<path fill-rule="evenodd" clip-rule="evenodd" d="M37.8809 57.1538C37.8983 57.0955 37.9596 57.0624 38.0179 57.0798C38.1993 57.134 38.3277 57.1939 38.4061 57.265C38.4804 57.3325 38.5537 57.4362 38.629 57.5768C38.6576 57.6304 38.6374 57.6972 38.5838 57.7259C38.5301 57.7545 38.4634 57.7343 38.4347 57.6807C38.3704 57.5603 38.3105 57.4758 38.258 57.4281C38.2094 57.384 38.1074 57.3364 37.9549 57.2908C37.8966 57.2734 37.8634 57.2121 37.8809 57.1538Z" fill="#232440"/>
<path fill-rule="evenodd" clip-rule="evenodd" d="M38.2955 56.9741C38.3147 56.9164 38.377 56.8852 38.4347 56.9044C38.5901 56.9561 38.7056 57.0151 38.7823 57.0848C38.8584 57.1539 38.9314 57.2656 39.0054 57.4213C39.0314 57.4763 39.0081 57.542 38.9531 57.5681C38.8982 57.5941 38.8325 57.5707 38.8064 57.5158C38.7437 57.3837 38.685 57.2939 38.6342 57.2478C38.5841 57.2022 38.494 57.1563 38.3652 57.1134C38.3075 57.0942 38.2763 57.0318 38.2955 56.9741Z" fill="#232440"/>
<path fill-rule="evenodd" clip-rule="evenodd" d="M17.9822 38.336L17.9449 38.3617C17.827 38.4441 17.6 38.6098 17.55 38.6449L17.5448 38.6485C17.4153 38.7377 17.3278 38.7829 17.2594 38.7959C16.0512 39.0248 15.0078 39.281 14.2936 39.8218C13.2948 40.5779 12.7554 41.9002 13.4397 43.2309C13.9266 44.1778 15.7674 44.4146 16.8454 43.9025C17.0298 43.8149 17.2263 43.7052 17.4633 43.5602L17.5618 43.4994C17.5959 43.4781 17.6309 43.4561 17.6683 43.4325L17.9264 43.2679L18.2085 43.0871L18.3118 43.0218C19.3493 42.37 20.0084 42.0881 20.7114 42.0881C21.2924 42.0881 21.7013 42.2476 22.215 42.6245L22.2538 42.6532C22.343 42.7198 22.9218 43.1816 23.1173 43.3239C23.6238 43.6926 24.1238 43.9646 24.7447 44.177L24.7993 44.1952C25.7079 44.4892 27.4459 44.6541 30.0276 44.6951C30.0852 44.696 30.1397 44.6686 30.1734 44.6218L30.274 44.4829C30.4186 44.2845 30.5346 44.1317 30.6217 44.0248C30.7264 43.8964 30.8345 43.7787 30.9461 43.6717C31.0548 43.5676 30.9914 43.384 30.8417 43.3691L30.6864 43.3533C28.1665 43.0912 26.4702 42.6327 25.6076 41.9906L25.5447 41.9434C25.0847 41.5956 24.6453 41.203 23.9756 40.5605L23.1101 39.729C22.7679 39.403 22.6476 39.297 22.4079 39.0934L22.3703 39.0615C21.8099 38.5862 21.3236 38.2604 20.8519 38.066C20.7484 38.0233 20.6459 37.9872 20.5442 37.9578C19.4938 37.6543 18.7398 37.823 17.9822 38.336ZM20.4463 38.2964C20.5354 38.3221 20.6258 38.3539 20.7176 38.3918C21.1356 38.564 21.578 38.857 22.0909 39.2868L22.2916 39.4574C22.5125 39.6473 22.6654 39.7895 23.1745 40.2787L23.7783 40.8595C24.462 41.5141 24.9099 41.9106 25.3972 42.2733L25.4258 42.2943C26.311 42.9374 27.9191 43.3893 30.2583 43.6607L30.4496 43.6823L30.4469 43.6853C30.4248 43.7107 30.4029 43.7364 30.3811 43.7626L30.333 43.8212L30.2963 43.8673C30.2264 43.9556 30.1434 44.0653 30.047 44.1963L29.9412 44.3411L29.7271 44.3371C27.2987 44.2878 25.6715 44.1216 24.8588 43.8435C24.2961 43.651 23.8405 43.4076 23.38 43.0788L23.3247 43.0389C23.1371 42.9023 22.5605 42.4424 22.4647 42.3708C21.8765 41.9314 21.3921 41.7356 20.7114 41.7356C19.9223 41.7356 19.2168 42.037 18.1261 42.7222L17.9585 42.8285L17.599 43.059C17.4923 43.1271 17.408 43.1802 17.3261 43.2308L17.235 43.2865C17.0276 43.4121 16.8544 43.508 16.6942 43.5841C15.7804 44.0182 14.4606 43.6573 14.0652 42.8884C13.4604 41.7124 13.6732 40.8481 14.5374 40.1937C15.1976 39.6939 16.166 39.3617 17.325 39.1421C17.4463 39.1191 17.5632 39.0611 17.7157 38.9584L17.7448 38.9387C17.79 38.9075 18.0642 38.7072 18.1689 38.6352L18.1798 38.6278C18.8564 38.1695 19.5053 38.0244 20.4463 38.2964Z" fill="#232440"/>
<path fill-rule="evenodd" clip-rule="evenodd" d="M62.6474 43.0854L62.6308 43.1257L62.5973 43.2092C62.1639 44.3087 61.7813 45.9933 61.4473 48.2671L61.4278 48.4008L61.4267 48.3942C61.2973 47.6317 61.134 47.0393 60.9351 46.6149C60.5897 45.8776 60.0976 45.5993 59.516 45.8638C57.6286 46.7224 57.7412 50.2137 59.74 56.349C59.7665 56.4306 59.8426 56.4858 59.9284 56.4858H62.0983C62.1565 56.4858 62.2118 56.4602 62.2495 56.4158C64.959 53.2199 66.1724 51.0714 65.8758 49.891L65.8661 49.8536C65.5962 48.8381 64.9212 48.6205 63.9586 49.1662L63.9244 49.1858L63.9724 49.0753C65.6423 45.2068 65.9487 42.8248 64.8204 41.8964C63.9919 41.2149 63.236 41.6658 62.6474 43.0854ZM64.6008 42.0495C65.5942 42.8667 65.2411 45.543 63.3568 49.691C63.2706 49.8807 65.4913 48.3941 65.4913 49.9876L65.4985 50.0179C65.7122 50.9987 64.6088 52.9787 62.1758 55.8878L62.0063 56.0893L59.9285 56.2374C59.9285 56.2374 57.1273 46.9882 59.6802 46.2247C60.4148 46.005 60.9568 47.0719 61.2257 49.9577C61.2477 50.194 61.5909 50.199 61.6198 49.9634L61.6434 49.7733C62.0295 46.6868 62.4877 44.5056 63.0137 43.2372L63.0437 43.1657C63.535 42.0156 64.0458 41.5928 64.6008 42.0495Z" fill="#232440"/>
<path d="M64.5684 42.2027C65.5618 43.02 65.1593 45.5224 63.275 49.6704C63.1888 49.8601 63.416 50.0373 63.579 49.9074L63.6452 49.8553C64.7157 49.022 65.2646 49.0857 65.4913 49.9877L65.4984 50.0181C65.7121 50.9988 64.6087 52.9788 62.1758 55.8879L62.0062 56.0895H60.0725L60.0031 55.8734C58.1801 50.1597 58.1082 46.94 59.6801 46.2248C60.4053 45.895 60.9567 47.072 61.2256 49.9578C61.2476 50.1941 61.5908 50.1991 61.6197 49.9636L61.6433 49.7735C62.0295 46.687 62.4877 44.5057 63.0136 43.2374L63.0437 43.1658C63.5349 42.0157 64.0134 41.7461 64.5684 42.2027Z" fill="white"/>
<circle cx="59.4028" cy="48.7524" r="0.70484" fill="#E7EAEE"/>
<ellipse cx="63.8081" cy="44.171" rx="0.704838" ry="0.704836" fill="#E7EAEE"/>
<ellipse cx="64.1604" cy="50.9551" rx="0.70484" ry="0.704842" fill="#E7EAEE"/>
<path fill-rule="evenodd" clip-rule="evenodd" d="M26.8021 56.9756C25.5579 56.9952 21.2794 57.3123 21.2055 57.1535C21.111 56.9504 25.7767 56.6834 26.7937 56.6673L27.1122 56.663C28.0369 56.653 26.8021 56.9756 26.8021 56.9756ZM45.1034 56.5632C45.2128 56.5603 45.3039 56.6467 45.3068 56.7562C45.3097 56.8656 45.2233 56.9567 45.1138 56.9596L43.343 57.0033C42.2409 57.0286 40.9634 57.0549 39.0757 57.092C38.9662 57.0942 38.8757 57.0072 38.8736 56.8977C38.8714 56.7883 38.9584 56.6978 39.0679 56.6956L42.4105 56.6275C43.4254 56.6055 44.2407 56.586 45.1034 56.5632ZM49.6708 56.4708C49.7803 56.4691 49.8704 56.5564 49.8721 56.6659C49.8739 56.7754 49.7865 56.8655 49.677 56.8672L49.2125 56.8729L47.7913 56.8827C47.4936 56.8858 47.2607 56.8899 46.9861 56.8966C46.8766 56.8993 46.7857 56.8127 46.783 56.7033C46.7804 56.5938 46.8669 56.5029 46.9764 56.5002L47.326 56.4927C47.5549 56.4885 47.7875 56.4859 48.0965 56.4836L49.2784 56.4758C49.4158 56.4745 49.5402 56.4729 49.6708 56.4708ZM62.5183 56.0903C62.5183 56.0903 62.8742 56.0288 65.4727 56.2234C65.5818 56.2316 65.6637 56.3267 65.6555 56.4359C65.6474 56.545 64.3624 56.4899 62.6058 56.4868L62.1227 56.4876C60.8328 56.4933 59.6346 56.5282 57.6458 56.6101L55.1357 56.7161C54.0646 56.76 53.4255 56.7813 52.6484 56.7997C52.539 56.8023 52.4482 56.7156 52.4456 56.6062C52.443 56.4967 52.5296 56.4059 52.6391 56.4033L53.2631 56.387C54.0054 56.3656 54.7683 56.3357 56.1207 56.2779L57.5548 56.217C59.7972 56.1243 61.0441 56.0903 62.5183 56.0903Z" fill="#232440"/>
<path d="M56.5117 27.5537L56.5571 27.4702C56.9126 26.8263 57.2222 26.5067 57.5833 26.611C57.6126 26.6194 57.6413 26.631 57.6694 26.6455C57.8907 26.7602 57.9438 26.9736 57.8817 27.2646L57.8777 27.2826L57.8881 27.2676C57.993 27.1187 58.093 27.0036 58.1966 26.9183L58.2189 26.9004C58.4495 26.721 58.694 26.7043 58.9154 26.8913C59.269 27.1898 59.2289 27.6904 58.9402 27.9986L58.9242 28.0152C58.8841 28.0557 58.8599 28.1435 58.833 28.3502L58.8097 28.5312C58.7817 28.7401 58.7629 28.8317 58.7188 28.9732C58.6356 29.2405 58.4991 29.4634 58.2867 29.6455C58.0196 29.8743 57.5689 29.8424 56.9341 29.5815C56.8659 29.5535 56.8333 29.4755 56.8614 29.4073C56.8894 29.3391 55.9709 28.5291 55.9431 28.5646L55.9342 28.5749C55.8831 28.6281 55.7986 28.6298 55.7454 28.5787L55.6164 28.4544C55.5387 28.3795 55.5774 28.2481 55.6833 28.2273C55.8774 28.1892 56.0279 28.1472 56.1337 28.1024C56.2226 28.0647 56.271 28.0286 56.2826 28.0053C56.2826 28.0053 56.4754 27.6212 56.5117 27.5537Z" fill="white"/>
<path fill-rule="evenodd" clip-rule="evenodd" d="M55.559 28.2406C55.334 28.2237 55.2017 28.3948 55.2017 28.6019C55.2017 29.3188 56.3729 30.2991 57.1361 30.2991C57.3598 30.2991 57.5428 30.1391 57.4778 29.8945C57.4533 29.8024 57.397 29.7206 57.3045 29.6198L57.2842 29.5979C57.1803 29.4875 57.0728 29.389 56.8319 29.1817L56.4629 28.8654C56.3724 28.7871 56.2284 28.6621 56.1849 28.6249L56.1325 28.5804C56.0316 28.4953 55.9536 28.4334 55.884 28.3842C55.7609 28.2972 55.6655 28.2486 55.559 28.2406ZM55.4686 28.6019C55.4686 28.3216 55.8702 28.7091 56.3535 29.1238L56.6746 29.3985C57.0677 29.7374 57.5475 30.0899 57.3045 30.1158C56.5348 30.1977 55.4686 29.177 55.4686 28.6019Z" fill="#232440"/>
<path fill-rule="evenodd" clip-rule="evenodd" d="M55.6206 26.3619C55.6758 26.313 55.9514 26.1206 55.8091 26.3733C55.6667 26.6259 54.8439 26.9464 55.6667 28.2242C55.698 28.2728 55.6599 28.3704 55.5913 28.3973C55.5226 28.4242 55.4451 28.3905 55.4182 28.3218C55.2101 27.7919 55.1139 27.4083 55.1323 27.159C55.1519 26.8947 55.3177 26.6304 55.6206 26.3619Z" fill="#232440"/>
<path fill-rule="evenodd" clip-rule="evenodd" d="M54.5925 26.8068C54.607 26.7345 54.7496 26.5556 54.7496 26.7022C54.7496 26.8487 54.54 27.2204 54.835 27.6393C55.1301 28.0581 55.6377 28.3422 55.5943 28.4018C55.5509 28.4614 55.4674 28.4745 55.4078 28.4311C54.9806 28.1199 54.7212 27.8765 54.6235 27.6856C54.5216 27.4865 54.5146 27.1952 54.5925 26.8068Z" fill="#232440"/>
<path fill-rule="evenodd" clip-rule="evenodd" d="M56.5117 27.5537L56.5571 27.4702C56.9126 26.8263 57.2222 26.5067 57.5833 26.611C57.6126 26.6194 57.6413 26.631 57.6694 26.6455C57.8907 26.7602 57.9438 26.9736 57.8817 27.2646L57.8777 27.2826L57.8881 27.2676C57.993 27.1187 58.093 27.0036 58.1966 26.9183L58.2189 26.9004C58.4495 26.721 58.694 26.7043 58.9154 26.8913C59.269 27.1898 59.2289 27.6904 58.9402 27.9986L58.9242 28.0152C58.8841 28.0557 58.8599 28.1435 58.833 28.3502L58.8097 28.5312C58.7817 28.7401 58.7629 28.8317 58.7188 28.9732C58.6356 29.2405 58.4991 29.4634 58.2867 29.6455C58.0196 29.8743 57.5689 29.8424 56.9341 29.5815C56.8659 29.5535 56.8333 29.4755 56.8614 29.4073C56.8894 29.3391 57.8506 29.8976 58.2189 29.4634C58.5873 29.0292 58.627 28.131 58.7332 27.8588L58.7589 27.8114C58.9626 27.6055 58.9694 27.2863 58.7432 27.0953C58.6264 26.9968 58.5206 27.004 58.3829 27.1112C58.2575 27.2088 58.1268 27.3764 57.976 27.6204L57.9319 27.6931C57.8577 27.8183 57.7091 28.0777 57.6894 28.1107L57.6623 28.1556C57.5708 28.305 57.4542 28.3986 57.4369 28.4026C57.4197 28.4066 57.3951 28.3927 57.389 28.2664C57.387 28.2248 57.3975 28.183 57.4197 28.1261L57.4285 28.104C57.4553 28.0388 57.6028 27.7324 57.6129 27.7104C57.6576 27.6139 57.6936 27.5298 57.7234 27.4505C57.8435 27.1307 57.6648 26.9439 57.5465 26.8826C57.5338 26.876 57.5214 26.871 57.5092 26.8675C57.3259 26.8145 57.0707 27.0868 56.7728 27.6321L56.7083 27.7528C56.6605 27.8439 56.6138 27.9375 56.522 28.1235C56.4552 28.2587 56.2771 28.3557 55.98 28.4339L55.9637 28.438L55.9651 28.4419C55.9782 28.4829 55.9709 28.5291 55.9431 28.5646L55.9342 28.5749C55.8831 28.6281 55.7986 28.6298 55.7454 28.5787L55.6164 28.4544C55.5387 28.3795 55.5774 28.2481 55.6833 28.2273C55.8774 28.1892 56.0279 28.1472 56.1337 28.1024C56.2226 28.0647 56.271 28.0286 56.2826 28.0053L56.4074 27.7542C56.4457 27.6783 56.4754 27.6212 56.5117 27.5537Z" fill="#232440"/>
<ellipse cx="58.2635" cy="27.962" rx="0.303335" ry="0.248697" fill="#FFB61D"/>
<ellipse cx="57.3968" cy="27.2686" rx="0.303331" ry="0.248689" fill="#FFB61D"/>
<path fill-rule="evenodd" clip-rule="evenodd" d="M55.5318 29.0129C55.4894 28.9754 55.4366 28.9077 55.3899 28.8344L55.3299 28.8611L55.2589 28.8915C55.2446 28.898 55.2354 28.9031 55.2326 28.9072C55.2244 28.9225 55.2055 28.9283 55.1901 28.9202C55.1751 28.9121 55.1691 28.8932 55.1772 28.878C55.1829 28.8636 55.2227 28.8182 55.2968 28.7739C55.3102 28.7659 55.3251 28.7584 55.341 28.7511C55.3137 28.7 55.2922 28.6506 55.2821 28.6111C55.2669 28.5527 55.2791 28.5113 55.2991 28.4968C55.3187 28.4824 55.368 28.4797 55.443 28.542C55.4568 28.5525 55.4589 28.5721 55.4485 28.5858C55.438 28.5994 55.4185 28.6019 55.4047 28.5914C55.3904 28.5809 55.376 28.5749 55.3643 28.5706L55.37 28.5929C55.3722 28.6009 55.375 28.6092 55.3788 28.6174C55.3922 28.6468 55.4093 28.6803 55.4285 28.7148C55.4872 28.6926 55.5539 28.6726 55.6259 28.6629C55.6611 28.6582 55.6969 28.6572 55.7341 28.6575C55.7554 28.6561 55.774 28.6724 55.7754 28.6938C55.7768 28.7152 55.7605 28.7337 55.7392 28.7351C55.6525 28.7435 55.5723 28.7654 55.5016 28.79L55.4784 28.7984C55.5167 28.8582 55.5577 28.9126 55.5928 28.9432C55.6119 28.9601 55.6138 28.9894 55.5971 29.0086C55.58 29.0279 55.5508 29.0298 55.5318 29.0129Z" fill="#FFB61D"/>
<path fill-rule="evenodd" clip-rule="evenodd" d="M35.1515 52.8568C34.9323 53.8895 33.8746 54.1823 33.886 55.0137C33.8919 55.4437 34.0106 55.8004 34.1081 56.0748C34.3064 56.6325 34.8229 57.207 35.0621 57.7389C35.2665 58.1935 36.2923 57.886 36.3742 58.5925C36.4188 58.9773 35.6932 59.199 35.4957 59.214C35.2122 59.2355 34.8529 59.1381 34.4178 58.9219C33.8885 58.6648 33.4637 58.4622 33.1562 58.0917C33.0962 58.0194 33.0585 57.8154 32.9922 57.4947C32.9196 57.1437 32.6717 56.2514 32.0238 54.8107C31.9313 54.6049 31.5772 53.7629 31.1833 52.9016C30.8583 52.1908 32.2016 50.767 32.7972 50.8168C34.2602 50.9392 35.3063 52.1273 35.1515 52.8568Z" fill="white"/>
<path fill-rule="evenodd" clip-rule="evenodd" d="M34.1257 58.9371C33.7615 58.7203 33.462 58.4704 33.2271 58.1875C33.1671 58.1152 33.123 57.849 33.0567 57.5283C33.0219 57.3601 31.7574 54.3266 31.3404 53.1848C31.2625 52.9717 31.4515 53.1208 31.4958 53.1848C31.7378 53.5335 33.2271 55.8336 33.9386 57.9646" fill="#E7EAEE"/>
<path fill-rule="evenodd" clip-rule="evenodd" d="M34.4096 58.8466L34.4638 58.8733C34.8731 59.0767 35.2034 59.1662 35.45 59.1475C35.7149 59.1274 36.1473 58.8885 36.1664 58.6852C36.1971 58.3587 36.1087 58.2661 35.6719 58.1011C35.5453 58.0533 35.2028 58.0638 34.6749 58.1437C34.5787 58.1582 34.4889 58.092 34.4743 57.9958C34.4597 57.8996 34.5259 57.8098 34.6222 57.7952L34.709 57.7824C35.2489 57.7051 35.6027 57.6983 35.7965 57.7715L35.8539 57.7937C36.3781 58.001 36.5645 58.2153 36.5173 58.7182C36.4772 59.1443 35.8923 59.4674 35.4766 59.4989C35.1666 59.5224 34.793 59.4246 34.3526 59.2113L34.3084 59.1896C33.7576 58.9221 33.3191 58.5932 32.9946 58.2023C32.9518 58.1508 32.9245 58.0822 32.8965 57.9769L32.89 57.952C32.8796 57.9111 32.8692 57.8658 32.8571 57.809L32.7872 57.4662L32.7765 57.4162C32.6615 56.9016 32.3286 55.9517 31.8243 54.8233L31.7474 54.6535C31.7 54.5502 31.0236 53.454 30.9731 53.1971C30.7844 52.2367 31.5563 51.761 31.5563 51.761C31.5563 51.761 31.1559 52.6057 31.2687 53.0209C31.3565 53.3437 32.0967 54.4546 32.36 55.3062C32.6325 56.1876 32.9177 57.128 33.3343 57.8968C33.6488 58.4773 33.874 58.7403 34.4096 58.8466Z" fill="#232440"/>
<path fill-rule="evenodd" clip-rule="evenodd" d="M35.2642 58.649C35.2816 58.5907 35.3429 58.5576 35.4012 58.575C35.5826 58.6292 35.711 58.6891 35.7894 58.7603C35.8637 58.8278 35.937 58.9314 36.0123 59.072C36.0409 59.1257 36.0207 59.1924 35.9671 59.2211C35.9134 59.2498 35.8467 59.2295 35.818 59.1759C35.7537 59.0556 35.6938 58.9711 35.6413 58.9233C35.5927 58.8792 35.4907 58.8316 35.3382 58.7861C35.2799 58.7687 35.2468 58.7073 35.2642 58.649Z" fill="#232440"/>
<path fill-rule="evenodd" clip-rule="evenodd" d="M35.5718 58.3092C35.591 58.2515 35.6534 58.2203 35.7111 58.2395C35.8665 58.2912 35.982 58.3501 36.0587 58.4199C36.1348 58.489 36.2078 58.6007 36.2817 58.7564C36.3078 58.8114 36.2844 58.8771 36.2295 58.9031C36.1745 58.9292 36.1088 58.9058 36.0827 58.8509C36.0201 58.7188 35.9613 58.629 35.9106 58.5829C35.8604 58.5373 35.7704 58.4914 35.6416 58.4485C35.5838 58.4293 35.5526 58.3669 35.5718 58.3092Z" fill="#232440"/>
<path fill-rule="evenodd" clip-rule="evenodd" d="M34.4691 51.2113C34.8565 51.3672 35.6185 52.2311 35.5007 52.7163C35.3788 53.2181 35.2 53.4185 34.9155 53.7512L34.8858 53.7855C34.799 53.8842 34.4407 54.2482 34.4265 54.2635L34.3925 54.3009C34.0732 54.6612 33.9428 55.0596 34.2025 55.7939C34.3927 56.3318 34.7057 56.9432 35.1377 57.5262C35.1947 57.6031 35.3365 57.829 35.2595 57.886C35.1826 57.943 35.0006 57.7588 34.9436 57.6819C34.4922 57.0726 34.1648 56.482 33.9623 55.9095C33.6564 55.0447 33.7302 54.6883 34.1524 54.2227L34.1793 54.1937C34.2245 54.1466 34.535 53.8309 34.6172 53.7392L34.6254 53.7299C34.8907 53.4281 35.0655 53.1085 35.1778 52.6465C35.2553 52.3272 34.9293 51.7603 34.2403 51.3002C33.783 50.9948 34.0816 51.0555 34.4691 51.2113Z" fill="#232440"/>
</svg>
