<svg width="80" height="80" viewBox="0 0 80 80" fill="none" xmlns="http://www.w3.org/2000/svg">
<rect opacity="0.1" width="80" height="80" rx="10" fill="#64FCD9"/>
<path fill-rule="evenodd" clip-rule="evenodd" d="M35.626 18.6705C34.2506 19.7191 33.0988 21.0217 32.2296 22.5046C30.8054 22.2203 29.2707 22.1598 27.7168 22.3824C28.1068 20.6881 28.9059 19.0934 30.0603 17.7613C30.329 17.4528 30.7268 17.2873 31.135 17.3167C32.7236 17.4294 34.2576 17.9 35.626 18.6705ZM39.5 26.6551C40.876 25.1346 42.486 24.0222 44.1982 23.2958C43.179 21.7679 41.7698 20.5121 40.0816 19.668C39.7158 19.4851 39.2842 19.4851 38.9185 19.668C37.2302 20.5121 35.821 21.7679 34.8018 23.2958C36.5142 24.0222 38.124 25.1347 39.5 26.6551ZM47.7897 39.4999C48.977 38.908 50.0664 38.1263 51.0163 37.1764C53.8824 34.3095 54.886 30.0688 53.6024 26.2191C53.4733 25.8317 53.1682 25.5266 52.7808 25.3975C48.9346 24.1157 44.6931 25.115 41.8236 27.9836C40.8737 28.9335 40.0911 30.0229 39.5 31.2111C38.909 30.0229 38.1264 28.9335 37.1765 27.9836C34.3096 25.1176 30.069 24.114 26.2192 25.3975C25.831 25.5266 25.5268 25.8317 25.3976 26.2191C24.1158 30.0654 25.1151 34.3069 27.9838 37.1764C28.9328 38.1254 30.023 38.908 31.2104 39.4999C30.023 40.0919 28.9336 40.8736 27.9838 41.8234C25.1177 44.6904 24.1141 48.931 25.3976 52.7807C25.5268 53.1681 25.8318 53.4732 26.2192 53.6023C30.0655 54.8841 34.307 53.8848 37.1765 51.0162C38.1264 50.0663 38.909 48.9769 39.5 47.7887C40.0911 48.9769 40.8737 50.0663 41.8236 51.0162C44.7061 53.8987 48.9519 54.8789 52.7808 53.6023C53.1691 53.4732 53.4733 53.1681 53.6024 52.7807C54.8842 48.9345 53.885 44.693 51.0163 41.8234C50.0673 40.8745 48.977 40.0919 47.7897 39.4999ZM58.8631 40.0814C58.0848 41.638 56.9573 42.9562 55.5888 43.952C54.8535 42.3121 53.7774 40.7964 52.3449 39.4999C53.7192 38.2562 54.8218 36.7589 55.588 35.047C56.9564 36.0428 58.0848 37.3619 58.8631 38.9184C59.046 39.2841 59.046 39.7157 58.8631 40.0814ZM23.4121 43.9528C24.1783 42.2409 25.2809 40.7436 26.6552 39.4999C25.2227 38.2036 24.1466 36.6876 23.4112 35.0478C22.0428 36.0437 20.9152 37.3619 20.137 38.9184C19.9541 39.2841 19.9541 39.7157 20.137 40.0814C20.9152 41.638 22.0436 42.9571 23.4121 43.9528ZM44.2156 55.7109C43.2024 57.186 41.8227 58.3993 40.1769 59.2226C39.8201 59.4002 39.3915 59.4102 39.0147 59.2226C37.3455 58.3881 35.9493 57.1513 34.9327 55.6468C36.6554 54.8946 38.2024 53.7786 39.5 52.3448C40.8782 53.8676 42.4933 54.9822 44.2156 55.7109ZM61.2386 49.4484C59.884 50.6227 58.2573 51.4287 56.5309 51.8109C56.8542 50.0637 56.8247 48.2663 56.4382 46.5191C57.7919 45.6576 58.9827 44.5535 59.949 43.2561C60.9448 44.7745 61.5524 46.5381 61.6832 48.3737C61.7127 48.7819 61.5472 49.1797 61.2386 49.4484ZM48.9398 61.2385C50.095 59.9064 50.8932 58.3109 51.2832 56.6166C49.8016 56.8309 48.2653 56.7894 46.7982 56.4996C45.9108 57.9799 44.7399 59.2755 43.3454 60.3138C44.7208 61.0938 46.2661 61.5696 47.8651 61.6831C47.8963 61.6857 47.9266 61.6866 47.9578 61.6866C48.3331 61.6866 48.6919 61.5245 48.9398 61.2385ZM31.135 61.6831C32.7773 61.5661 34.3616 61.0678 35.7638 60.2514C34.3945 59.2166 33.2453 57.9313 32.3726 56.4667C30.862 56.7836 29.269 56.8419 27.7168 56.6175C28.1068 58.3118 28.9059 59.9064 30.0603 61.2385C30.3082 61.5245 30.667 61.6866 31.0422 61.6866C31.0734 61.6866 31.1038 61.6857 31.135 61.6831ZM51.2832 22.3824C49.7295 22.1598 48.1948 22.2203 46.7705 22.5046C45.9012 21.0217 44.7494 19.7191 43.374 18.6705C44.7425 17.9 46.2765 17.4294 47.8651 17.3167C48.2733 17.2873 48.6711 17.4528 48.9398 17.7613C50.0942 19.0934 50.8932 20.6881 51.2832 22.3824ZM17.7614 49.6105C19.1247 50.7926 20.7627 51.6012 22.5021 51.9799C22.1442 50.1799 22.1632 48.3217 22.5628 46.5191C21.235 45.6749 20.0642 44.5977 19.1082 43.3323C18.0786 44.8698 17.4494 46.6655 17.3168 48.5358C17.2874 48.944 17.4529 49.3418 17.7614 49.6105ZM61.6832 30.6261C61.5524 32.4617 60.9448 34.2254 59.949 35.7438C58.9827 34.4455 57.7919 33.3423 56.4373 32.4808C56.8238 30.7345 56.8542 28.9361 56.5309 27.1889C58.2573 27.5711 59.884 28.3771 61.2386 29.5515C61.5472 29.8201 61.7127 30.2179 61.6832 30.6261ZM19.051 35.7438C20.0174 34.4464 21.2082 33.3423 22.5619 32.4808C22.1754 30.7336 22.1468 28.9353 22.4692 27.1889C20.7428 27.5711 19.116 28.3771 17.7614 29.5515C17.4529 29.8201 17.2874 30.2179 17.3168 30.6261C17.4477 32.4617 18.0552 34.2254 19.051 35.7438ZM35.6 39.4999C35.6 37.3497 37.3498 35.5999 39.5 35.5999C41.6502 35.5999 43.4 37.3497 43.4 39.4999C43.4 41.6501 41.6502 43.3999 39.5 43.3999C37.3498 43.3999 35.6 41.6501 35.6 39.4999ZM38.2 39.4999C38.2 40.2175 38.7824 40.7999 39.5 40.7999C40.2176 40.7999 40.8 40.2175 40.8 39.4999C40.8 38.7823 40.2176 38.1999 39.5 38.1999C38.7824 38.1999 38.2 38.7823 38.2 39.4999Z" fill="#64FCD9"/>
<path d="M29.3863 59.1453C27.8429 59.1575 26.6296 59.2262 25.6024 59.371C23.1326 59.7192 21.6642 60.5368 21.0137 62.0792C20.6817 62.8665 20.8416 63.547 21.4513 64.0769C21.9748 64.5319 22.8265 64.876 23.9857 65.1279L24.0504 65.1418C26.0336 65.5627 28.8493 65.7151 32.42 65.6615L32.6396 65.658C34.317 65.6291 36.037 65.5602 38.1072 65.4489L40.1683 65.3321C40.8925 65.2903 41.6386 65.2474 41.9042 65.2332L42.2634 65.2147C43.0264 65.1767 43.5182 65.1626 43.8217 65.1721L44.1621 65.185C49.0827 65.3651 52.9228 65.1191 55.3933 64.539C56.5203 64.2744 57.3265 63.9463 57.7774 63.573C58.2657 63.1686 58.35 62.6819 57.988 62.2521C56.8586 60.9113 55.005 60.1537 52.0102 59.7499L51.8554 59.7294C49.3672 59.4066 46.2724 59.3074 40.3913 59.3035L39.545 59.3027C38.4006 59.2994 37.305 59.2837 35.8507 59.2526L32.2732 59.1712C31.2025 59.1489 30.6002 59.1419 29.9291 59.1429L29.3863 59.1453Z" fill="white"/>
<ellipse cx="39.5272" cy="63.5274" rx="18.4667" ry="1.92756" fill="#E7EAEE"/>
<path fill-rule="evenodd" clip-rule="evenodd" d="M43.3149 49.8413C43.6502 49.9005 43.8798 49.573 44.3989 48.4809L44.4371 48.4017L44.4749 48.3262C45.0936 47.1096 45.8091 46.7217 46.6213 47.1627L46.9473 46.2007L46.8378 46.1504L46.7325 46.1029C45.0462 45.3494 44.1355 45.3036 44.0002 45.9655L43.9869 46.0378L43.9757 46.0961C43.8766 46.6007 43.6346 47.5724 43.4596 48.3997L43.4301 48.5409C43.2839 49.2499 43.1984 49.8208 43.3149 49.8413Z" fill="white"/>
<path fill-rule="evenodd" clip-rule="evenodd" d="M39.7239 40.0844C39.7239 40.0844 42.1891 40.4111 43.4359 40.3545C44.6828 40.2979 46.5062 39.7765 46.5062 39.7765L46.4629 41.3509C46.4629 41.3509 52.2796 41.2335 51.4012 45.9984C50.8227 49.1368 46.3959 47.8463 46.3959 47.8463L47.2425 45.9984C47.2425 45.9984 49.8978 46.1905 48.9309 45.3827C48.7515 45.2328 47.6048 45.026 46.0959 45.0664C44.7998 45.1011 43.674 44.7128 43.5568 44.3641C43.1177 43.0571 43.7554 42.3696 43.7554 42.3696C43.7554 42.3696 43.1385 42.6698 43.2555 43.3998C43.3726 44.1299 42.5105 59.0766 42.5105 59.0766C42.5105 59.0766 41.7306 59.2148 41.3383 59.2148C40.9461 59.2148 40.4062 59.0766 40.4062 59.0766L39.7239 40.0844Z" fill="white"/>
<path fill-rule="evenodd" clip-rule="evenodd" d="M39.7239 40.0844C39.7239 40.0844 41.0242 59.1999 40.8431 59.1699C40.7066 59.1473 40.4062 59.0766 40.4062 59.0766L39.7239 40.0844Z" fill="#E7EAEE"/>
<path fill-rule="evenodd" clip-rule="evenodd" d="M40.7947 59.3711C40.8801 60.1232 40.7203 60.4247 40.7414 60.4247C41.0899 60.4247 41.298 60.4177 41.857 60.3742C41.857 60.3742 41.8257 60.0503 41.8257 59.8979C41.8257 59.7159 41.857 59.3711 41.857 59.3711H40.7947Z" fill="white"/>
<path d="M39.9333 22.6906C39.9333 22.6906 38.6333 23.1788 38.6333 22.2599C38.6333 21.341 39.6362 21.7991 39.6362 21.7991" fill="white"/>
<path d="M45.6533 22.7865C45.9262 22.8472 46.78 23.3796 46.78 22.0905C46.78 21.4753 45.805 21.9196 45.805 21.9196" fill="white"/>
<path d="M42.5509 17.41C41.4769 17.5142 39.2261 18.5355 39.6359 21.4533C39.9536 23.7152 41.6454 26.1533 42.685 26.1533C43.7057 26.1533 45.4241 24.1009 45.6736 22.0801C46.1832 17.9533 43.625 17.3058 42.5509 17.41Z" fill="white"/>
<path fill-rule="evenodd" clip-rule="evenodd" d="M42.5908 19.498C42.6478 19.3656 42.8324 19.3567 42.9018 19.4832C43.2562 20.128 43.6532 20.5773 44.09 20.8345C44.5311 21.0942 45.0515 21.1199 45.5824 20.8818C45.6698 20.8427 45.7723 20.8817 45.8115 20.9691C45.8507 21.0564 45.8116 21.159 45.7243 21.1981C45.0916 21.4818 44.4527 21.4504 43.9141 21.1332C43.4944 20.8861 43.1163 20.4933 42.7784 19.9569L42.766 19.937L42.7548 19.9587C42.4819 20.4768 42.1297 20.8907 41.6986 21.1981L41.6552 21.2285C41.1124 21.6021 40.4754 21.7682 39.7502 21.7272C39.6547 21.7219 39.5816 21.64 39.587 21.5444C39.5923 21.4488 39.6742 21.3757 39.7698 21.3811C40.4202 21.4178 40.9811 21.2716 41.4587 20.9429C41.9409 20.6111 42.3181 20.1308 42.5908 19.498Z" fill="#E7EAEE"/>
<path fill-rule="evenodd" clip-rule="evenodd" d="M48.1343 36.1004C48.0298 38.0674 47.2948 38.9021 46.3764 39.0219C46.2544 39.0379 46.4252 39.7389 46.3189 39.8308C45.7136 40.3544 44.6464 40.377 42.9731 40.3922C41.4583 40.406 40.4814 40.2837 39.8025 40.0054C39.7506 39.9841 39.7973 39.1018 39.7436 39.0971C38.8931 39.0219 37.9134 38.2671 37.6754 36.2144C36.8694 29.2645 39.2936 27.9212 41.6009 26.8139C41.726 26.7538 41.7941 26.6492 41.9184 26.5897C42.1807 26.4642 42.1123 26.7531 42.7085 26.7531C43.3047 26.7531 43.3047 26.5267 43.5732 26.6549C43.6734 26.7028 43.6899 27.0018 43.7897 27.0544C46.1508 28.3003 48.4232 30.6639 48.1343 36.1004Z" fill="white"/>
<path fill-rule="evenodd" clip-rule="evenodd" d="M43.7898 27.0545C46.9078 28.1829 48.356 31.1982 48.1345 36.1005C47.8689 41.9782 41.1933 36.7164 43.4188 31.6529C43.949 30.4465 44.6456 35.5542 44.6532 35.5758C44.8307 36.078 45.3729 36.4676 45.9212 36.6758C45.9212 36.6758 46.1666 33.1356 45.74 31.4664C45.3388 29.8964 43.7898 27.0545 43.7898 27.0545Z" fill="white"/>
<path fill-rule="evenodd" clip-rule="evenodd" d="M41.782 25.8932C41.782 25.8932 41.8695 26.1559 41.8391 26.3182C41.8087 26.4805 41.6227 26.7432 41.6227 26.7432C41.6227 26.7432 36.4467 28.322 37.6453 36.2016C38.9786 41.916 43.6532 38.1998 42.8421 33.6433C42.8084 30.2599 42.0425 31.4054 41.4671 35.1338C41.3263 36.0458 39.5965 36.3049 39.5965 36.3049" fill="white"/>
<ellipse cx="44.2232" cy="23.6833" rx="0.476662" ry="0.390002" fill="#FFB61D"/>
<ellipse cx="41.3631" cy="23.6833" rx="0.476667" ry="0.390002" fill="#FFB61D"/>
<path d="M41.8441 24.2093C41.8648 24.1158 42.2915 24.1892 42.4115 24.3488L42.4486 24.3983C42.5604 24.5466 42.6286 24.5933 42.7729 24.5933C42.9572 24.5933 43.02 24.5603 43.1248 24.423L43.1528 24.3854C43.2745 24.2187 43.7038 24.0977 43.7364 24.1877C43.7689 24.2777 43.7224 24.3771 43.6324 24.4097C43.5649 24.4341 43.5265 24.4661 43.4607 24.5523L43.4298 24.5939C43.2499 24.8403 43.1002 24.94 42.7729 24.94C42.5071 24.94 42.3531 24.8404 42.1888 24.6293L42.1344 24.5572L42.1099 24.5252C42.0557 24.4567 42.0227 24.429 41.9843 24.418L41.976 24.4159C41.8825 24.3953 41.8235 24.3028 41.8441 24.2093Z" fill="#232440"/>
<path d="M42.1809 21.6321C41.9744 21.569 41.7861 21.5509 41.6772 21.5641C41.56 21.5783 41.4119 21.6387 41.2752 21.6945C41.1658 21.7391 41.0637 21.7807 40.9908 21.7932C40.9184 21.8057 40.8096 21.8016 40.7037 21.7977C40.5698 21.7927 40.4404 21.7879 40.3942 21.8167C40.3114 21.8684 40.435 21.9518 40.5072 21.9614C40.7569 21.9944 40.9388 22.0023 41.0593 21.983C41.1662 21.9659 41.2627 21.9363 41.3938 21.886L41.5306 21.8339C41.6216 21.8001 41.6451 21.7946 41.6772 21.7939L41.6998 21.794C41.7914 21.7962 41.9265 21.8237 42.1017 21.8773C42.1713 21.8986 42.2454 21.8609 42.2672 21.7932C42.2891 21.7255 42.2504 21.6534 42.1809 21.6321Z" fill="#232440"/>
<path d="M42.6918 23.4922C42.7896 23.2065 42.8463 21.7995 42.7386 21.7984C42.6309 21.7972 42.5427 21.8836 42.5416 21.9913C42.54 22.1427 42.541 22.288 42.5419 22.4241C42.5446 22.8328 42.5467 23.1598 42.4784 23.3269L42.4638 23.3615C42.3755 23.5805 42.3508 23.7669 42.5867 23.8105C42.7276 23.8366 43.3601 23.4778 43.3236 23.3765C43.2872 23.2751 43.1755 23.2225 43.0742 23.259L43.0476 23.2684C42.9874 23.2895 42.9087 23.3554 42.8379 23.4146C42.775 23.4673 42.7182 23.5148 42.6861 23.5211L42.6811 23.5221L42.6918 23.4922Z" fill="#232440"/>
<path d="M43.4925 21.6321C43.699 21.569 43.8873 21.5509 43.9961 21.5641C44.1133 21.5783 44.2615 21.6387 44.3981 21.6945C44.5076 21.7391 44.6096 21.7807 44.6826 21.7932C44.755 21.8057 44.8637 21.8016 44.9696 21.7977C45.1035 21.7927 45.233 21.7879 45.2792 21.8167C45.3619 21.8684 45.2384 21.9518 45.1662 21.9614C44.9164 21.9944 44.7346 22.0023 44.614 21.983C44.5071 21.9659 44.4106 21.9363 44.2796 21.886L44.1427 21.8339C44.0517 21.8001 44.0283 21.7946 43.9961 21.7939L43.9736 21.794C43.882 21.7962 43.7468 21.8237 43.5716 21.8773C43.5021 21.8986 43.428 21.8609 43.4061 21.7932C43.3843 21.7255 43.4229 21.6534 43.4925 21.6321Z" fill="#232440"/>
<path d="M44.6083 22.612C44.6627 22.519 44.6316 22.3996 44.5387 22.3451C44.5059 22.3259 44.4799 22.3624 44.4405 22.4176C44.3682 22.5191 44.2507 22.6838 43.9634 22.6838C43.6738 22.6838 43.5551 22.5175 43.4828 22.4163C43.4443 22.3624 43.419 22.327 43.3881 22.3451C43.2952 22.3996 43.264 22.519 43.3185 22.612C43.4559 22.8464 43.6795 22.9683 43.9634 22.9683C44.2473 22.9683 44.4709 22.8464 44.6083 22.612Z" fill="#232440"/>
<path d="M42.1189 22.3494C42.2095 22.4077 42.2356 22.5284 42.1773 22.6189C42.028 22.8507 41.7894 22.9683 41.486 22.9683C41.1804 22.9683 40.9442 22.8486 40.8052 22.6122C40.7506 22.5194 40.7297 22.3941 40.8745 22.3453C40.9378 22.3239 41.0019 22.3857 41.0812 22.462C41.1833 22.5603 41.3105 22.6829 41.4933 22.6829C41.8392 22.6829 41.9617 22.5095 42.0316 22.4106C42.0668 22.3608 42.0886 22.3299 42.1189 22.3494Z" fill="#232440"/>
<path fill-rule="evenodd" clip-rule="evenodd" d="M42.7366 13.4541C41.644 13.649 40.8071 14.4769 40.6436 15.6999C40.6358 15.758 40.6307 15.8147 40.6283 15.87C40.4389 15.9294 39.878 16.1105 39.8934 16.167C39.9077 16.2196 40.4052 16.1013 40.6294 16.0452C40.6619 16.5814 40.9649 16.9658 41.4753 17.201C41.6052 17.2608 41.7449 17.31 41.8932 17.3496C41.3657 17.5158 40.8265 17.8197 40.4005 18.2374C39.6134 19.009 39.2486 20.0974 39.4429 21.4805C39.4446 21.493 39.4464 21.5054 39.4482 21.5179C38.8203 21.3245 38.4383 21.5812 38.4383 22.2599C38.4383 22.9408 39.434 23.3235 39.8551 23.0466C40.2796 24.1707 40.9407 25.2098 41.6052 25.8114C41.585 25.8549 41.5807 25.9059 41.5971 25.955C41.6459 26.1014 41.6608 26.2119 41.6475 26.2824L41.6448 26.2953C41.6298 26.3573 41.5866 26.4458 41.5142 26.5565L41.5003 26.5772L41.4598 26.59C37.9801 27.7075 36.6486 30.9459 37.4526 36.231L37.4555 36.246L37.4703 36.3084C37.8583 37.9155 38.5926 38.8532 39.5073 39.0962C39.5072 39.1006 39.5072 39.105 39.5073 39.1094C39.6671 44.5228 39.8069 48.836 39.9265 52.0493L39.97 53.1904L40.0133 54.272C40.0745 55.7585 40.1295 56.9014 40.1782 57.7011L40.2093 58.1919C40.2628 58.9948 40.294 59.1715 40.4086 59.2526L40.4198 59.26L40.4283 59.2652C40.453 59.2795 40.4834 59.2923 40.5197 59.3036C40.477 59.3035 40.4342 59.3035 40.3913 59.3035L39.545 59.3027C38.4006 59.2993 37.305 59.2837 35.8507 59.2526L32.2732 59.1712C31.2025 59.1488 30.6002 59.1419 29.9291 59.1429L29.3863 59.1453C27.8429 59.1575 26.6296 59.2262 25.6024 59.371C23.1326 59.7192 21.6642 60.5368 21.0137 62.0792C20.6817 62.8665 20.8416 63.547 21.4513 64.0769C21.9748 64.5319 22.8265 64.876 23.9857 65.1279L24.0504 65.1418C26.0336 65.5627 28.8493 65.7151 32.42 65.6615L32.6396 65.658C34.317 65.6291 36.037 65.5602 38.1072 65.4489L40.1683 65.3321C40.8925 65.2903 41.6386 65.2474 41.9042 65.2332L42.2634 65.2147C43.0264 65.1767 43.5182 65.1626 43.8217 65.1721L44.1621 65.1849C49.0827 65.3651 52.9228 65.1191 55.3933 64.539C56.5203 64.2744 57.3265 63.9463 57.7774 63.573C58.2657 63.1686 58.35 62.6819 57.988 62.2521C56.8586 60.9113 55.005 60.1537 52.0102 59.7499L51.8554 59.7294C49.7099 59.451 47.1134 59.3389 42.6685 59.3108L42.6929 59.3092C42.8034 59.3018 42.8905 59.2121 42.8948 59.1014L43.2164 50.0808C43.2254 50.081 43.2347 50.0807 43.2444 50.0801C43.6645 50.0512 43.9491 49.7915 44.4674 48.8148L44.5291 48.6973L44.5996 48.5607C44.726 48.3274 45.0616 47.9649 45.3493 47.6542L45.3494 47.6542C45.5382 47.4503 45.7064 47.2687 45.7811 47.1605C45.9362 47.1909 46.1614 47.2147 46.4567 47.2319L46.4936 47.234L46.2593 47.8032L46.2548 47.8153C46.2255 47.9045 46.2729 48.002 46.3632 48.0331C49.4558 49.0967 51.1371 48.2666 51.5714 46.0316C52.1907 42.8438 50.5146 41.2422 46.6519 41.283L46.7129 39.2425C46.9503 39.209 47.1725 39.1134 47.3717 38.9517C47.9356 38.4941 48.2645 37.5456 48.3294 36.1093C48.5498 31.2298 47.1256 28.1576 44.0468 26.9432L43.9421 26.9028L43.9322 26.8753C43.878 26.7219 43.8417 26.5976 43.8232 26.5041L43.8193 26.4831C43.7999 26.3734 43.7999 26.1901 43.8216 25.9393C43.8242 25.908 43.8194 25.8779 43.8086 25.8506C44.567 25.237 45.3073 24.1345 45.6685 22.9943L45.6777 22.9975C45.6814 22.9988 45.6853 23.0001 45.6894 23.0016L45.8558 23.0607C45.965 23.0975 46.0564 23.1211 46.1499 23.1334C46.6629 23.2008 46.9751 22.8664 46.9751 22.0906C46.9751 21.7973 46.8339 21.5944 46.57 21.5482C46.3974 21.5179 46.1806 21.5579 45.9115 21.6628C46.0399 19.9763 45.6448 18.77 44.8394 18.0161C44.536 17.7321 44.181 17.524 43.8124 17.3896C44.155 17.2979 44.4984 17.1428 44.7652 16.9306C45.3776 16.4436 45.5708 15.7111 45.2195 14.7599L46.4137 14.4934L46.4233 14.4901C46.4634 14.4735 46.4735 14.374 46.4735 14.2997C46.4735 14.2254 46.4125 14.1402 46.3664 14.1533L45.1446 14.5741C44.7516 13.7016 43.7612 13.2713 42.7366 13.4541ZM40.873 59.5641L40.9316 59.5641C41.213 59.5646 41.4877 59.5658 41.7561 59.5676C41.7355 59.8031 41.7305 60.09 41.751 60.3H40.9349C40.927 60.132 40.9059 59.8212 40.873 59.5641ZM40.6337 59.5639C40.615 59.7125 40.5999 59.8802 40.5863 60.0309C40.5756 60.1493 40.5659 60.2572 40.5561 60.3371C40.5494 60.3424 40.543 60.3482 40.5371 60.3545C40.0808 60.8392 39.6088 61.1547 39.121 61.3043L39.0416 61.328C38.6245 61.45 37.8434 61.6422 37.8588 61.6378C37.5185 61.7349 37.3536 61.8467 37.2957 62.0801C37.2003 62.4645 37.5893 62.6332 38.5981 62.6398L38.6749 62.64C38.8405 62.6398 38.9867 62.6229 39.3087 62.572L39.5591 62.532C39.8117 62.4927 39.9612 62.476 40.098 62.4746L40.1572 62.475C40.2291 62.4769 40.3033 62.4843 40.4656 62.5051L40.6638 62.5308C40.7786 62.5455 40.8596 62.5545 40.9453 62.5616C41.2999 62.5909 41.5708 62.5663 41.7977 62.4575C42.3849 62.1758 42.4563 61.475 42.072 60.4143C42.0715 60.413 42.0711 60.4118 42.0706 60.4106C42.0726 60.3988 42.0736 60.3866 42.0736 60.3743V59.5701C46.976 59.6133 49.7073 59.8766 51.9522 60.1793L52.1248 60.2032C54.9207 60.5991 56.6315 61.3143 57.6566 62.5313C58.0703 63.0225 57.3239 63.6406 55.2942 64.1172C52.8419 64.6929 48.9849 64.9357 44.0272 64.7463L43.8767 64.7404C43.5218 64.7263 42.9248 64.7453 41.9355 64.7976L41.0259 64.8487C40.6797 64.8685 40.2813 64.8915 39.9046 64.9132C39.3416 64.9457 38.8272 64.9753 38.6082 64.9875L38.0843 65.0161C36.1048 65.1226 34.4471 65.1902 32.8413 65.2209L32.6321 65.2247C28.9876 65.2874 26.124 65.1389 24.1404 64.7179C21.8374 64.229 20.742 63.4276 21.2397 62.2475C21.8136 60.8867 23.3018 59.9708 25.5931 59.6368L25.6629 59.6268C26.3477 59.5302 27.1209 59.5453 28.0266 59.563C28.4773 59.5718 28.9607 59.5813 29.4825 59.5779L29.9296 59.5762C30.6554 59.5752 35.4927 59.5049 35.4927 59.5049C37.1863 59.5425 38.3918 59.5604 39.679 59.563L40.6337 59.5639ZM43.5167 26.0617C43.2288 26.2445 42.945 26.3483 42.685 26.3483C42.481 26.3483 42.262 26.2736 42.0374 26.1385C42.0453 26.2162 42.0433 26.288 42.0309 26.3543C42.0043 26.4958 41.9207 26.7466 41.7819 26.9427C41.778 26.9481 41.7739 26.9533 41.7696 26.9583C41.9556 27.0637 42.2433 27.1732 42.6406 27.1176C43.0781 27.0563 43.3199 26.9008 43.4667 26.7799C43.4439 26.5477 43.4732 26.2724 43.5167 26.0617ZM43.5146 27.0123C43.3329 27.2498 43.0268 27.5076 42.6406 27.5076C42.0585 27.5076 41.6762 27.3631 41.5519 27.0567C38.3327 28.1019 36.9142 31.0097 37.6419 36.018L37.6636 36.1646L37.6755 36.2145C38.122 38.069 39.1755 38.8837 40.2127 38.7566L40.2445 38.7524C41.1732 38.6218 42.0785 37.7278 42.3208 36.709L42.3567 36.5557C42.5375 35.7693 42.6472 35.0741 42.6472 34.5028L42.6466 34.2657C42.6406 33.021 42.5873 32.0999 42.5204 31.6936L42.5156 31.6659L42.5082 31.686C42.4799 31.7625 42.4497 31.8563 42.4179 31.9668L42.4083 32.0004C42.262 32.5194 42.0903 33.3629 41.8951 34.5348C41.7516 35.3962 39.448 36.4773 39.4135 36.3753C39.4028 36.3435 39.5915 36.2135 39.8599 36.0287L39.8601 36.0285L39.8612 36.0278C39.9657 35.9558 40.0823 35.8755 40.2038 35.7895C40.1995 35.7815 40.1951 35.773 40.1906 35.764C39.8512 35.0832 39.6421 34.4858 39.5648 33.9695C39.4885 33.459 39.6667 31.405 39.78 31.4055L39.7942 31.4061C39.8513 31.41 39.8388 31.6762 39.8202 32.0708C39.7999 32.5009 39.7724 33.0835 39.8201 33.6453C39.8718 34.2555 40.1424 34.8701 40.3303 35.297C40.3821 35.4148 40.4277 35.5184 40.4607 35.6036C40.9572 35.2352 41.4549 34.8042 41.5104 34.4707L41.5547 34.2081C41.7303 33.18 41.8868 32.4214 42.0243 31.9253L42.0329 31.8946C42.1082 31.6273 42.1785 31.4364 42.2479 31.3149C42.357 31.1241 42.5223 31.0248 42.6959 31.1629C42.8888 31.3163 42.9853 31.9762 43.0208 33.1794C43.0503 32.6405 43.0993 32.2043 43.1658 31.8776C43.2213 31.6046 43.289 31.4069 43.3734 31.282C43.4932 31.1046 43.6805 31.0441 43.8509 31.1632L43.8623 31.1716C44.2283 31.4518 44.475 32.8107 44.4894 34.5779L44.4901 34.7258L44.4936 34.7464C44.7171 35.5911 45.1803 36.0835 45.6006 36.3785C46.4581 34.9731 45.959 32.3697 45.7472 31.2654C45.6862 30.9471 45.6491 30.7534 45.6751 30.7487C45.7929 30.7274 45.9056 30.8056 45.9269 30.9233C46.1979 32.4217 46.3374 33.5296 46.345 34.2523C46.3526 34.9836 46.2302 35.7542 45.9785 36.564C45.9748 36.5757 45.9703 36.5869 45.9649 36.5975C46.0931 36.6634 46.2057 36.711 46.2906 36.7469C46.4003 36.7933 46.4638 36.8202 46.4556 36.8417C46.4171 36.9423 44.8629 36.9423 44.1026 34.774C44.1 34.7664 44.1 34.7556 44.1 34.7459L44.1001 34.7425C44.1001 33.8381 44.0381 33.0316 43.9293 32.4163C43.8798 32.1362 43.8218 31.9047 43.76 31.7348L43.7517 31.7124C43.7241 31.6396 43.697 31.5826 43.6738 31.5431L43.6728 31.5413L43.668 31.5509C43.6272 31.635 43.5854 31.7715 43.548 31.9553L43.5419 31.9859C43.5229 32.0829 43.4993 32.1904 43.4735 32.3081C43.362 32.816 43.2086 33.5144 43.2051 34.3848L43.2048 34.5147C43.2048 36.0331 44.2722 37.8716 45.4855 38.5919C46.7463 39.3404 47.8262 38.6047 47.9398 36.0917C48.1578 31.2662 46.8254 28.0329 43.7236 27.2379C43.6223 27.2119 43.5556 27.1281 43.5146 27.0123ZM43.0165 34.9798C42.9724 35.5188 42.8598 36.1284 42.7002 36.7993C42.4221 37.9685 41.3931 38.9848 40.2988 39.1386C40.1097 39.1652 39.9254 39.1667 39.7471 39.1435C39.7581 39.3026 39.7706 39.532 39.7844 39.8213C39.8235 39.8159 39.8644 39.821 39.903 39.8383C40.1886 39.9667 41.769 40.1441 43.1419 40.1716L43.2439 40.1734C44.877 40.1979 46.0466 40.0164 46.2662 39.683L46.2795 39.2381C46.0151 39.1982 45.739 39.0931 45.4597 38.9273C44.2518 38.2101 43.2002 36.5244 43.0165 34.9798ZM38.8283 22.2599C38.7946 21.7549 39.2036 21.788 39.5054 21.8456C39.5698 22.1655 39.6592 22.4886 39.7686 22.8069L39.7533 22.8065C39.4179 22.7972 38.8633 22.7818 38.8283 22.2599ZM45.8874 21.9274C45.8813 21.9857 45.8746 22.0446 45.8672 22.1041C45.8407 22.319 45.797 22.5368 45.7387 22.7543C46.1294 22.8006 46.7837 22.8261 46.6615 21.9583C46.6139 21.6203 46.1783 21.8036 45.8874 21.9274ZM42.6267 17.2086C42.7934 17.1987 42.9662 17.2046 43.1411 17.2266C43.5837 17.2211 44.246 17.0192 44.5495 16.6592C45.74 15.2471 44.0893 13.6473 42.8072 13.8541C41.8552 14.0076 40.9568 14.6762 40.8139 15.7458C40.7452 16.2596 41.0807 17.0778 42.6267 17.2086ZM40.0805 47.8945C40.2615 53.2057 40.4564 58.9235 40.5444 59.0766C40.5593 59.1034 40.7852 59.1055 40.9644 59.1072L40.9647 59.1072H40.9655C41.0126 59.1076 41.0563 59.108 41.0921 59.1089L41.1886 59.1103L41.2981 59.1105C41.5634 59.1092 41.898 59.0968 42.3012 59.0732L42.4693 59.0629L43.1318 43.2724C43.1136 42.9132 42.7823 42.5027 42.5595 42.2267C42.4269 42.0624 42.3327 41.9457 42.366 41.916C42.4541 41.8372 43.1428 42.6095 43.2698 42.8827C43.2722 42.892 43.2749 42.9044 43.2779 42.9195C43.3561 42.7146 43.4662 42.4996 43.6095 42.2761C43.6611 42.1955 44.3165 41.2864 43.8489 42.2237C42.8477 44.2309 43.9818 45.0467 45.9615 45.0539L45.9688 45.0539L45.9696 45.0539C45.9861 45.0541 45.9982 45.0542 46.0253 45.0507C46.7961 44.9528 47.6326 44.998 48.2915 45.084C48.9391 45.1684 50.0587 45.7991 48.7915 46.1551C48.4886 46.2402 48.0021 46.1888 47.4403 46.0667L47.2881 46.0415L46.3959 47.8464L46.55 47.8796C49.254 48.7394 50.8222 47.9371 51.219 46.0256L51.2311 45.9654C51.7971 43.0521 50.5821 41.2491 46.6471 41.4414L46.642 41.6126C46.6384 41.7322 46.5385 41.8262 46.4189 41.8226C46.2993 41.8189 46.2053 41.719 46.2089 41.5994L46.2128 41.4696C44.8349 41.5707 45.7373 41.3977 46.2172 41.3206L46.2498 40.2317C45.6824 40.5204 44.637 40.6281 43.2472 40.6068L43.1333 40.6048C41.7867 40.5779 40.2802 40.4163 39.8046 40.2632C39.8766 41.9117 39.9762 44.8354 40.0805 47.894L40.0805 47.8945ZM46.9023 46.2416L46.5807 47.0225C46.3578 46.9886 46.2041 46.9492 46.0888 46.9196C46.0506 46.9098 46.0166 46.9011 45.9858 46.894C45.9438 46.5836 45.9449 46.3585 45.984 46.2257C46.0181 46.1102 46.0673 46.0452 46.1314 46.0158C46.2696 46.061 46.4323 46.1102 46.6194 46.1633L46.7602 46.2027L46.9023 46.2416ZM45.6927 46.9157C45.7097 46.9045 45.7276 46.8961 45.7461 46.8902C45.6994 46.6405 45.6991 46.2604 45.7382 46.1277C45.7648 46.0374 45.7874 45.9663 45.8178 45.9089C45.7732 45.8937 45.7055 45.859 45.622 45.8163C45.238 45.6197 44.5223 45.2534 44.207 45.8282C43.6751 46.7983 43.2078 49.8459 43.3438 49.8468C43.5373 49.848 44.029 49.1602 44.3527 48.5493L44.367 48.522L44.4505 48.3596C44.7045 47.8669 45.1104 47.2977 45.6927 46.9157ZM47.2109 45.8497C47.1416 45.8374 47.0729 45.8684 47.0356 45.9257C47.0208 45.9167 47.0045 45.9098 46.9868 45.9054L45.7867 45.6091L45.7603 45.594C44.8478 45.0783 44.2577 45.122 43.846 45.6965C43.7 45.9003 43.6269 46.1564 43.5917 46.4962L43.5875 46.5392L43.5825 46.5978C43.5778 46.6567 43.574 46.7175 43.5703 46.7927L43.5556 47.106L43.5529 47.1535C43.5483 47.2273 43.5438 47.2754 43.5373 47.3206L43.5331 47.3476L43.5198 47.4204L43.5117 47.4579C43.507 47.4781 43.5014 47.5014 43.494 47.5302L43.4727 47.6112L43.3426 48.081C43.3193 48.1883 43.2974 48.2893 43.2769 48.3839L43.4163 44.4712C43.8547 45.0154 44.7863 45.302 46.1172 45.2193L46.2268 45.2131C46.2784 45.2105 46.3304 45.2077 46.3828 45.2049L46.3844 45.2048L46.394 45.2043L46.396 45.2042C46.9756 45.173 47.6046 45.1392 48.1744 45.2658C49.5954 45.5814 49.0142 45.8715 48.8891 45.934L48.8816 45.9377L48.8778 45.9396L48.8615 45.9474C48.6613 46.0364 48.1916 46.0184 47.3042 45.8659L47.2109 45.8497ZM37.9065 61.8985L37.9538 61.8845C37.9309 61.8915 39.6449 61.6488 40.5622 60.6945C40.7354 60.5145 41.7861 60.6467 41.7861 60.6467L41.7871 60.6494C42.1826 61.3043 42.2396 61.9851 41.7435 62.1859C41.5683 62.2568 41.2724 62.3274 40.9738 62.3028L40.9304 62.299L40.8692 62.2929C40.8271 62.2884 40.7819 62.283 40.7288 62.2763L40.4336 62.2383C40.2783 62.2193 40.2096 62.2145 40.1158 62.2145C39.9519 62.2145 39.1639 62.3304 39.1639 62.3304C38.9234 62.3672 38.801 62.3798 38.6744 62.38C38.1679 62.3807 37.8489 62.2562 37.692 62.1923L37.677 62.1859C37.663 62.1796 37.6515 62.1734 37.6426 62.1675L37.6329 62.1607L37.6321 62.1636C37.6503 62.0904 37.7117 61.9577 37.9065 61.8985ZM45.5739 22.1041C45.6234 21.7029 45.6398 21.328 45.6267 20.9794C45.0262 21.2179 44.425 21.1741 43.9141 20.8733C43.4944 20.6261 43.1164 20.2333 42.7784 19.6969L42.766 19.6771L42.7549 19.6987C42.4819 20.2169 42.1298 20.6307 41.6986 20.9381L41.6553 20.9685C41.1142 21.3409 40.4794 21.5071 39.7572 21.4677L39.76 21.4805C40.1719 23.2933 41.6033 26.0864 42.7087 26.1533C43.1315 26.179 43.7451 25.496 44.3139 24.7557C44.9282 23.9563 45.4611 23.0175 45.5739 22.1041ZM44.5729 18.3009C45.1138 18.8071 45.4957 19.5806 45.6014 20.6146C45.595 20.6166 45.5887 20.619 45.5824 20.6218C45.0515 20.8599 44.5311 20.9209 44.09 20.6612C43.6532 20.404 43.2562 19.868 42.9018 19.2232C42.8324 19.0968 42.6479 19.1056 42.5908 19.2381C42.5794 19.2644 42.567 19.294 42.5534 19.3265C42.3968 19.7011 42.082 20.454 41.399 20.8515C40.9018 21.1408 40.1681 21.2141 39.8058 21.2503L39.8054 21.2503L39.8048 21.2503C39.7725 21.2536 39.7432 21.2565 39.7173 21.2593C39.7038 21.1749 39.6936 21.0911 39.6866 21.0079C40.1005 20.9329 40.9704 20.6464 41.3201 20.4267C41.7638 20.1481 41.8996 19.8637 42.1255 19.3909C42.1669 19.3042 42.2113 19.2112 42.2612 19.1108C42.3042 19.0241 42.4064 18.4462 42.1642 18.8856C42.1495 18.9123 42.1339 18.9415 42.1172 18.9728L42.1171 18.973L42.117 18.9731L42.117 18.9731C41.8651 19.4441 41.3533 20.4007 39.6765 20.8371C39.6439 19.8662 40.0364 18.9962 40.6102 18.4336C41.1462 17.9082 41.9568 17.5608 42.5727 17.501C43.2206 17.4382 44.0039 17.7682 44.5729 18.3009Z" fill="#232440"/>
<path fill-rule="evenodd" clip-rule="evenodd" d="M27.0305 48.5854C26.9267 47.4796 26.4121 46.3849 25.5965 45.6334C25.0027 45.0861 24.1517 44.6278 23.3576 45.0197C22.1358 45.7489 21.8077 47.2454 21.9309 48.5854C22.0836 50.2462 22.8594 51.2703 24.3498 51.882C25.1896 52.2265 25.7478 52.6811 26.2037 53.4732C26.5683 54.1066 26.7809 54.8998 27.2392 55.474C27.9242 56.3324 28.7815 56.7139 29.8382 56.5714C30.0476 56.5714 30.7223 57.1996 30.9331 57.58C31.4837 58.5737 31.9563 59.623 32.1732 60.7449C32.2365 61.0723 32.1917 62.2972 32.4152 62.5336C32.8239 62.966 32.7042 62.1334 32.6797 61.882C32.4767 59.8009 31.7296 58.0278 30.6448 56.2782C30.978 55.8429 31.0262 54.7352 30.9215 54.3857C30.6448 53.3023 27.2394 50.8116 27.0305 48.5854Z" fill="white"/>
<path fill-rule="evenodd" clip-rule="evenodd" d="M23.2325 44.7687L23.2265 44.772C22.0916 45.4494 21.6765 46.396 21.758 48.5934C21.8436 50.9023 22.681 51.3115 24.1845 51.9432L24.2303 51.9622C25.0742 52.3085 25.6065 52.7599 26.0419 53.5165L26.0768 53.5783C26.1529 53.7154 26.2209 53.8554 26.3167 54.0692L26.4883 54.4586C26.72 54.9812 26.8676 55.2561 27.0847 55.5281C27.7973 56.421 28.6885 56.8023 29.7631 56.6573L29.7733 56.6553L29.7832 56.6521C29.9497 56.5866 30.5158 57.1624 30.7706 57.6221C31.3894 58.7389 31.789 59.7129 31.9879 60.693L32.0014 60.7614C32.0143 60.8278 32.0227 60.9299 32.0325 61.1239L32.0461 61.4111C32.0493 61.4781 32.0524 61.5363 32.0556 61.5914L32.0575 61.6241C32.0898 62.1585 32.1429 62.4635 32.2656 62.5933C32.4294 62.7666 32.5806 62.7993 32.6635 62.6487C32.7107 62.5631 32.7217 62.4248 32.7116 62.2303L32.7075 62.1653C32.7051 62.1321 32.7022 62.0976 32.6986 62.0606L32.6706 61.7876C32.4719 59.8952 31.8254 58.1781 30.684 56.3173L30.6618 56.2812L30.6759 56.2587C30.9491 55.8077 31.0487 54.7979 30.9178 54.3609C30.694 53.6143 30.2513 53.01 29.4457 52.2133L29.3054 52.0751C27.9433 50.7278 27.4864 50.0329 27.1121 48.55L26.9832 48.037L26.98 48.0245C26.6725 46.8391 26.3498 46.1336 25.7396 45.5712C25.0074 44.8965 23.9782 44.4007 23.2325 44.7687ZM25.6221 45.6987C26.1819 46.2145 26.5777 46.8664 26.8683 47.9521L26.9308 48.1923L27.0178 48.5409C27.1121 49.4755 27.4035 50.5766 29.1837 52.1985L29.2783 52.2917C30.0938 53.0921 30.5342 53.685 30.7517 54.4107C30.8754 54.8234 30.7622 55.8691 30.4893 56.2256C30.4674 56.2542 30.4654 56.2933 30.4844 56.3239C31.6452 58.1961 32.2992 59.9121 32.4981 61.8044L32.5225 62.0402L32.5293 62.1116C32.5323 62.1457 32.5348 62.1778 32.5367 62.2087L32.5384 62.2393C32.5469 62.4011 32.5375 62.5181 32.5116 62.5651L32.5104 62.5682L32.5135 62.5691C32.4905 62.5641 32.448 62.534 32.3915 62.4742C32.313 62.3912 32.2623 62.1091 32.2328 61.6511L32.2267 61.5482L32.2041 61.0854C32.1949 60.9099 32.1866 60.8114 32.1736 60.7392L32.1716 60.7285C31.9736 59.7047 31.5635 58.6954 30.9222 57.5381L30.9081 57.5131C30.6083 56.9862 30.0258 56.3964 29.7334 56.486L29.7317 56.4865L29.7399 56.4855C28.7273 56.6222 27.8956 56.2663 27.2202 55.42C27.009 55.1553 26.8642 54.8819 26.6265 54.3425L26.5041 54.0638C26.3748 53.7726 26.2949 53.6086 26.1921 53.43C25.7453 52.6537 25.1951 52.1798 24.3436 51.8216L24.296 51.8019C22.8222 51.1969 22.079 50.1918 21.9305 48.5775L21.9263 48.5293C21.8011 47.0384 22.2486 45.7526 23.2817 45.1145L23.3122 45.0959L23.3092 45.0975C23.9787 44.7671 24.937 45.0673 25.6221 45.6987Z" fill="#232440"/>
<path fill-rule="evenodd" clip-rule="evenodd" d="M31.8309 56.5978C32.3323 56.6748 32.7691 56.3812 32.9373 55.892C33.0826 55.4692 33.0968 54.9773 33.2618 54.5775C33.3755 54.3022 33.5564 54.0683 33.7775 53.8706C34.3609 53.3491 34.9699 53.2187 35.1438 52.3532C35.2801 51.6747 35.1108 50.2917 34.1639 50.4296C33.5051 50.5259 32.9727 51.4063 32.6658 51.9614C32.2861 52.6484 31.9318 53.3846 31.7323 54.1392C31.4037 55.3823 31.3592 56.7621 31.3552 58.0352C31.3547 58.1886 31.3227 60.0626 31.5418 60.0319C31.7588 60.0015 31.6214 58.0562 31.6399 57.6534" fill="white"/>
<path fill-rule="evenodd" clip-rule="evenodd" d="M26.7754 51.1463C26.4167 50.8482 26.245 50.535 26.3483 50.3626C26.466 50.1662 26.7743 50.2939 27.0866 50.637C27.2819 50.8517 27.5555 51.223 27.6362 51.4065C27.6691 51.4812 27.6803 51.5369 27.6551 51.5877C27.6171 51.6646 27.5413 51.6667 27.4528 51.6304C27.3397 51.5841 27.1485 51.4513 26.866 51.221L26.7754 51.1463ZM26.5979 50.4658C26.5599 50.4501 26.5296 50.4445 26.5099 50.4468C26.5007 50.4479 26.4984 50.4493 26.497 50.4517C26.4966 50.4524 26.4961 50.4531 26.4956 50.4539C26.4808 50.4784 26.4369 50.5512 26.4839 50.637C26.5476 50.7533 26.734 51.0478 26.7995 51.0997C26.994 51.2537 27.2381 51.3732 27.3998 51.4523C27.4578 51.4807 27.5052 51.5039 27.5359 51.5216L27.5475 51.5281L27.5347 51.504C27.4405 51.332 27.1397 50.9572 26.9776 50.7751L26.9583 50.7537C26.8222 50.6042 26.6967 50.5068 26.5979 50.4658ZM24.6149 50.8826C24.5116 51.055 24.6833 51.3682 25.042 51.6663L25.1326 51.741C25.4152 51.9713 25.6063 52.1041 25.7194 52.1504C25.8079 52.1867 25.8837 52.1846 25.9217 52.1077C25.9469 52.0569 25.9357 52.0012 25.9028 51.9264C25.8221 51.743 25.5485 51.3717 25.3532 51.157C25.0409 50.8139 24.7326 50.6862 24.6149 50.8826ZM24.7765 50.9668C24.7962 50.9644 24.8265 50.9701 24.8645 50.9858C24.9633 51.0267 25.0888 51.1241 25.2249 51.2737L25.2442 51.2951C25.4063 51.4771 25.6204 51.852 25.7146 52.024L25.7274 52.0481L25.7159 52.0416C25.5995 51.9744 25.4121 51.8352 25.1528 51.6197C24.9892 51.4837 24.7859 51.2634 24.7222 51.1471C24.6817 51.0731 24.7284 51.0158 24.7526 50.9861C24.7575 50.9802 24.7614 50.9753 24.7636 50.9717C24.765 50.9693 24.7673 50.9679 24.7765 50.9668ZM28.422 53.2264C28.0633 52.9282 27.8916 52.615 27.9949 52.4426C28.1126 52.2463 28.4209 52.374 28.7332 52.7171C28.9285 52.9317 29.2021 53.3031 29.2828 53.4865C29.3157 53.5612 29.3269 53.6169 29.3017 53.6678C29.2637 53.7447 29.1879 53.7467 29.0994 53.7105C28.9863 53.6641 28.7951 53.5313 28.5126 53.301L28.422 53.2264ZM28.2444 52.5458C28.2064 52.5301 28.1762 52.5245 28.1565 52.5268C28.1473 52.5279 28.145 52.5293 28.1436 52.5317C28.1414 52.5354 28.1374 52.5402 28.1326 52.5461C28.1084 52.5759 28.0616 52.6332 28.1022 52.7071C28.1659 52.8234 28.3692 53.0438 28.5328 53.1797C28.7512 53.3612 28.9802 53.4886 29.1164 53.5645C29.1419 53.5786 29.1642 53.591 29.1825 53.6016L29.1941 53.6081L29.1813 53.584C29.0871 53.412 28.7862 53.0372 28.6242 52.8552L28.6049 52.8337C28.4688 52.6842 28.3433 52.5868 28.2444 52.5458Z" fill="#FFB61D"/>
<path fill-rule="evenodd" clip-rule="evenodd" d="M34.1514 50.3438C34.6298 50.2742 35.0528 50.5509 35.2286 51.0568C35.3668 51.4542 35.3072 51.98 35.2288 52.3702C35.1282 52.8709 34.9187 53.1384 34.4572 53.4697L34.1798 53.6644C34.084 53.7327 34.0054 53.792 33.9302 53.8539C33.8976 53.8808 33.866 53.9078 33.8353 53.9352C33.6121 54.1348 33.4456 54.3597 33.342 54.6106L33.3278 54.6459C33.2729 54.7865 33.2382 54.9259 33.1881 55.1861L33.1451 55.4136C33.1015 55.64 33.0687 55.7764 33.0193 55.9202C32.8296 56.4719 32.4291 56.7641 31.9045 56.6835C31.8571 56.6762 31.7017 56.688 32.05 56.6174C32.3983 56.5469 32.6912 56.3415 32.8554 55.8639C32.9016 55.7294 32.9329 55.599 32.9752 55.3795L33.0184 55.1507C33.0746 54.8589 33.1129 54.7113 33.1818 54.5445C33.2958 54.2682 33.4779 54.0222 33.7198 53.806C33.7523 53.777 33.7856 53.7484 33.8201 53.72C33.8889 53.6634 33.96 53.6091 34.0429 53.5493L34.1273 53.4894C34.1972 53.4403 34.3037 53.3661 34.3252 53.3509L34.3851 53.3079C34.7934 53.0102 35.0571 52.7761 35.1455 52.3361C35.218 51.9753 35.1059 51.4809 34.9782 51.1137C34.827 50.6786 34.5606 50.3727 34.1764 50.4287C33.6108 50.5114 32.2065 52.567 31.8182 53.8255C31.4987 54.8611 31.4176 56.4508 31.4388 57.878L31.4422 58.0814L31.4417 58.3618C31.4419 58.5891 31.4442 58.7789 31.4502 58.9763L31.4517 59.0259C31.4612 59.3115 31.4777 59.5461 31.5024 59.715C31.5106 59.7706 31.5195 59.8182 31.5291 59.857L31.5339 59.8759L31.5366 59.8642C31.5473 59.8122 31.5561 59.7441 31.5628 59.6614L31.565 59.6332L31.5689 59.5736C31.5795 59.389 31.5816 59.1528 31.5771 58.8578L31.5731 58.6517C31.5714 58.576 31.5693 58.4946 31.5666 58.3999L31.5521 57.8554C31.5505 57.7708 31.5506 57.7264 31.5519 57.685L31.5584 57.5273C31.5631 57.3991 31.566 57.266 31.5693 57.0544L31.5742 56.7479C31.5873 56.0471 31.6129 55.6981 31.6964 55.269C31.709 55.2043 31.7227 55.1404 31.7377 55.0773C31.9565 54.1564 32.4271 53.4936 32.8825 52.6813C33.0193 52.4374 33.7371 52.0639 33.7437 52.1113C33.7503 52.1587 33.1291 52.4391 32.9405 52.7527C32.5394 53.4199 32.1202 54.2172 31.9064 55.1174C31.8919 55.1781 31.8787 55.2397 31.8665 55.3021L31.8507 55.3865C31.7821 55.7672 31.7595 56.1082 31.7475 56.7529L31.7385 57.2899C31.7362 57.3992 31.7336 57.4862 31.7301 57.5746L31.7248 57.7033C31.7237 57.7509 31.7242 57.8093 31.7272 57.9347L31.7457 58.6149C31.7472 58.6816 31.7485 58.7434 31.7496 58.8051L31.7525 59.0039C31.7606 59.775 31.7247 60.0938 31.5539 60.1177C31.4201 60.1365 31.3699 60.0063 31.3309 59.7401C31.3066 59.5738 31.2902 59.3513 31.2803 59.0826L31.2785 59.0317C31.2712 58.8139 31.2686 58.6101 31.2684 58.3624L31.2686 58.0374C31.2319 56.5542 31.4019 54.868 31.7392 53.7744C32.146 52.4559 33.4952 50.4398 34.1514 50.3438Z" fill="#232440"/>
<ellipse cx="31.5267" cy="60.9066" rx="3.38" ry="2.51333" fill="white"/>
<ellipse cx="30.1838" cy="60.9066" rx="2.03709" ry="2.51333" fill="#E7EAEE"/>
<path fill-rule="evenodd" clip-rule="evenodd" d="M34.9067 58.285H28.1467C28.0868 58.285 28.0383 58.3335 28.0383 58.3933C28.0383 60.2448 28.2131 61.3975 28.6773 62.1979C29.2008 63.1003 30.1027 63.5283 31.5267 63.5283C32.9506 63.5283 33.8525 63.1003 34.376 62.1979C34.8403 61.3975 35.015 60.2448 35.015 58.3933C35.015 58.3335 34.9665 58.285 34.9067 58.285ZM28.4285 58.5017H34.7114L34.7113 58.5266C34.7031 60.2643 34.704 61.35 34.2752 62.0892C33.7942 62.9184 32.8788 63.3983 31.5266 63.3983C30.1745 63.3983 29.3457 62.8318 28.8647 62.0025L28.8486 61.9743C28.4372 61.2456 28.4413 60.271 28.429 58.5949L28.4285 58.5017Z" fill="#232440"/>
</svg>
