<svg width="24" height="24" viewBox="0 0 24 24" fill="none" xmlns="http://www.w3.org/2000/svg">
<path d="M24 20.4844C24 20.0961 23.6852 19.7812 23.2969 19.7812H18.3901C18.4944 17.2426 19.1369 14.6676 19.7603 12.1703C20.462 9.35967 21.1875 6.45337 21.1875 3.51562C21.1875 1.57711 19.6104 0 17.6719 0H3.51562C1.57711 0 0 1.57711 0 3.51562C0 3.90394 0.314812 4.21875 0.703125 4.21875H5.61033C5.50594 6.75727 4.86314 9.33248 4.2397 11.8297C3.53803 14.6403 2.8125 17.5466 2.8125 20.4844C2.8125 22.4229 4.38961 24 6.32812 24H20.4844C22.4229 24 24 22.4229 24 20.4844ZM1.52672 2.8125C1.81692 1.99402 2.59894 1.40625 3.51562 1.40625C4.43231 1.40625 5.21433 1.99402 5.50453 2.8125H1.52672ZM4.21875 20.4844C4.21875 17.7195 4.923 14.8985 5.60405 12.1703C6.30572 9.35967 7.03125 6.45337 7.03125 3.51562C7.03125 2.7248 6.76861 1.99425 6.3262 1.40625H17.6719C18.835 1.40625 19.7812 2.35252 19.7812 3.51562C19.7812 6.2805 19.077 9.10153 18.396 11.8297C17.7503 14.4159 17.085 17.0831 16.9827 19.7812H9.14062C8.75231 19.7812 8.4375 20.0961 8.4375 20.4844C8.4375 21.6475 7.49123 22.5938 6.32812 22.5938C5.16502 22.5938 4.21875 21.6475 4.21875 20.4844ZM20.4844 22.5938H9.138C9.44588 22.1847 9.66722 21.7069 9.77311 21.1875H22.4728C22.1826 22.0059 21.401 22.5938 20.4844 22.5938Z" fill="#665AF0"/>
<path d="M9.14062 7.03125H17.4373C17.8256 7.03125 18.1404 6.71644 18.1404 6.32812C18.1404 5.93981 17.8256 5.625 17.4373 5.625H9.14062C8.75231 5.625 8.4375 5.93981 8.4375 6.32812C8.4375 6.71644 8.75231 7.03125 9.14062 7.03125Z" fill="#FEBC11"/>
<path d="M8.48071 9.84375H16.8739C17.2622 9.84375 17.5771 9.52894 17.5771 9.14062C17.5771 8.75231 17.2622 8.4375 16.8739 8.4375H8.48071C8.0924 8.4375 7.77759 8.75231 7.77759 9.14062C7.77759 9.52894 8.0924 9.84375 8.48071 9.84375Z" fill="#FEBC11"/>
<path d="M7.82178 12.6562H16.1783C16.5666 12.6562 16.8814 12.3414 16.8814 11.9531C16.8814 11.5648 16.5666 11.25 16.1783 11.25H7.82178C7.43346 11.25 7.11865 11.5648 7.11865 11.9531C7.11865 12.3414 7.43346 12.6562 7.82178 12.6562Z" fill="#FEBC11"/>
<path d="M7.12598 15.4688H15.5192C15.9075 15.4688 16.2223 15.1539 16.2223 14.7656C16.2223 14.3773 15.9075 14.0625 15.5192 14.0625H7.12598C6.73766 14.0625 6.42285 14.3773 6.42285 14.7656C6.42285 15.1539 6.73766 15.4688 7.12598 15.4688Z" fill="#FEBC11"/>
</svg>
