<svg width="19" height="20" viewBox="0 0 19 20" fill="none" xmlns="http://www.w3.org/2000/svg">
<mask id="mask0_1062_915" style="mask-type:luminance" maskUnits="userSpaceOnUse" x="0" y="0" width="19" height="20">
<path fill-rule="evenodd" clip-rule="evenodd" d="M0 0H19V20H0V0Z" fill="white"/>
</mask>
<g mask="url(#mask0_1062_915)">
<path fill-rule="evenodd" clip-rule="evenodd" d="M10.8596 13.291C11.9755 13.291 12.8838 14.1959 12.8838 15.3082V18.1689C12.8838 18.4079 13.0747 18.5995 13.3194 18.6051H15.086C16.4781 18.6051 17.6097 17.4835 17.6097 16.1052V7.99173C17.6033 7.51742 17.378 7.07102 16.9915 6.77434L10.8809 1.88431C10.0606 1.23237 8.91322 1.23237 8.09019 1.88618L2.02125 6.77248C1.61993 7.07846 1.39471 7.52486 1.39008 8.00754V16.1052C1.39008 17.4835 2.52175 18.6051 3.91386 18.6051H5.69709C5.94827 18.6051 6.15217 18.4051 6.15217 18.1596C6.15217 18.1057 6.15866 18.0517 6.16978 18.0006V15.3082C6.16978 14.2024 7.07252 13.2984 8.18009 13.291H10.8596ZM15.086 20.0001H13.3027C12.2814 19.9759 11.4935 19.1714 11.4935 18.1689V15.3081C11.4935 14.965 11.209 14.686 10.8596 14.686H8.18473C7.84272 14.6878 7.56004 14.9678 7.56004 15.3081V18.1596C7.56004 18.2293 7.55077 18.2963 7.53131 18.3595C7.43121 19.2802 6.6471 20.0001 5.69709 20.0001H3.91386C1.75525 20.0001 -0.000183105 18.2526 -0.000183105 16.1052V8.00101C0.00908528 7.07657 0.433577 6.23026 1.16671 5.67318L7.2236 0.795244C8.55732 -0.264975 10.4156 -0.264975 11.7466 0.793384L17.847 5.67597C18.5635 6.22375 18.988 7.0682 19 7.98148V16.1052C19 18.2526 17.2446 20.0001 15.086 20.0001Z" fill="#232440"/>
</g>
</svg>
