<svg width="21" height="21" viewBox="0 0 21 21" fill="none" xmlns="http://www.w3.org/2000/svg">
<path d="M7.10938 9.625H2.51563C1.12853 9.625 0 8.49647 0 7.10938V2.51563C0 1.12853 1.12853 0 2.51563 0H7.10938C8.49647 0 9.625 1.12853 9.625 2.51563V7.10938C9.625 8.49647 8.49647 9.625 7.10938 9.625ZM2.51563 1.75C2.09344 1.75 1.75 2.09344 1.75 2.51563V7.10938C1.75 7.53157 2.09344 7.875 2.51563 7.875H7.10938C7.53157 7.875 7.875 7.53157 7.875 7.10938V2.51563C7.875 2.09344 7.53157 1.75 7.10938 1.75H2.51563Z" fill="#665AF0"/>
<path d="M7.10938 21H2.51563C1.12853 21 0 19.8715 0 18.4844V13.8906C0 12.5035 1.12853 11.375 2.51563 11.375H7.10938C8.49647 11.375 9.625 12.5035 9.625 13.8906V18.4844C9.625 19.8715 8.49647 21 7.10938 21ZM2.51563 13.125C2.09344 13.125 1.75 13.4684 1.75 13.8906V18.4844C1.75 18.9066 2.09344 19.25 2.51563 19.25H7.10938C7.53157 19.25 7.875 18.9066 7.875 18.4844V13.8906C7.875 13.4684 7.53157 13.125 7.10938 13.125H2.51563Z" fill="#665AF0"/>
<path d="M18.4844 9.625H13.8907C12.5036 9.625 11.375 8.49647 11.375 7.10938V2.51563C11.375 1.12853 12.5036 0 13.8907 0H18.4844C19.8715 0 21 1.12853 21 2.51563V7.10938C21 8.49647 19.8715 9.625 18.4844 9.625ZM13.8907 1.75C13.4685 1.75 13.125 2.09344 13.125 2.51563V7.10938C13.125 7.53157 13.4685 7.875 13.8907 7.875H18.4844C18.9066 7.875 19.25 7.53157 19.25 7.10938V2.51563C19.25 2.09344 18.9066 1.75 18.4844 1.75H13.8907Z" fill="#665AF0"/>
<path d="M19.5782 15.75H17.5V12.7969C17.5 12.0129 16.8622 11.375 16.0782 11.375H12.7969C12.0129 11.375 11.375 12.0129 11.375 12.7969V16.0781C11.375 16.8621 12.0129 17.5 12.7969 17.5H15.75V19.5781C15.75 20.3621 16.3879 21 17.1719 21H19.5782C20.3622 21 21 20.3621 21 19.5781V17.1719C21 16.3879 20.3622 15.75 19.5782 15.75ZM13.125 13.125H15.75V15.75H13.125V13.125ZM19.25 19.25H17.5V17.5H19.25V19.25Z" fill="#FEBC11"/>
<path d="M5.25003 6.125H4.37503C3.89176 6.125 3.50003 5.73322 3.50003 5.25V4.375C3.50003 3.89178 3.89176 3.5 4.37503 3.5H5.25003C5.73331 3.5 6.12503 3.89178 6.12503 4.375V5.25C6.12503 5.73322 5.73331 6.125 5.25003 6.125Z" fill="#665AF0"/>
<path d="M16.625 6.125H15.75C15.2667 6.125 14.875 5.73322 14.875 5.25V4.375C14.875 3.89178 15.2667 3.5 15.75 3.5H16.625C17.1082 3.5 17.5 3.89178 17.5 4.375V5.25C17.5 5.73322 17.1082 6.125 16.625 6.125Z" fill="#665AF0"/>
<path d="M5.25003 17.5H4.37503C3.89176 17.5 3.50003 17.1082 3.50003 16.625V15.75C3.50003 15.2668 3.89176 14.875 4.37503 14.875H5.25003C5.73331 14.875 6.12503 15.2668 6.12503 15.75V16.625C6.12503 17.1082 5.73331 17.5 5.25003 17.5Z" fill="#665AF0"/>
</svg>
