<svg width="18" height="20" viewBox="0 0 18 20" fill="none" xmlns="http://www.w3.org/2000/svg">
<mask id="mask0_178_256" style="mask-type:luminance" maskUnits="userSpaceOnUse" x="0" y="0" width="18" height="17">
<path fill-rule="evenodd" clip-rule="evenodd" d="M0 0H18V16.1376H0V0Z" fill="white"/>
</mask>
<g mask="url(#mask0_178_256)">
<path fill-rule="evenodd" clip-rule="evenodd" d="M8.99861 1.39536C5.5975 1.39536 3.22695 3.94233 3.22695 6.22791C3.22695 8.16186 2.66545 9.05581 2.16915 9.84464C1.77114 10.4781 1.45682 10.9786 1.45682 12.066C1.61933 13.8205 2.83088 14.7423 8.99861 14.7423C15.1323 14.7423 16.3818 13.7795 16.5433 12.0056C16.5404 10.9786 16.2261 10.4781 15.8281 9.84464C15.3318 9.05581 14.7703 8.16186 14.7703 6.22791C14.7703 3.94233 12.3997 1.39536 8.99861 1.39536ZM8.99859 16.1376C4.44821 16.1376 0.335745 15.8307 1.29959e-05 12.1256C-0.00290641 10.5925 0.48658 9.81301 0.918652 9.1265C1.35559 8.43068 1.76723 7.77487 1.76723 6.2279C1.76723 3.22046 4.67301 0 8.99859 0C13.3242 0 16.23 3.22046 16.23 6.2279C16.23 7.77487 16.6416 8.43068 17.0785 9.1265C17.5106 9.81301 18.0001 10.5925 18.0001 12.066C17.6605 15.8307 13.549 16.1376 8.99859 16.1376Z" fill="white"/>
</g>
<path fill-rule="evenodd" clip-rule="evenodd" d="M8.95106 20H8.94911C7.85823 19.9991 6.82573 19.5396 6.04236 18.7051C5.7728 18.4196 5.79713 17.9777 6.09685 17.721C6.39658 17.4624 6.85785 17.4856 7.1274 17.773C7.63149 18.3098 8.27862 18.6047 8.95008 18.6047H8.95106C9.62544 18.6047 10.2755 18.3098 10.7806 17.7721C11.0511 17.4865 11.5123 17.4633 11.8111 17.721C12.1108 17.9786 12.1352 18.4205 11.8656 18.7061C11.0793 19.5405 10.0449 20 8.95106 20Z" fill="white"/>
</svg>
