<svg width="16" height="13" viewBox="0 0 16 13" fill="none" xmlns="http://www.w3.org/2000/svg">
<path fill-rule="evenodd" clip-rule="evenodd" d="M6.24265 8.98724C6.74223 9.31097 7.35109 9.50671 7.99898 9.50671C9.71628 9.50671 11.1135 8.15909 11.1135 6.5028C11.1135 5.87793 10.9106 5.2907 10.5749 4.80887L9.72408 5.62949C9.86459 5.88546 9.94265 6.1866 9.94265 6.5028C9.94265 7.53422 9.06839 8.37742 7.99898 8.37742C7.67113 8.37742 7.3589 8.30214 7.09349 8.16662L6.24265 8.98724ZM13.143 2.33198C14.2749 3.32576 15.235 4.66585 15.9532 6.27697C16.0156 6.42001 16.0156 6.58564 15.9532 6.72115C14.2827 10.4704 11.3086 12.7139 7.99894 12.7139H7.99114C6.4846 12.7139 5.0405 12.2396 3.76814 11.3738L2.2538 12.8344C2.13671 12.9473 1.98839 13 1.84008 13C1.69177 13 1.53565 12.9473 1.42637 12.8344C1.23122 12.6462 1.2 12.345 1.35612 12.1267L1.37953 12.0966L12.9245 0.961778C12.9401 0.946721 12.9557 0.931664 12.9635 0.916606C12.9791 0.901549 12.9947 0.886492 13.0025 0.871435L13.7363 0.163747C13.9705 -0.0545823 14.3373 -0.0545823 14.5637 0.163747C14.7979 0.382076 14.7979 0.743449 14.5637 0.961778L13.143 2.33198ZM4.87869 6.50576C4.87869 6.7015 4.90211 6.89725 4.93333 7.07793L2.04515 9.86351C1.26456 8.9902 0.585443 7.93619 0.0468354 6.72409C-0.0156118 6.58857 -0.0156118 6.42295 0.0468354 6.2799C1.7173 2.53066 4.69135 0.29467 7.99325 0.29467H8.00105C9.1173 0.29467 10.2023 0.550642 11.2015 1.03247L8.5943 3.54702C8.40696 3.51691 8.20401 3.49432 8.00105 3.49432C6.27595 3.49432 4.87869 4.84194 4.87869 6.50576Z" fill="#7F7F92"/>
</svg>
