<svg width="16" height="12" viewBox="0 0 16 12" fill="none" xmlns="http://www.w3.org/2000/svg">
<path fill-rule="evenodd" clip-rule="evenodd" d="M4.87805 6C4.87805 7.6 6.27513 8.90182 8 8.90182C9.71708 8.90182 11.1141 7.6 11.1141 6C11.1141 4.39273 9.71708 3.09091 8 3.09091C6.27513 3.09091 4.87805 4.39273 4.87805 6ZM12.5893 1.53455C13.9551 2.52364 15.118 3.97091 15.9532 5.78182C16.0156 5.92 16.0156 6.08 15.9532 6.21091C14.2829 9.83273 11.3093 12 8 12H7.9922C4.69073 12 1.71707 9.83273 0.0468293 6.21091C-0.0156098 6.08 -0.0156098 5.92 0.0468293 5.78182C1.71707 2.16 4.69073 0 7.9922 0H8C9.65463 0 11.2234 0.538182 12.5893 1.53455ZM8.0009 7.80931C9.07017 7.80931 9.94432 6.99477 9.94432 5.9984C9.94432 4.99477 9.07017 4.18022 8.0009 4.18022C7.90724 4.18022 7.81359 4.18749 7.72773 4.20204C7.69651 5.00204 6.99407 5.64204 6.12773 5.64204H6.08871C6.06529 5.7584 6.04968 5.87477 6.04968 5.9984C6.04968 6.99477 6.92383 7.80931 8.0009 7.80931Z" fill="#7F7F92"/>
</svg>
