<svg width="16" height="20" viewBox="0 0 16 20" fill="none" xmlns="http://www.w3.org/2000/svg">
<mask id="mask0_1062_703" style="mask-type:luminance" maskUnits="userSpaceOnUse" x="0" y="12" width="16" height="8">
<path fill-rule="evenodd" clip-rule="evenodd" d="M0 12.5778H16V20H0V12.5778Z" fill="white"/>
</mask>
<g mask="url(#mask0_1062_703)">
<path fill-rule="evenodd" clip-rule="evenodd" d="M8.00095 14.0876C3.69688 14.0876 1.51505 14.8244 1.51505 16.2788C1.51505 17.7464 3.69688 18.4902 8.00095 18.4902C12.304 18.4902 14.4848 17.7534 14.4848 16.2989C14.4848 14.8314 12.304 14.0876 8.00095 14.0876ZM8.00097 20C6.02217 20 -9.15527e-05 20 -9.15527e-05 16.2788C-9.15527e-05 12.9613 4.5666 12.5778 8.00097 12.5778C9.97977 12.5778 16 12.5778 16 16.2989C16 19.6165 11.4343 20 8.00097 20Z" fill="#232440"/>
</g>
<mask id="mask1_1062_703" style="mask-type:luminance" maskUnits="userSpaceOnUse" x="2" y="0" width="12" height="11">
<path fill-rule="evenodd" clip-rule="evenodd" d="M2.63623 0H13.3636V10.6881H2.63623V0Z" fill="white"/>
</mask>
<g mask="url(#mask1_1062_703)">
<path fill-rule="evenodd" clip-rule="evenodd" d="M8.001 1.43695C5.83836 1.43695 4.07876 3.18934 4.07876 5.34435C4.07169 7.49231 5.81816 9.2437 7.97171 9.25175L8.001 9.97042V9.25175C10.1626 9.25175 11.9212 7.49835 11.9212 5.34435C11.9212 3.18934 10.1626 1.43695 8.001 1.43695ZM8.00094 10.6881H7.96862C5.01709 10.679 2.62616 8.28043 2.63626 5.34132C2.63626 2.39719 5.04234 -0.000396729 8.00094 -0.000396729C10.9585 -0.000396729 13.3636 2.39719 13.3636 5.34434C13.3636 8.2915 10.9585 10.6881 8.00094 10.6881Z" fill="#232440"/>
</g>
</svg>
