<svg width="24" height="20" viewBox="0 0 24 20" fill="none" xmlns="http://www.w3.org/2000/svg">
<path d="M23.1699 10.0459C23.628 10.046 24 10.4173 24 10.876C24 11.3336 23.6281 11.704 23.1699 11.7041H22.0117V15.6592C22.0117 18.054 20.0617 20 17.666 20H15.9287C15.4695 20 15.0968 19.6285 15.0967 19.1699C15.0967 18.7123 15.4694 18.3408 15.9287 18.3408H17.666C19.1464 18.3408 20.3506 17.1388 20.3506 15.6592V11.7041H17.4893V12.8057C17.5002 14.1839 16.3927 15.3102 15.0127 15.3232H8.9873C7.6084 15.3102 6.50081 14.1839 6.51172 12.8057V11.7041H3.65039V15.6631C3.65039 17.1372 4.85121 18.3376 6.32715 18.3398L8.10352 18.3408C8.56159 18.341 8.93359 18.7124 8.93359 19.1699C8.93241 19.6284 8.56159 19.9998 8.10254 20L6.3252 19.999C3.93501 19.9968 1.98828 18.0514 1.98828 15.6631V11.7041H0.831055C0.372973 11.704 0 11.3335 0 10.876C4.02003e-05 10.4174 0.372997 10.046 0.831055 10.0459H23.1699ZM8.10254 0C8.56067 0 8.93351 0.37145 8.93359 0.830078C8.93359 1.28769 8.56181 1.65918 8.10254 1.65918L6.32617 1.66016C4.85126 1.66234 3.65137 2.86274 3.65137 4.33691V6.40234C3.65131 6.85991 3.27748 7.23242 2.81934 7.23242C2.36135 7.23224 1.98932 6.85979 1.98926 6.40234V4.33691C1.98926 1.94861 3.93501 0.00315567 6.3252 0.000976562L8.10156 0H8.10254ZM17.666 0C20.0626 0.000128031 22.0106 1.94626 22.0107 4.33984V6.40234C22.0107 6.85996 21.6399 7.23242 21.1807 7.23242C20.7225 7.23241 20.3506 6.85995 20.3506 6.40234V4.33984C20.3505 2.86148 19.1462 1.65833 17.666 1.6582H15.9277C15.4698 1.65808 15.0979 1.28837 15.0977 0.831055C15.0977 0.372427 15.4697 0.000122073 15.9277 0H17.666Z" fill="#665AF0"/>
<path d="M15.0015 4.09998H8.97537C7.59646 4.11414 6.4881 5.23965 6.5001 6.61794V8.00168C6.50337 8.16293 6.63319 8.29477 6.79464 8.30022H17.1801C17.3426 8.29586 17.4725 8.16402 17.4779 8.00168V6.61794C17.479 5.95222 17.2215 5.31265 16.7568 4.83652C16.2954 4.36474 15.6615 4.09998 15.0015 4.09998Z" fill="#FABE3C"/>
</svg>
