<svg width="19" height="20" viewBox="0 0 19 20" fill="none" xmlns="http://www.w3.org/2000/svg">
<mask id="mask0_322_385" style="mask-type:luminance" maskUnits="userSpaceOnUse" x="0" y="0" width="19" height="20">
<path fill-rule="evenodd" clip-rule="evenodd" d="M0 0H19V20H0V0Z" fill="white"/>
</mask>
<g mask="url(#mask0_322_385)">
<path fill-rule="evenodd" clip-rule="evenodd" d="M5.12546 14.9028C5.35107 14.9028 5.57669 14.9307 5.79738 14.9887C6.4634 15.1643 7.04173 15.6006 7.38459 16.1865C7.60725 16.5542 7.7304 16.9837 7.73434 17.4219C7.73434 18.0493 8.24863 18.5522 8.88115 18.5522H10.1156C10.7452 18.5522 11.2595 18.0522 11.2625 17.4354C11.2585 16.754 11.5304 16.1064 12.028 15.6189C12.5186 15.1383 13.2043 14.8497 13.8901 14.869C14.3393 14.8796 14.7718 14.9983 15.1531 15.2107C15.7019 15.5186 16.4024 15.3352 16.7196 14.8043L17.3738 13.7358C17.5196 13.4897 17.562 13.1808 17.4842 12.8961C17.4073 12.6114 17.2142 12.3643 16.9541 12.2185C16.3452 11.8749 15.9108 11.3209 15.7305 10.6568C15.5521 10.0053 15.6497 9.29395 15.9975 8.70807C16.2241 8.32199 16.5561 7.99672 16.9541 7.77279C17.4881 7.46682 17.6753 6.78249 17.365 6.2497C17.3522 6.22846 17.3403 6.20626 17.3305 6.1831L16.7531 5.20245C16.4388 4.66676 15.7393 4.48241 15.1906 4.78838C14.5975 5.13199 13.892 5.23044 13.2142 5.05574C12.5373 4.88393 11.9698 4.46407 11.6161 3.87143C11.3895 3.5008 11.2664 3.06935 11.2625 2.63018C11.2713 2.30008 11.1531 2.00376 10.9383 1.78659C10.7245 1.57039 10.424 1.44781 10.1156 1.44781H8.88115C8.57573 1.44781 8.29001 1.5646 8.07425 1.77501C7.85947 1.98639 7.74223 2.26726 7.7442 2.56648C7.72351 3.97761 6.54616 5.11365 5.12053 5.11365C4.66338 5.10883 4.22299 4.98818 3.84072 4.76425C3.30377 4.46504 2.60228 4.64939 2.288 5.18508L1.621 6.25935C1.31557 6.77863 1.50277 7.46489 2.04661 7.77472C2.85352 8.23223 3.35697 9.08547 3.35697 10.0005C3.35697 10.9155 2.85352 11.7678 2.04464 12.2262C1.50375 12.5332 1.31656 13.2156 1.62986 13.7464L2.25154 14.7966C2.40524 15.0678 2.65647 15.2637 2.94711 15.3439C3.23677 15.423 3.55599 15.3892 3.822 15.2444C4.21313 15.0195 4.66831 14.9028 5.12546 14.9028ZM10.1157 20H8.88117C7.43387 20 6.25652 18.8475 6.25652 17.4297C6.25455 17.255 6.20332 17.0735 6.10775 16.9162C5.95307 16.6517 5.70282 16.4625 5.41415 16.3872C5.12745 16.312 4.81316 16.3535 4.55503 16.5002C3.93631 16.838 3.20822 16.92 2.54221 16.7366C1.87718 16.5523 1.30279 16.1044 0.96584 15.5108L0.350071 14.4713C-0.370131 13.2474 0.0584435 11.679 1.30574 10.9724C1.65944 10.7726 1.87915 10.4001 1.87915 10.0005C1.87915 9.60089 1.65944 9.22735 1.30574 9.02756C0.0574584 8.31717 -0.370131 6.74485 0.349086 5.52097L1.01707 4.4467C1.72742 3.23633 3.33335 2.80971 4.58557 3.51431C4.75602 3.61373 4.94124 3.66392 5.12942 3.66585C5.74322 3.66585 6.25652 3.16973 6.26637 2.55972C6.26243 1.88697 6.53337 1.24125 7.02697 0.753825C7.52254 0.267362 8.18067 0 8.88117 0H10.1157C10.8211 0 11.5068 0.28377 11.9984 0.77699C12.4891 1.2731 12.76 1.95357 12.7393 2.64369C12.7413 2.79909 12.7935 2.97862 12.8881 3.13595C13.0448 3.39655 13.292 3.57994 13.5856 3.65523C13.8792 3.72665 14.1866 3.68805 14.4477 3.53651C15.7088 2.83094 17.3137 3.2537 18.034 4.47951L18.6477 5.52097C18.6635 5.54896 18.6773 5.57599 18.6891 5.60398C19.3414 6.81145 18.9059 8.33164 17.694 9.02563C17.5177 9.12504 17.3748 9.26403 17.2763 9.43198C17.1236 9.69162 17.0812 10.0005 17.1581 10.2843C17.2369 10.5738 17.4251 10.8141 17.6901 10.9628C18.2881 11.2996 18.7344 11.8672 18.9128 12.5226C19.0911 13.177 18.9936 13.8874 18.6458 14.4732L17.9916 15.5408C17.2714 16.7531 15.6664 17.1729 14.4182 16.4664C14.2517 16.3728 14.0595 16.3216 13.8684 16.3168H13.8625C13.5778 16.3168 13.2851 16.4355 13.0723 16.643C12.8566 16.8544 12.7383 17.1362 12.7403 17.4355C12.7334 18.8533 11.5561 20 10.1157 20Z" fill="#232440"/>
</g>
<path fill-rule="evenodd" clip-rule="evenodd" d="M9.50274 8.17925C8.4781 8.17925 7.6446 8.99678 7.6446 10.0006C7.6446 11.0044 8.4781 11.82 9.50274 11.82C10.5274 11.82 11.3609 11.0044 11.3609 10.0006C11.3609 8.99678 10.5274 8.17925 9.50274 8.17925ZM9.50273 13.2678C7.66331 13.2678 6.16675 11.8026 6.16675 10.0006C6.16675 8.19856 7.66331 6.73145 9.50273 6.73145C11.3422 6.73145 12.8387 8.19856 12.8387 10.0006C12.8387 11.8026 11.3422 13.2678 9.50273 13.2678Z" fill="#232440"/>
</svg>
