<svg width="20" height="19" viewBox="0 0 20 19" fill="none" xmlns="http://www.w3.org/2000/svg">
<path fill-rule="evenodd" clip-rule="evenodd" d="M10.0001 1.5405C9.90679 1.5405 9.67704 1.56618 9.55499 1.8106L7.68213 5.56019C7.38572 6.15277 6.81442 6.5646 6.1539 6.65908L1.961 7.26398C1.68407 7.30404 1.58971 7.50944 1.56099 7.59571C1.53535 7.67889 1.49433 7.89046 1.6851 8.07326L4.71695 10.9899C5.20003 11.4552 5.41953 12.1258 5.30465 12.7821L4.59079 16.9003C4.54669 17.1581 4.70772 17.3081 4.77951 17.3594C4.85541 17.4169 5.05849 17.5309 5.30978 17.3995L9.05857 15.4533C9.64935 15.1483 10.3529 15.1483 10.9417 15.4533L14.6894 17.3984C14.9418 17.5289 15.1448 17.4149 15.2218 17.3594C15.2936 17.3081 15.4546 17.1581 15.4105 16.9003L14.6946 12.7821C14.5797 12.1258 14.7992 11.4552 15.2823 10.9899L18.3141 8.07326C18.5059 7.89046 18.4649 7.67787 18.4382 7.59571C18.4105 7.50944 18.3162 7.30404 18.0392 7.26398L13.8463 6.65908C13.1868 6.5646 12.6156 6.15277 12.3191 5.55916L10.4442 1.8106C10.3232 1.56618 10.0935 1.5405 10.0001 1.5405ZM5.07385 18.9995C4.65026 18.9995 4.22973 18.866 3.86973 18.6031C3.24818 18.1471 2.94356 17.3943 3.07587 16.6364L3.78973 12.5181C3.81639 12.3651 3.76409 12.21 3.65126 12.1012L0.619412 9.18448C0.0614535 8.64941 -0.13855 7.85862 0.0973516 7.12431C0.335305 6.38179 0.96506 5.85083 1.74148 5.73991L5.93438 5.13501C6.09644 5.11242 6.23593 5.0128 6.30567 4.87107L8.17955 1.12046C8.5252 0.429287 9.22265 0 10.0001 0C10.7775 0 11.475 0.429287 11.8206 1.12046L13.6955 4.87004C13.7663 5.0128 13.9048 5.11242 14.0658 5.13501L18.2587 5.73991C19.0351 5.85083 19.6649 6.38179 19.9028 7.12431C20.1387 7.85862 19.9377 8.64941 19.3798 9.18448L16.3479 12.1012C16.2351 12.21 16.1838 12.3651 16.2105 12.5171L16.9254 16.6364C17.0566 17.3954 16.752 18.1482 16.1294 18.6031C15.4987 19.0663 14.6771 19.1289 13.9807 18.7654L10.2339 16.8213C10.0873 16.7453 9.91189 16.7453 9.76522 16.8213L6.01849 18.7664C5.71899 18.9225 5.39591 18.9995 5.07385 18.9995Z" fill="#232440"/>
</svg>
