<svg width="24" height="20" viewBox="0 0 24 20" fill="none" xmlns="http://www.w3.org/2000/svg">
<path fill-rule="evenodd" clip-rule="evenodd" d="M9.18636 1.81818C6.52324 1.81818 4.36435 3.85325 4.36435 6.36364H2.43555C2.43555 2.8491 5.45799 0 9.18636 0H14.3555C18.0839 0 21.1064 2.8491 21.1064 6.36364H19.1776C19.1776 3.85325 17.0187 1.81818 14.3555 1.81818H9.18636ZM4.36435 13.6364C4.36435 16.1467 6.52324 18.1818 9.18636 18.1818H14.3555C17.0187 18.1818 19.1776 16.1467 19.1776 13.6364H21.1064C21.1064 17.1509 18.0839 20 14.3555 20H9.18636C5.45799 20 2.43555 17.1509 2.43555 13.6364H4.36435Z" fill="#665AF0"/>
<path d="M6.40584 8.69562H0.546996C0.244866 8.69562 0 9.15301 0 9.71736C0 10.2814 0.244866 10.7391 0.546996 10.7391H6.40584C6.70797 10.7391 6.95284 10.2814 6.95284 9.71736C6.95284 9.15301 6.70797 8.69562 6.40584 8.69562Z" fill="#FEBC11"/>
<path d="M23.453 8.69562H17.5941C17.292 8.69562 17.0471 9.15301 17.0471 9.71736C17.0471 10.2814 17.292 10.7391 17.5941 10.7391H23.453C23.7551 10.7391 24 10.2814 24 9.71736C24 9.15301 23.7551 8.69562 23.453 8.69562Z" fill="#FEBC11"/>
</svg>
