<svg width="20" height="18" viewBox="0 0 20 18" fill="none" xmlns="http://www.w3.org/2000/svg">
<mask id="mask0_322_362" style="mask-type:luminance" maskUnits="userSpaceOnUse" x="0" y="11" width="16" height="7">
<path fill-rule="evenodd" clip-rule="evenodd" d="M0 11.294H15.1998V18H0V11.294Z" fill="white"/>
</mask>
<g mask="url(#mask0_322_362)">
<path fill-rule="evenodd" clip-rule="evenodd" d="M7.59962 12.7109C4.8177 12.7109 1.50122 13.0481 1.50122 14.6585C1.50122 15.9356 3.55338 16.5835 7.59962 16.5835C11.6459 16.5835 13.698 15.929 13.698 14.6396C13.698 13.3598 11.6459 12.7109 7.59962 12.7109ZM7.59974 18.0004C5.52155 18.0004 -0.000244141 18.0004 -0.000244141 14.6585C-0.000244141 11.294 5.71976 11.294 7.59974 11.294C10.8622 11.294 15.1997 11.6407 15.1997 14.6396C15.1997 18.0004 9.47971 18.0004 7.59974 18.0004Z" fill="#232440"/>
</g>
<path fill-rule="evenodd" clip-rule="evenodd" d="M7.59978 1.41683C5.59267 1.41683 3.95996 2.9574 3.95996 4.85029C3.95996 6.74318 5.59267 8.28374 7.59978 8.28374H7.63082C8.59583 8.27997 9.50478 7.92198 10.1865 7.27307C10.8692 6.62605 11.2426 5.76556 11.2386 4.85312C11.2386 2.9574 9.60589 1.41683 7.59978 1.41683ZM7.59989 9.70058C4.76492 9.70058 2.4585 7.52432 2.4585 4.85029C2.4585 2.17625 4.76492 0 7.59989 0C10.4339 0 12.7403 2.17625 12.7403 4.85029C12.7463 6.13866 12.2167 7.35525 11.2517 8.27147C10.2887 9.18863 9.00237 9.69585 7.63393 9.70058H7.59989Z" fill="#232440"/>
<path fill-rule="evenodd" clip-rule="evenodd" d="M14.4976 8.62547C14.1292 8.62547 13.8079 8.36949 13.7548 8.01528C13.6978 7.62802 13.9831 7.26908 14.3935 7.21524C15.6428 7.04995 16.5858 6.027 16.5878 4.83497C16.5878 3.6505 15.6889 2.65116 14.4526 2.46036C14.0431 2.39613 13.7658 2.03247 13.8329 1.64615C13.9 1.25983 14.2874 1.00008 14.6948 1.06147C16.6619 1.36562 18.0894 2.95341 18.0894 4.83591C18.0854 6.72974 16.5868 8.35627 14.6027 8.61885C14.5677 8.62358 14.5326 8.62547 14.4976 8.62547Z" fill="#232440"/>
<mask id="mask1_322_362" style="mask-type:luminance" maskUnits="userSpaceOnUse" x="15" y="10" width="5" height="6">
<path fill-rule="evenodd" clip-rule="evenodd" d="M15.8618 10.8466H19.9999V15.5482H15.8618V10.8466Z" fill="white"/>
</mask>
<g mask="url(#mask1_322_362)">
<path fill-rule="evenodd" clip-rule="evenodd" d="M17.9142 15.5482C17.6109 15.5482 17.3256 15.3735 17.2125 15.091C17.0654 14.7255 17.2606 14.3156 17.648 14.1776C18.4989 13.8735 18.4989 13.5023 18.4989 13.3436C18.4989 12.808 17.8272 12.4416 16.5028 12.2555C16.0923 12.1969 15.809 11.8361 15.8701 11.4498C15.9322 11.0625 16.3216 10.8028 16.724 10.8528C19.4328 11.2354 20.0004 12.4189 20.0004 13.3436C20.0004 14.0322 19.6851 14.9645 18.1805 15.5019C18.0934 15.5331 18.0033 15.5482 17.9142 15.5482Z" fill="#232440"/>
</g>
</svg>
