<svg width="17" height="20" viewBox="0 0 17 20" fill="none" xmlns="http://www.w3.org/2000/svg">
<path fill-rule="evenodd" clip-rule="evenodd" d="M3.86507 8.198C3.44429 8.198 3.10278 7.862 3.10278 7.448V5.301C3.116 2.363 5.53092 0 8.49164 0H8.51197C10.8049 0 12.8519 1.433 13.603 3.567C13.7413 3.958 13.5298 4.385 13.1314 4.521C12.734 4.658 12.3 4.449 12.1618 4.057C11.6241 2.528 10.1555 1.5 8.50892 1.5H8.49469C6.36842 1.5 4.6365 3.194 4.62736 5.284V7.448C4.62736 7.862 4.28585 8.198 3.86507 8.198Z" fill="#232440"/>
<path fill-rule="evenodd" clip-rule="evenodd" d="M4.61641 8.12671C2.91092 8.12671 1.52457 9.49171 1.52457 11.1697V15.4577C1.52457 17.1357 2.91092 18.5007 4.61641 18.5007H12.3836C14.0881 18.5007 15.4754 17.1357 15.4754 15.4577V11.1697C15.4754 9.49171 14.0881 8.12671 12.3836 8.12671H4.61641ZM12.3836 20.0007H4.61641C2.07037 20.0007 0 17.9627 0 15.4577V11.1697C0 8.66471 2.07037 6.62671 4.61641 6.62671H12.3836C14.9286 6.62671 17 8.66471 17 11.1697V15.4577C17 17.9627 14.9286 20.0007 12.3836 20.0007Z" fill="#232440"/>
<path fill-rule="evenodd" clip-rule="evenodd" d="M8.50032 15.1745C8.07954 15.1745 7.73804 14.8385 7.73804 14.4245V12.2025C7.73804 11.7885 8.07954 11.4525 8.50032 11.4525C8.92111 11.4525 9.26261 11.7885 9.26261 12.2025V14.4245C9.26261 14.8385 8.92111 15.1745 8.50032 15.1745Z" fill="#232440"/>
</svg>
