<svg width="20" height="18" viewBox="0 0 20 18" fill="none" xmlns="http://www.w3.org/2000/svg">
<path fill-rule="evenodd" clip-rule="evenodd" d="M19.2733 12.1067H15.3506C13.5123 12.1067 12.0161 10.6581 12.0151 8.87813C12.0151 7.09624 13.5114 5.64669 15.3506 5.64575H19.2733C19.6745 5.64575 20.0001 5.9612 20.0001 6.34987C20.0001 6.73854 19.6745 7.05399 19.2733 7.05399H15.3506C14.3128 7.05493 13.4687 7.87265 13.4687 8.87719C13.4687 9.88079 14.3137 10.6985 15.3506 10.6985H19.2733C19.6745 10.6985 20.0001 11.014 20.0001 11.4026C20.0001 11.7913 19.6745 12.1067 19.2733 12.1067Z" fill="#232440"/>
<path fill-rule="evenodd" clip-rule="evenodd" d="M15.794 9.52304H15.4917C15.0905 9.52304 14.7649 9.2076 14.7649 8.81893C14.7649 8.43025 15.0905 8.11481 15.4917 8.11481H15.794C16.1952 8.11481 16.5208 8.43025 16.5208 8.81893C16.5208 9.2076 16.1952 9.52304 15.794 9.52304Z" fill="#232440"/>
<mask id="mask0_322_340" style="mask-type:luminance" maskUnits="userSpaceOnUse" x="0" y="0" width="20" height="18">
<path fill-rule="evenodd" clip-rule="evenodd" d="M0 0H19.9999V18H0V0Z" fill="white"/>
</mask>
<g mask="url(#mask0_322_340)">
<path fill-rule="evenodd" clip-rule="evenodd" d="M5.81193 1.40823C3.40867 1.40823 1.45312 3.30278 1.45312 5.63106V12.369C1.45312 14.6973 3.40867 16.5918 5.81193 16.5918H14.1884C16.5917 16.5918 18.5463 14.6973 18.5463 12.369V5.63106C18.5463 3.30278 16.5917 1.40823 14.1884 1.40823H5.81193ZM14.1884 18.0001H5.81189C2.60723 18.0001 -0.000488281 15.4737 -0.000488281 12.369V5.63107C-0.000488281 2.52544 2.60723 0 5.81189 0H14.1884C17.393 0 19.9998 2.52544 19.9998 5.63107V12.369C19.9998 15.4737 17.393 18.0001 14.1884 18.0001Z" fill="#232440"/>
</g>
<path fill-rule="evenodd" clip-rule="evenodd" d="M10.354 5.66874H5.12205C4.72087 5.66874 4.39526 5.35329 4.39526 4.96462C4.39526 4.57594 4.72087 4.2605 5.12205 4.2605H10.354C10.7552 4.2605 11.0808 4.57594 11.0808 4.96462C11.0808 5.35329 10.7552 5.66874 10.354 5.66874Z" fill="#232440"/>
</svg>
