<svg width="24" height="21" viewBox="0 0 24 21" fill="none" xmlns="http://www.w3.org/2000/svg">
<path fill-rule="evenodd" clip-rule="evenodd" d="M23.1279 14.1245H18.4206C16.2147 14.1245 14.4192 12.4345 14.418 10.3578C14.418 8.2789 16.2135 6.58777 18.4206 6.58667H23.1279C23.6093 6.58667 24 6.95469 24 7.40814C24 7.8616 23.6093 8.22961 23.1279 8.22961H18.4206C17.1752 8.23071 16.1623 9.18471 16.1623 10.3567C16.1623 11.5276 17.1763 12.4816 18.4206 12.4816H23.1279C23.6093 12.4816 24 12.8496 24 13.303C24 13.7565 23.6093 14.1245 23.1279 14.1245Z" fill="#FEBC11"/>
<path fill-rule="evenodd" clip-rule="evenodd" d="M18.9527 11.1102H18.5899C18.1085 11.1102 17.7178 10.7422 17.7178 10.2888C17.7178 9.83531 18.1085 9.46729 18.5899 9.46729H18.9527C19.4342 9.46729 19.8249 9.83531 19.8249 10.2888C19.8249 10.7422 19.4342 11.1102 18.9527 11.1102Z" fill="#FEBC11"/>
<mask id="mask0_182_324" style="mask-type:luminance" maskUnits="userSpaceOnUse" x="0" y="0" width="24" height="21">
<path fill-rule="evenodd" clip-rule="evenodd" d="M0 0H23.9999V21H0V0Z" fill="white"/>
</mask>
<g mask="url(#mask0_182_324)">
<path fill-rule="evenodd" clip-rule="evenodd" d="M6.97441 1.64293C4.09051 1.64293 1.74385 3.85324 1.74385 6.56957V14.4305C1.74385 17.1469 4.09051 19.3572 6.97441 19.3572H17.0262C19.9101 19.3572 22.2556 17.1469 22.2556 14.4305V6.56957C22.2556 3.85324 19.9101 1.64293 17.0262 1.64293H6.97441ZM17.0262 21.0001H6.97438C3.12879 21.0001 -0.000473022 18.0527 -0.000473022 14.4305V6.56958C-0.000473022 2.94635 3.12879 0 6.97438 0H17.0262C20.8718 0 23.9999 2.94635 23.9999 6.56958V14.4305C23.9999 18.0527 20.8718 21.0001 17.0262 21.0001Z" fill="#665AF0"/>
</g>
<path fill-rule="evenodd" clip-rule="evenodd" d="M12.4247 6.61353H6.14639C5.66497 6.61353 5.27425 6.24551 5.27425 5.79205C5.27425 5.3386 5.66497 4.97058 6.14639 4.97058H12.4247C12.9061 4.97058 13.2968 5.3386 13.2968 5.79205C13.2968 6.24551 12.9061 6.61353 12.4247 6.61353Z" fill="#665AF0"/>
</svg>
